<?xml version="1.0" encoding="UTF-8"?>
<svg width="164px" height="231px" viewBox="0 0 164 231" version="1.1" xmlns="http://www.w3.org/2000/svg" xmlns:xlink="http://www.w3.org/1999/xlink">
    <title>AOD</title>
    <defs>
        <linearGradient x1="53.5376617%" y1="9.72527082%" x2="45.5752758%" y2="100%" id="linearGradient-1">
            <stop stop-color="#C7CAD1" offset="0%"></stop>
            <stop stop-color="#919497" offset="28.5784449%"></stop>
            <stop stop-color="#7B7D80" offset="99.2144842%"></stop>
            <stop stop-color="#D4D8DE" offset="100%"></stop>
        </linearGradient>
        <radialGradient cx="38.5455277%" cy="32.9365489%" fx="38.5455277%" fy="32.9365489%" r="107.568899%" gradientTransform="translate(0.385455,0.329365),scale(0.636364,1.000000),rotate(31.904655),scale(1.000000,1.033210),translate(-0.385455,-0.329365)" id="radialGradient-2">
            <stop stop-color="#DFE1E6" offset="0%"></stop>
            <stop stop-color="#85898F" offset="100%"></stop>
        </radialGradient>
        <linearGradient x1="100%" y1="50%" x2="0%" y2="50%" id="linearGradient-3">
            <stop stop-color="#B4B7BF" offset="0%"></stop>
            <stop stop-color="#D4D7DC" offset="38.4274047%"></stop>
            <stop stop-color="#6B7074" offset="91.7482759%"></stop>
            <stop stop-color="#D4D8DE" offset="100%"></stop>
        </linearGradient>
        <filter x="-2.1%" y="-3.7%" width="104.3%" height="107.4%" filterUnits="objectBoundingBox" id="filter-4">
            <feGaussianBlur stdDeviation="1" in="SourceGraphic"></feGaussianBlur>
        </filter>
        <linearGradient x1="100%" y1="50%" x2="0%" y2="50%" id="linearGradient-5">
            <stop stop-color="#B4B7BF" offset="0%"></stop>
            <stop stop-color="#D4D7DC" offset="38.4274047%"></stop>
            <stop stop-color="#6B7074" offset="91.7482759%"></stop>
            <stop stop-color="#D4D8DE" offset="100%"></stop>
        </linearGradient>
        <linearGradient x1="100%" y1="50%" x2="0%" y2="50%" id="linearGradient-6">
            <stop stop-color="#E3E5E9" offset="0%"></stop>
            <stop stop-color="#B9BDC2" offset="100%"></stop>
        </linearGradient>
        <linearGradient x1="92.7849216%" y1="54.2007168%" x2="3.67843881%" y2="42.4263182%" id="linearGradient-7">
            <stop stop-color="#D4D5D7" offset="0%"></stop>
            <stop stop-color="#C9CCD2" offset="38.4274047%"></stop>
            <stop stop-color="#767A7E" offset="86.828682%"></stop>
            <stop stop-color="#D4D8DE" offset="100%"></stop>
        </linearGradient>
        <linearGradient x1="100%" y1="50%" x2="0%" y2="50%" id="linearGradient-8">
            <stop stop-color="#E3E5E9" offset="0%"></stop>
            <stop stop-color="#B9BDC2" offset="100%"></stop>
        </linearGradient>
        <linearGradient x1="100%" y1="50%" x2="0%" y2="50%" id="linearGradient-9">
            <stop stop-color="#CCCFD4" offset="0%"></stop>
            <stop stop-color="#C9CCD2" offset="38.4274047%"></stop>
            <stop stop-color="#767A7E" offset="89.7885968%"></stop>
            <stop stop-color="#D4D8DE" offset="100%"></stop>
        </linearGradient>
        <linearGradient x1="100%" y1="50%" x2="0%" y2="50%" id="linearGradient-10">
            <stop stop-color="#E3E5E9" offset="0%"></stop>
            <stop stop-color="#B9BDC2" offset="100%"></stop>
        </linearGradient>
        <linearGradient x1="100%" y1="50%" x2="0%" y2="50%" id="linearGradient-11">
            <stop stop-color="#7F8185" offset="0%"></stop>
            <stop stop-color="#323335" offset="100%"></stop>
        </linearGradient>
        <linearGradient x1="100%" y1="50%" x2="0%" y2="50%" id="linearGradient-12">
            <stop stop-color="#E3E5E9" offset="0%"></stop>
            <stop stop-color="#D3D7DD" offset="38.4274047%"></stop>
            <stop stop-color="#9C9FA4" offset="84.4193548%"></stop>
            <stop stop-color="#D4D8DE" offset="100%"></stop>
        </linearGradient>
        <linearGradient x1="100%" y1="50%" x2="0%" y2="50%" id="linearGradient-13">
            <stop stop-color="#83B5FF" offset="0%"></stop>
            <stop stop-color="#1F4988" offset="75.9183716%"></stop>
            <stop stop-color="#2F62AE" offset="100%"></stop>
        </linearGradient>
    </defs>
    <g id="-" stroke="none" stroke-width="1" fill="none" fill-rule="evenodd">
        <g id="画板" transform="translate(-1817.000000, -442.000000)">
            <g id="AOD" transform="translate(1817.000000, 442.000000)">
                <g id="编组-31" transform="translate(0.000000, 73.000000)">
                    <path d="M28.2642288,1.36949144 L36.2485599,5.88310334 L29.5670074,17.3804749 C28.6104785,19.6889984 27.3084281,21.9421558 25.7426889,23.9600503 L18.9080082,35.7176121 L14.2446366,33.0727981 L8.75,91.0470054 L0.338636589,86.1842762 L6.26730932,23.5470054 L6.29695095,23.5609367 C5.86585752,16.7066184 10.1789262,7.88789664 16.4966628,3.12714066 C21.0195838,-0.281124746 25.4328342,-0.752705724 28.2642288,1.36949144 Z" id="形状结合" fill="url(#linearGradient-1)"></path>
                    <path d="M25.1293531,8.03734234 C31.9418522,2.90375608 38.505543,4.4325927 39.7897668,11.4520945 C39.8235307,11.636646 39.8533091,11.8231555 39.8791644,12.0114856 L40,11.9380215 L48.75,67.8910162 L8.75,91.0470054 L14.8192407,27.0193325 L14.9091581,26.9660698 C15.1284467,20.3709741 19.2653772,12.4561651 25.1293531,8.03734234 Z" id="形状结合" fill="#C2C6CB"></path>
                    <path d="M26.4660985,25.425986 C30.0203374,25.425986 33.9820973,23.4672318 35.3149368,21.050986 C36.6477764,18.6347403 34.8469765,16.675986 31.2927376,16.675986 C27.7384987,16.675986 23.7767388,18.6347403 22.4438993,21.050986 C21.1110597,23.4672318 22.9118596,25.425986 26.4660985,25.425986 Z" id="椭圆形" fill="url(#radialGradient-2)" transform="translate(28.879418, 21.050986) rotate(-40.000000) translate(-28.879418, -21.050986) "></path>
                </g>
                <g id="转炉" transform="translate(81.750000, 105.000000) rotate(-360.000000) translate(-81.750000, -105.000000) translate(11.250000, 0.000000)">
                    <path d="M136.25,80.75 L136.25,172.803442 L136.166656,172.803181 C134.429362,193.242498 105.749785,209.5 70.625,209.5 C35.5002151,209.5 6.82063844,193.242498 5.0833437,172.803181 L5,172.803442 L5,80.75 L136.25,80.75 Z" id="形状结合" fill="url(#linearGradient-3)"></path>
                    <ellipse id="椭圆形" fill-opacity="0.1" fill="#000000" filter="url(#filter-4)" cx="70.8750015" cy="104.562501" rx="70.1250015" ry="40.5625009"></ellipse>
                    <path d="M70.1250015,53.5000013 C93.3991509,53.5000013 114.025083,60.1696293 126.780456,70.4369206 L140.250003,70.43776 L140.250003,96.8474598 L140.160923,96.8474341 C138.304284,118.654571 107.658199,136.000001 70.1250015,136.000001 C32.5918039,136.000001 1.94571871,118.654571 0.0890801808,96.8474341 L2.27373675e-12,96.8474598 L2.27373675e-12,70.43776 L13.4695466,70.4369206 C26.2249205,60.1696293 46.8508522,53.5000013 70.1250015,53.5000013 Z" id="形状结合" fill="url(#linearGradient-5)"></path>
                    <ellipse id="椭圆形" fill="url(#linearGradient-6)" cx="70.1250015" cy="72.0625017" rx="70.1250015" ry="40.5625009"></ellipse>
                    <path d="M118.107761,41.2500007 C121.032402,45.1348923 123.475474,49.0302524 125.436976,52.9360809 C127.096181,56.2399613 128.58927,59.9066845 129.916242,63.9362504 L130.625,63.9375012 C130.625,64.5845407 130.593537,65.2274048 130.531432,65.8656265 L130.625,66.1748753 L130.498923,66.1746915 C128.470353,84.1167653 102.215399,98.312502 70.1250002,98.312502 C38.0799823,98.312502 11.8539131,84.1568849 9.75982794,66.250784 L9.62500021,66.2500007 C9.6568218,66.1327494 9.68910356,66.0154711 9.72184548,65.8981658 C9.65755919,65.2495945 9.62500021,64.5957082 9.62500021,63.9375012 L9.62500021,63.9375012 L10.3112721,63.9370968 C11.4835466,60.2959936 13.0969064,56.6289883 15.1513515,52.9360809 C17.6414624,48.4600551 20.4353607,44.5646951 23.5330465,41.2500007 L23.5330465,41.2500007 Z" id="形状结合" fill="url(#linearGradient-7)"></path>
                    <ellipse id="椭圆形" fill="url(#linearGradient-8)" cx="70.625" cy="45.75" rx="48.125" ry="26.25"></ellipse>
                    <g id="右电极" transform="translate(50.000000, 0.000000)">
                        <g id="编组-6" transform="translate(0.000000, 25.750000)">
                            <path d="M20.4749999,6.56326322 C28.2023848,6.56326322 34.9299536,9.34140573 38.4156874,13.2497186 L40.9499998,13.2499999 L40.9499998,20.7499999 L40.7943645,20.7495473 C39.5448322,26.7072608 30.9239704,30.9499998 20.4749999,30.9499998 C10.0260294,30.9499998 1.40516758,26.7072608 0.155635229,20.7495473 L6.53699317e-13,20.7499999 L6.53699317e-13,13.2499999 L2.5343124,13.2497186 C6.02004617,9.34140573 12.747615,6.56326322 20.4749999,6.56326322 Z" id="形状结合" fill="url(#linearGradient-9)"></path>
                            <ellipse id="椭圆形" fill="url(#linearGradient-10)" cx="20.4749999" cy="12.5999999" rx="20.4749999" ry="12.5999999"></ellipse>
                        </g>
                        <ellipse id="椭圆形" fill="url(#linearGradient-11)" cx="20.4500009" cy="38.2000006" rx="11.7000009" ry="7.20000057"></ellipse>
                        <g id="编组-59" transform="translate(13.750000, 0.000000)">
                            <g id="编组-6" fill="url(#linearGradient-12)">
                                <path d="M6.75000027,1.1920929e-07 C10.0852265,1.1920929e-07 12.8554818,1.88138703 13.4021055,4.35409075 L13.5,4.3547747 L13.5,38.8547747 L13.4707734,38.855461 C13.1519843,40.6854551 10.2646971,42.0000018 6.75000027,42.0000018 C3.23530343,42.0000018 0.348015782,40.6854551 0.0292265802,38.855461 L0,38.8547747 L0,4.3547747 L0.0978945072,4.35409075 C0.644518276,1.88138703 3.41477405,1.1920929e-07 6.75000027,1.1920929e-07 Z" id="形状结合"></path>
                            </g>
                            <g id="编组-6" transform="translate(0.000000, 25.250001)" fill="url(#linearGradient-13)">
                                <path d="M13.5,0 L13.5,4.8991214 L13.4707353,4.90013825 C13.151754,6.95875321 10.264557,8.43750034 6.75000027,8.43750034 C3.23544357,8.43750034 0.348246034,6.95875321 0.029264726,4.90013825 L0,4.8991214 L0,0 L0.212896637,0.000587767198 C0.962545904,1.81986518 3.60510978,3.16406263 6.75000027,3.16406263 C9.89489076,3.16406263 12.5374543,1.81986518 13.2871034,0.000587767198 L13.5,0 Z" id="形状结合"></path>
                            </g>
                        </g>
                    </g>
                </g>
                <g id="编组-31" transform="translate(115.000000, 138.750000)">
                    <path d="M28.2642288,1.36949144 L36.2485599,5.88310334 L29.5670074,17.3804749 C28.6104785,19.6889984 27.3084281,21.9421558 25.7426889,23.9600503 L18.9080082,35.7176121 L14.2446366,33.0727981 L8.75,91.0470054 L0.338636589,86.1842762 L6.26730932,23.5470054 L6.29695095,23.5609367 C5.86585752,16.7066184 10.1789262,7.88789664 16.4966628,3.12714066 C21.0195838,-0.281124746 25.4328342,-0.752705724 28.2642288,1.36949144 Z" id="形状结合" fill="url(#linearGradient-1)"></path>
                    <path d="M25.1293531,8.03734234 C31.9418522,2.90375608 38.505543,4.4325927 39.7897668,11.4520945 C39.8235307,11.636646 39.8533091,11.8231555 39.8791644,12.0114856 L40,11.9380215 L48.75,67.8910162 L8.75,91.0470054 L14.8192407,27.0193325 L14.9091581,26.9660698 C15.1284467,20.3709741 19.2653772,12.4561651 25.1293531,8.03734234 Z" id="形状结合" fill="#C2C6CB"></path>
                    <path d="M26.4660985,25.425986 C30.0203374,25.425986 33.9820973,23.4672318 35.3149368,21.050986 C36.6477764,18.6347403 34.8469765,16.675986 31.2927376,16.675986 C27.7384987,16.675986 23.7767388,18.6347403 22.4438993,21.050986 C21.1110597,23.4672318 22.9118596,25.425986 26.4660985,25.425986 Z" id="椭圆形" fill="url(#radialGradient-2)" transform="translate(28.879418, 21.050986) rotate(-40.000000) translate(-28.879418, -21.050986) "></path>
                </g>
            </g>
        </g>
    </g>
</svg>