<?xml version="1.0" encoding="UTF-8"?>
<svg width="193px" height="311px" viewBox="0 0 193 311" version="1.1" xmlns="http://www.w3.org/2000/svg" xmlns:xlink="http://www.w3.org/1999/xlink">
    <title>LF</title>
    <defs>
        <linearGradient x1="55.7608795%" y1="15.4272103%" x2="41.3224874%" y2="100%" id="linearGradient-1">
            <stop stop-color="#D5D8DF" offset="0%"></stop>
            <stop stop-color="#7B7D80" offset="72.7674837%"></stop>
            <stop stop-color="#D4D8DE" offset="100%"></stop>
        </linearGradient>
        <radialGradient cx="38.5455277%" cy="32.9365489%" fx="38.5455277%" fy="32.9365489%" r="107.568899%" gradientTransform="translate(0.385455,0.329365),scale(0.636364,1.000000),rotate(31.904655),scale(1.000000,1.033210),translate(-0.385455,-0.329365)" id="radialGradient-2">
            <stop stop-color="#DFE1E6" offset="0%"></stop>
            <stop stop-color="#85898F" offset="100%"></stop>
        </radialGradient>
        <linearGradient x1="100%" y1="50%" x2="0%" y2="50%" id="linearGradient-3">
            <stop stop-color="#B4B7BF" offset="0%"></stop>
            <stop stop-color="#D4D7DC" offset="38.4274047%"></stop>
            <stop stop-color="#6B7074" offset="91.7482759%"></stop>
            <stop stop-color="#D4D8DE" offset="100%"></stop>
        </linearGradient>
        <filter x="-2.1%" y="-3.7%" width="104.3%" height="107.4%" filterUnits="objectBoundingBox" id="filter-4">
            <feGaussianBlur stdDeviation="1" in="SourceGraphic"></feGaussianBlur>
        </filter>
        <linearGradient x1="100%" y1="50%" x2="0%" y2="50%" id="linearGradient-5">
            <stop stop-color="#D5D8DF" offset="0%"></stop>
            <stop stop-color="#C9CCD2" offset="38.4274047%"></stop>
            <stop stop-color="#767A7E" offset="89.7885968%"></stop>
            <stop stop-color="#D4D8DE" offset="100%"></stop>
        </linearGradient>
        <linearGradient x1="100%" y1="50%" x2="0%" y2="50%" id="linearGradient-6">
            <stop stop-color="#BFC3CB" offset="0%"></stop>
            <stop stop-color="#A9ADB2" offset="38.4274047%"></stop>
            <stop stop-color="#9D9EA0" offset="88.8851115%"></stop>
            <stop stop-color="#D4D8DE" offset="100%"></stop>
        </linearGradient>
        <filter x="-2.1%" y="-3.7%" width="104.3%" height="107.4%" filterUnits="objectBoundingBox" id="filter-7">
            <feGaussianBlur stdDeviation="1" in="SourceGraphic"></feGaussianBlur>
        </filter>
        <linearGradient x1="100%" y1="50%" x2="0%" y2="50%" id="linearGradient-8">
            <stop stop-color="#DFE2E6" offset="0%"></stop>
            <stop stop-color="#7A7E82" offset="88.4164964%"></stop>
            <stop stop-color="#D4D8DE" offset="100%"></stop>
        </linearGradient>
        <filter x="-2.1%" y="-3.7%" width="104.3%" height="107.4%" filterUnits="objectBoundingBox" id="filter-9">
            <feGaussianBlur stdDeviation="1" in="SourceGraphic"></feGaussianBlur>
        </filter>
        <linearGradient x1="100%" y1="50%" x2="0%" y2="50%" id="linearGradient-10">
            <stop stop-color="#D5D8DF" offset="0%"></stop>
            <stop stop-color="#C9CCD2" offset="38.4274047%"></stop>
            <stop stop-color="#767A7E" offset="91.7482759%"></stop>
            <stop stop-color="#D4D8DE" offset="100%"></stop>
        </linearGradient>
        <linearGradient x1="100%" y1="50%" x2="0%" y2="50%" id="linearGradient-11">
            <stop stop-color="#E3E5E9" offset="0%"></stop>
            <stop stop-color="#B9BDC2" offset="100%"></stop>
        </linearGradient>
        <linearGradient x1="100%" y1="50%" x2="0%" y2="50%" id="linearGradient-12">
            <stop stop-color="#C8CBD0" offset="0%"></stop>
            <stop stop-color="#C6CACF" offset="34.437338%"></stop>
            <stop stop-color="#C9CCD2" offset="38.4274047%"></stop>
            <stop stop-color="#767A7E" offset="89.7885968%"></stop>
            <stop stop-color="#D4D8DE" offset="100%"></stop>
        </linearGradient>
        <linearGradient x1="100%" y1="50%" x2="0%" y2="50%" id="linearGradient-13">
            <stop stop-color="#E3E5E9" offset="0%"></stop>
            <stop stop-color="#B9BDC2" offset="100%"></stop>
        </linearGradient>
        <linearGradient x1="100%" y1="50%" x2="0%" y2="50%" id="linearGradient-14">
            <stop stop-color="#D6D6D6" offset="0%"></stop>
            <stop stop-color="#C9CCD2" offset="38.4274047%"></stop>
            <stop stop-color="#767A7E" offset="91.7482759%"></stop>
            <stop stop-color="#D4D8DE" offset="100%"></stop>
        </linearGradient>
        <linearGradient x1="100%" y1="50%" x2="0%" y2="50%" id="linearGradient-15">
            <stop stop-color="#E3E5E9" offset="0%"></stop>
            <stop stop-color="#B9BDC2" offset="100%"></stop>
        </linearGradient>
        <linearGradient x1="100%" y1="50%" x2="0%" y2="50%" id="linearGradient-16">
            <stop stop-color="#7F8185" offset="0%"></stop>
            <stop stop-color="#323335" offset="100%"></stop>
        </linearGradient>
        <linearGradient x1="100%" y1="50%" x2="0%" y2="50%" id="linearGradient-17">
            <stop stop-color="#E3E5E9" offset="0%"></stop>
            <stop stop-color="#D3D7DD" offset="38.4274047%"></stop>
            <stop stop-color="#9C9FA4" offset="84.4193548%"></stop>
            <stop stop-color="#D4D8DE" offset="100%"></stop>
        </linearGradient>
        <linearGradient x1="100%" y1="50%" x2="0%" y2="50%" id="linearGradient-18">
            <stop stop-color="#83B5FF" offset="0%"></stop>
            <stop stop-color="#1F4988" offset="75.9183716%"></stop>
            <stop stop-color="#2F62AE" offset="100%"></stop>
        </linearGradient>
    </defs>
    <g id="-" stroke="none" stroke-width="1" fill="none" fill-rule="evenodd">
        <g id="画板" transform="translate(-1451.000000, -386.000000)">
            <g id="LF" transform="translate(1451.000000, 386.000000)">
                <g id="支柱-右" transform="translate(0.000000, 123.000000)">
                    <polygon id="路径-114" fill="#DCDEE3" points="50.8789613 29.4380215 42.30388 34.4154206 50.5604622 39.2297666 59.1229792 34.223255"></polygon>
                    <g id="编组-31" transform="translate(17.128961, 0.000000)">
                        <path d="M22.0142288,1.36949144 L29.9985599,5.88310334 L23.3170074,17.3804749 C22.3604785,19.6889984 21.0584281,21.9421558 19.4926889,23.9600503 L12.6580082,35.7176121 L8.56830932,33.3977981 L8.56924068,54.3170829 L0.0173093184,49.349689 L0.0173093184,23.5470054 L0.046888156,23.5599377 C-0.383723406,16.7057616 3.92923316,7.88766535 10.2466628,3.12714066 C14.7695838,-0.281124746 19.1828342,-0.752705724 22.0142288,1.36949144 Z" id="形状结合" fill="url(#linearGradient-1)"></path>
                        <path d="M18.8793531,8.03734234 C25.6918522,2.90375608 32.255543,4.4325927 33.5397668,11.4520945 C33.5735307,11.636646 33.6033091,11.8231555 33.6291644,12.0114856 L33.75,11.9380215 L33.7506126,13.4593851 C33.7622055,13.8054132 33.7621291,14.1560167 33.750724,14.5104471 L33.75,38.826986 L28.75,51.4924302 L16.2579346,58.9886683 L8.56924068,54.3170829 L8.56924068,27.0193325 L8.65915811,26.9660698 C8.87844674,20.3709741 13.0153772,12.4561651 18.8793531,8.03734234 Z" id="形状结合" fill="#C2C6CB"></path>
                        <path d="M20.2160985,25.425986 C23.7703374,25.425986 27.7320973,23.4672318 29.0649368,21.050986 C30.3977764,18.6347403 28.5969765,16.675986 25.0427376,16.675986 C21.4884987,16.675986 17.5267388,18.6347403 16.1938993,21.050986 C14.8610597,23.4672318 16.6618596,25.425986 20.2160985,25.425986 Z" id="椭圆形" fill="url(#radialGradient-2)" transform="translate(22.629418, 21.050986) rotate(-40.000000) translate(-22.629418, -21.050986) "></path>
                    </g>
                    <polygon id="路径-114" fill="#DCDEE3" points="17.1289613 49.4380215 8.55388004 54.4154206 16.8104622 59.2297666 25.3729792 54.223255"></polygon>
                    <polygon id="路径-36" fill="#B6BABF" transform="translate(41.148081, 76.517865) scale(-1, 1) translate(-41.148081, -76.517865) " points="31.4172012 38.9320442 23.1731834 34.223255 8.37896134 80.6548746 73.9172012 118.812475 65.4857004 59.2297666 56.9231834 54.3338941 48.9092666 58.9886683 36.4172012 51.4924302"></polygon>
                    <polygon id="路径-115" fill="#989B9F" points="8.37896134 118.812475 0 113.91261 8.95437148 54.6738065 16.8104622 59.2297666"></polygon>
                </g>
                <g id="炉体" transform="translate(10.878961, 114.000000)">
                    <path d="M146.500003,87.5 L146.500003,135 L146.410838,135.000976 C144.553346,156.807643 113.907625,174.152541 76.3750015,174.152541 C38.8423785,174.152541 8.19665706,156.807643 6.33916547,135.000976 L6.25,135 L6.25,87.5 L146.500003,87.5 Z" id="形状结合" fill="url(#linearGradient-3)"></path>
                    <ellipse id="椭圆形" fill-opacity="0.1" fill="#000000" filter="url(#filter-4)" cx="76.2460402" cy="102.562501" rx="70.1250015" ry="40.5625009"></ellipse>
                    <g id="编组-40" transform="translate(0.000000, 42.500000)">
                        <ellipse id="4层" fill="url(#linearGradient-5)" cx="76.875" cy="48.125" rx="76.875" ry="44.375"></ellipse>
                        <ellipse id="4层" fill="url(#linearGradient-6)" cx="76.875" cy="44.375" rx="76.875" ry="44.375"></ellipse>
                    </g>
                    <path d="M146.500003,37.5 L146.500003,85 L146.410838,85.0009759 C144.553346,106.807643 113.907625,124.152541 76.3750015,124.152541 C38.8423785,124.152541 8.19665706,106.807643 6.33916547,85.0009759 L6.25,85 L6.25,37.5 L146.500003,37.5 Z" id="形状结合" fill="url(#linearGradient-3)"></path>
                    <ellipse id="椭圆形" fill-opacity="0.1" fill="#000000" filter="url(#filter-7)" cx="76.3710417" cy="60.5625009" rx="70" ry="40.5625009"></ellipse>
                    <g id="编组-40">
                        <ellipse id="4层" fill="url(#linearGradient-5)" cx="76.875" cy="48.125" rx="76.875" ry="44.375"></ellipse>
                        <ellipse id="4层" fill="url(#linearGradient-8)" cx="76.875" cy="44.375" rx="76.875" ry="44.375"></ellipse>
                    </g>
                </g>
                <g id="盖子" transform="translate(10.878961, 64.000000)">
                    <path d="M146.500003,44.5974586 L146.500003,92.0974586 L146.410838,92.0984344 C144.553346,113.905101 113.907625,131.25 76.3750015,131.25 C38.8423785,131.25 8.19665706,113.905101 6.33916547,92.0984344 L6.25,92.0974586 L6.25,44.5974586 L146.500003,44.5974586 Z" id="形状结合" fill="url(#linearGradient-3)"></path>
                    <ellipse id="椭圆形" fill-opacity="0.1" fill="#000000" filter="url(#filter-9)" cx="76.2460402" cy="70.5625009" rx="70.1250015" ry="40.5625009"></ellipse>
                    <g id="编组-41">
                        <path d="M75.7350047,14.400001 C110.411376,14.400001 139.644606,28.1087394 148.626673,46.8156144 L151.470009,46.8152571 L151.470009,59.8652584 L151.454321,59.8659475 C150.625249,84.0474021 117.042016,103.500006 75.7350047,103.500006 C34.4279933,103.500006 0.844760616,84.0474021 0.0156886988,59.8659475 L0,59.8652584 L0,46.8152571 L2.84333647,46.8156144 C11.8254033,28.1087394 41.0586337,14.400001 75.7350047,14.400001 Z" id="形状结合" fill="url(#linearGradient-10)"></path>
                        <ellipse id="椭圆形" fill="url(#linearGradient-11)" cx="75.7350047" cy="43.8075027" rx="75.7350047" ry="43.8075027"></ellipse>
                    </g>
                </g>
                <g id="电级" transform="translate(33.378961, 0.000000)">
                    <g id="电极座" transform="translate(0.000000, 67.750000)">
                        <path d="M54.375,3.75 C81.4198945,3.75 103.853204,15.5513367 108.046467,31.0082626 L108.75,31.0086037 L108.75,37.9025431 L108.680884,37.9030409 C107.240809,55.0841787 83.4779881,68.75 54.375,68.75 C25.2720119,68.75 1.50919055,55.0841787 0.0691163304,37.9030409 L0,37.9025431 L0,31.0086037 L0.703532917,31.0082626 C4.8967962,15.5513367 27.3301055,3.75 54.375,3.75 Z" id="形状结合" fill="url(#linearGradient-12)"></path>
                        <ellipse id="椭圆形" fill="url(#linearGradient-13)" cx="54.375" cy="31.25" rx="54.375" ry="31.25"></ellipse>
                    </g>
                    <g id="编组-25" transform="translate(18.750000, 0.000001)">
                        <path d="M36.0000006,77.7499993 C43.6222724,77.7499993 50.2960626,80.2155626 53.9758509,83.9047655 L54.0000021,83.9043626 L54.0876593,84.0181831 C54.8156271,84.7653941 55.4215671,85.5616186 55.8888228,86.3967436 L68.6572357,103.25 L68.6495673,103.259141 C69.8383472,104.857816 70.5000011,106.631995 70.5000011,108.500001 C70.5000011,108.515067 70.4999581,108.530127 70.4998721,108.545181 L70.5,108.54502 L70.5,125.000004 L7.10542736e-15,125.000004 L7.10542736e-15,108.54502 L0.001,108.544999 L0,108.500001 C0,106.084933 1.1059439,103.826696 3.02711777,101.901792 L16.7024634,85.4628845 C17.0424388,84.983403 17.4294742,84.5191176 17.8600382,84.0721722 L18.0000007,83.9043626 L18.0241507,83.9047655 C21.7039393,80.2155626 28.3777299,77.7499993 36.0000006,77.7499993 Z" id="形状结合" fill="url(#linearGradient-14)" transform="translate(35.250001, 101.375002) scale(1, -1) translate(-35.250001, -101.375002) "></path>
                        <path d="M36.0000006,66.2500029 C43.6222724,66.2500029 50.2960626,68.7155663 53.9758509,72.4047692 L54.0000021,72.4043663 L54.0876593,72.5181867 C54.8156271,73.2653978 55.4215671,74.0616222 55.8888228,74.8967472 L68.6572357,91.7500039 L68.6495673,91.7591447 C69.8383472,93.3578196 70.5000011,95.1319987 70.5000011,97.0000041 C70.5000011,104.041635 61.0979822,109.750004 49.5000011,109.750004 C48.9728203,109.750004 48.4501765,109.738209 47.9327466,109.715032 L22.5672548,109.715032 C22.0498248,109.738209 21.527181,109.750004 21,109.750004 C9.40202063,109.750004 0,104.041635 0,97.0000041 C0,94.584937 1.1059439,92.3266992 3.02711777,90.4017955 L16.7024634,73.9628881 C17.0424388,73.4834067 17.4294742,73.0191213 17.8600382,72.5721758 L18.0000007,72.4043663 L18.0241507,72.4047692 C21.7039393,68.7155663 28.3777299,66.2500029 36.0000006,66.2500029 Z" id="形状结合" fill="url(#linearGradient-15)" transform="translate(35.250001, 88.000003) scale(1, -1) translate(-35.250001, -88.000003) "></path>
                        <g id="左电极" transform="translate(9.000000, 0.000000)">
                            <g id="编组-6" transform="translate(0.000000, 69.700005)" fill="url(#linearGradient-16)">
                                <ellipse id="椭圆形" cx="11.7000009" cy="7.20000057" rx="11.7000009" ry="7.20000057"></ellipse>
                            </g>
                            <g id="编组-6" transform="translate(3.600000, 0.000000)" fill="url(#linearGradient-17)">
                                <path d="M8.10000064,0.100000167 C12.5735075,0.100000167 16.2000013,2.92060647 16.2000013,6.40000067 L16.196,6.22500017 L16.2000013,6.22573155 L16.2000013,76.7257316 L16.1649155,76.726636 C15.7822986,78.9225874 12.317586,80.5000054 8.10000064,80.5000054 C3.88241526,80.5000054 0.417702732,78.9225874 0.0350857739,76.726636 L7.10542736e-15,76.7257316 L7.10542736e-15,6.22573155 C0.122285293,2.82648086 3.70176917,0.100000167 8.10000064,0.100000167 Z" id="形状结合"></path>
                            </g>
                            <g id="编组-6" transform="translate(3.600000, 58.900004)" fill="url(#linearGradient-18)">
                                <path d="M16.2000013,-4.26325641e-14 L16.2000013,5.87894592 L16.1650747,5.87893114 C15.7832607,8.34991275 12.3181716,10.1250008 8.10000064,10.1250008 C3.88182966,10.1250008 0.41674062,8.34991275 0.0349265771,5.87893114 L0,5.87894592 L0,-4.26325641e-14 L0.255268693,0.000202174607 C1.15456792,2.18359046 4.32584199,3.7968753 8.10000064,3.7968753 C11.8741593,3.7968753 15.0454334,2.18359046 15.9447326,0.000202174607 L16.2000013,-4.26325641e-14 Z" id="形状结合"></path>
                            </g>
                        </g>
                        <g id="左电极" transform="translate(37.500001, 0.000000)">
                            <g id="编组-6" transform="translate(0.000000, 69.700005)" fill="url(#linearGradient-16)">
                                <ellipse id="椭圆形" cx="11.7000009" cy="7.20000057" rx="11.7000009" ry="7.20000057"></ellipse>
                            </g>
                            <g id="编组-6" transform="translate(3.600000, 0.000000)" fill="url(#linearGradient-17)">
                                <path d="M8.10000064,0.100000167 C12.5735075,0.100000167 16.2000013,2.92060647 16.2000013,6.40000067 L16.196,6.22500017 L16.2000013,6.22573155 L16.2000013,76.7257316 L16.1649155,76.726636 C15.7822986,78.9225874 12.317586,80.5000054 8.10000064,80.5000054 C3.88241526,80.5000054 0.417702732,78.9225874 0.0350857739,76.726636 L7.10542736e-15,76.7257316 L7.10542736e-15,6.22573155 C0.122285293,2.82648086 3.70176917,0.100000167 8.10000064,0.100000167 Z" id="形状结合"></path>
                            </g>
                            <g id="编组-6" transform="translate(3.600000, 58.900004)" fill="url(#linearGradient-18)">
                                <path d="M16.2000013,-4.26325641e-14 L16.2000013,5.87894592 L16.1650747,5.87893114 C15.7832607,8.34991275 12.3181716,10.1250008 8.10000064,10.1250008 C3.88182966,10.1250008 0.41674062,8.34991275 0.0349265771,5.87893114 L0,5.87894592 L0,-4.26325641e-14 L0.255268693,0.000202174607 C1.15456792,2.18359046 4.32584199,3.7968753 8.10000064,3.7968753 C11.8741593,3.7968753 15.0454334,2.18359046 15.9447326,0.000202174607 L16.2000013,-4.26325641e-14 Z" id="形状结合"></path>
                            </g>
                        </g>
                        <g id="左电极" transform="translate(24.000001, 18.249999)">
                            <g id="编组-6" transform="translate(0.000000, 69.700005)" fill="url(#linearGradient-16)">
                                <ellipse id="椭圆形" cx="11.7000009" cy="7.20000057" rx="11.7000009" ry="7.20000057"></ellipse>
                            </g>
                            <g id="编组-6" transform="translate(3.600000, 0.000000)" fill="url(#linearGradient-17)">
                                <path d="M8.10000064,0.100000167 C12.5735075,0.100000167 16.2000013,2.92060647 16.2000013,6.40000067 L16.196,6.22500017 L16.2000013,6.22573155 L16.2000013,76.7257316 L16.1649155,76.726636 C15.7822986,78.9225874 12.317586,80.5000054 8.10000064,80.5000054 C3.88241526,80.5000054 0.417702732,78.9225874 0.0350857739,76.726636 L7.10542736e-15,76.7257316 L7.10542736e-15,6.22573155 C0.122285293,2.82648086 3.70176917,0.100000167 8.10000064,0.100000167 Z" id="形状结合"></path>
                            </g>
                            <g id="编组-6" transform="translate(3.600000, 58.900004)" fill="url(#linearGradient-18)">
                                <path d="M16.2000013,-4.26325641e-14 L16.2000013,5.87894592 L16.1650747,5.87893114 C15.7832607,8.34991275 12.3181716,10.1250008 8.10000064,10.1250008 C3.88182966,10.1250008 0.41674062,8.34991275 0.0349265771,5.87893114 L0,5.87894592 L0,-4.26325641e-14 L0.255268693,0.000202174607 C1.15456792,2.18359046 4.32584199,3.7968753 8.10000064,3.7968753 C11.8741593,3.7968753 15.0454334,2.18359046 15.9447326,0.000202174607 L16.2000013,-4.26325641e-14 Z" id="形状结合"></path>
                            </g>
                        </g>
                    </g>
                </g>
                <g id="支柱-右" transform="translate(118.750000, 192.000000)">
                    <polygon id="路径-114" fill="#DCDEE3" points="50.8789613 29.4380215 42.30388 34.4154206 50.5604622 39.2297666 59.1229792 34.223255"></polygon>
                    <g id="编组-31" transform="translate(17.128961, 0.000000)">
                        <path d="M22.0142288,1.36949144 L29.9985599,5.88310334 L23.3170074,17.3804749 C22.3604785,19.6889984 21.0584281,21.9421558 19.4926889,23.9600503 L12.6580082,35.7176121 L8.56830932,33.3977981 L8.56924068,54.3170829 L0.0173093184,49.349689 L0.0173093184,23.5470054 L0.046888156,23.5599377 C-0.383723406,16.7057616 3.92923316,7.88766535 10.2466628,3.12714066 C14.7695838,-0.281124746 19.1828342,-0.752705724 22.0142288,1.36949144 Z" id="形状结合" fill="url(#linearGradient-1)"></path>
                        <path d="M18.8793531,8.03734234 C25.6918522,2.90375608 32.255543,4.4325927 33.5397668,11.4520945 C33.5735307,11.636646 33.6033091,11.8231555 33.6291644,12.0114856 L33.75,11.9380215 L33.7506126,13.4593851 C33.7622055,13.8054132 33.7621291,14.1560167 33.750724,14.5104471 L33.75,38.826986 L28.75,51.4924302 L16.2579346,58.9886683 L8.56924068,54.3170829 L8.56924068,27.0193325 L8.65915811,26.9660698 C8.87844674,20.3709741 13.0153772,12.4561651 18.8793531,8.03734234 Z" id="形状结合" fill="#C2C6CB"></path>
                        <path d="M20.2160985,25.425986 C23.7703374,25.425986 27.7320973,23.4672318 29.0649368,21.050986 C30.3977764,18.6347403 28.5969765,16.675986 25.0427376,16.675986 C21.4884987,16.675986 17.5267388,18.6347403 16.1938993,21.050986 C14.8610597,23.4672318 16.6618596,25.425986 20.2160985,25.425986 Z" id="椭圆形" fill="url(#radialGradient-2)" transform="translate(22.629418, 21.050986) rotate(-40.000000) translate(-22.629418, -21.050986) "></path>
                    </g>
                    <polygon id="路径-114" fill="#DCDEE3" points="17.1289613 49.4380215 8.55388004 54.4154206 16.8104622 59.2297666 25.3729792 54.223255"></polygon>
                    <polygon id="路径-36" fill="#B6BABF" transform="translate(41.148081, 76.517865) scale(-1, 1) translate(-41.148081, -76.517865) " points="31.4172012 38.9320442 23.1731834 34.223255 8.37896134 80.6548746 73.9172012 118.812475 65.4857004 59.2297666 56.9231834 54.3338941 48.9092666 58.9886683 36.4172012 51.4924302"></polygon>
                    <polygon id="路径-115" fill="#989B9F" points="8.37896134 118.812475 0 113.91261 8.95437148 54.6738065 16.8104622 59.2297666"></polygon>
                </g>
            </g>
        </g>
    </g>
</svg>