<?xml version="1.0" encoding="UTF-8"?>
<svg width="479px" height="362px" viewBox="0 0 479 362" version="1.1" xmlns="http://www.w3.org/2000/svg" xmlns:xlink="http://www.w3.org/1999/xlink">
    <title>回转台</title>
    <defs>
        <linearGradient x1="100%" y1="50%" x2="0%" y2="50%" id="linearGradient-1">
            <stop stop-color="#8F9398" offset="0%"></stop>
            <stop stop-color="#989CA1" offset="29.9689796%"></stop>
            <stop stop-color="#37383A" offset="87.5802178%"></stop>
            <stop stop-color="#8F9195" offset="100%"></stop>
        </linearGradient>
        <linearGradient x1="100%" y1="50%" x2="0%" y2="50%" id="linearGradient-2">
            <stop stop-color="#7F8185" offset="0%"></stop>
            <stop stop-color="#323335" offset="100%"></stop>
        </linearGradient>
        <linearGradient x1="100%" y1="50%" x2="0%" y2="50%" id="linearGradient-3">
            <stop stop-color="#D4D8DE" offset="0%"></stop>
            <stop stop-color="#6B7074" offset="10.9083299%"></stop>
            <stop stop-color="#D4D7DC" offset="61.5725953%"></stop>
            <stop stop-color="#B4B7BF" offset="100%"></stop>
        </linearGradient>
        <linearGradient x1="70.4560142%" y1="9.31006937%" x2="26.8686149%" y2="84.1499772%" id="linearGradient-4">
            <stop stop-color="#686B6F" offset="0%"></stop>
            <stop stop-color="#AAACAE" offset="29.9689796%"></stop>
            <stop stop-color="#37383A" offset="87.5802178%"></stop>
            <stop stop-color="#686B6F" offset="100%"></stop>
        </linearGradient>
        <linearGradient x1="100%" y1="50%" x2="0%" y2="50%" id="linearGradient-5">
            <stop stop-color="#E3E5E9" offset="0%"></stop>
            <stop stop-color="#B9BDC2" offset="100%"></stop>
        </linearGradient>
        <linearGradient x1="100%" y1="50%" x2="0%" y2="50%" id="linearGradient-6">
            <stop stop-color="#E3E5E9" offset="0%"></stop>
            <stop stop-color="#B9BDC2" offset="100%"></stop>
        </linearGradient>
        <linearGradient x1="100%" y1="50%" x2="0%" y2="50%" id="linearGradient-7">
            <stop stop-color="#E3E5E9" offset="0%"></stop>
            <stop stop-color="#B9BDC2" offset="100%"></stop>
        </linearGradient>
        <linearGradient x1="7.85919946%" y1="46.9084336%" x2="7.85919946%" y2="94.9776391%" id="linearGradient-8">
            <stop stop-color="#C2C6CB" offset="0%"></stop>
            <stop stop-color="#7A7A7A" offset="100%"></stop>
        </linearGradient>
        <linearGradient x1="100%" y1="50%" x2="3.29659673%" y2="50%" id="linearGradient-9">
            <stop stop-color="#E3E5E9" offset="0%"></stop>
            <stop stop-color="#CED0D4" offset="100%"></stop>
        </linearGradient>
        <linearGradient x1="100%" y1="50%" x2="0%" y2="50%" id="linearGradient-10">
            <stop stop-color="#E3E5E9" offset="0%"></stop>
            <stop stop-color="#B9BDC2" offset="100%"></stop>
        </linearGradient>
        <linearGradient x1="100%" y1="50%" x2="0%" y2="50%" id="linearGradient-11">
            <stop stop-color="#B4B7BF" offset="0%"></stop>
            <stop stop-color="#D4D7DC" offset="38.4274047%"></stop>
            <stop stop-color="#6B7074" offset="91.7482759%"></stop>
            <stop stop-color="#D4D8DE" offset="100%"></stop>
        </linearGradient>
        <linearGradient x1="100%" y1="50%" x2="0%" y2="50%" id="linearGradient-12">
            <stop stop-color="#E3E5E9" offset="0%"></stop>
            <stop stop-color="#B9BDC2" offset="100%"></stop>
        </linearGradient>
        <linearGradient x1="50%" y1="27.8576859%" x2="50%" y2="76.1088432%" id="linearGradient-13">
            <stop stop-color="#C2C6CB" offset="0%"></stop>
            <stop stop-color="#8F8F8F" offset="100%"></stop>
        </linearGradient>
        <linearGradient x1="100%" y1="50%" x2="0%" y2="50%" id="linearGradient-14">
            <stop stop-color="#E3E5E9" offset="0%"></stop>
            <stop stop-color="#B9BDC2" offset="100%"></stop>
        </linearGradient>
    </defs>
    <g id="-" stroke="none" stroke-width="1" fill="none" fill-rule="evenodd">
        <g id="画板" transform="translate(-729.000000, -1550.000000)">
            <g id="回转台" transform="translate(729.000000, 1550.500000)">
                <g id="编组-95" transform="translate(161.200009, 193.826139)">
                    <g id="编组-17" transform="translate(0.000000, 57.251554)">
                        <path d="M67.4391493,39.8274239 C75.5312647,39.8274239 83.2904977,40.5582584 90.4795187,41.8982295 L134.878299,41.8993104 L134.878299,76.4793117 L134.759468,76.4789228 C132.671512,94.6139942 103.329418,108.990333 67.4391493,108.990333 C31.5488804,108.990333 2.20678638,94.6139942 0.118830561,76.4789228 L6.96331881e-13,76.4793117 L6.96331881e-13,41.8993104 L44.39878,41.8982295 C51.587801,40.5582584 59.3470339,39.8274239 67.4391493,39.8274239 Z" id="形状结合" fill="url(#linearGradient-1)" transform="translate(67.439149, 74.408878) rotate(-360.000000) translate(-67.439149, -74.408878) "></path>
                        <ellipse id="椭圆形" fill="url(#linearGradient-2)" transform="translate(67.439149, 38.158846) rotate(-360.000000) translate(-67.439149, -38.158846) " cx="67.4391493" cy="38.1588464" rx="67.4391493" ry="38.1588464"></ellipse>
                    </g>
                    <path d="M129.220005,4.54747351e-13 L129.220005,91 L129.174669,91.0011049 C127.913722,108.660454 100.508173,122.771556 66.8850025,122.771556 C33.2618321,122.771556 5.85628298,108.660454 4.59533587,91.0011049 L4.55000017,91 L4.55000017,4.54747351e-13 L129.220005,4.54747351e-13 Z" id="形状结合" fill="url(#linearGradient-3)" transform="translate(66.885003, 61.385778) scale(-1, 1) rotate(-360.000000) translate(-66.885003, -61.385778) "></path>
                </g>
                <g id="编组-93" transform="translate(64.350004, 0.000000)">
                    <g id="编组-87">
                        <polygon id="路径-210" stroke="#979797" stroke-width="0.650000036" fill="#D8D8D8" points="89.0246668 123.439464 68.2500038 111.430578 68.2500038 81.3761331 89.0500049 93.3936004"></polygon>
                        <polygon id="路径-202" fill="#8A8F94" points="2.95585794e-13 35.8439018 2.95585794e-13 53.88946 20.8000011 89.9805763 41.6000023 101.989463 83.2000046 101.989463 83.2000046 83.9439044"></polygon>
                        <g id="编组-78" transform="translate(35.149996, 82.500000) scale(-1, 1) translate(-35.149996, -82.500000) translate(26.649996, 74.500000)">
                            <path d="M5.46243963,1.2592839 C6.97235923,0.0999771842 8.4522416,-0.239813801 9.57128527,0.161403555 L9.59316351,0.122566708 L9.96796605,0.343363042 C9.99930041,0.361174064 10.0302595,0.379668437 10.0608339,0.398843918 L12.3058078,1.73061035 L11.4873391,3.10414794 C11.7723115,5.97493847 9.9931482,9.77267878 7.35481563,11.7983738 C6.80596758,12.2197759 6.26108831,12.5328966 5.73606556,12.7415064 L4.9963704,13.9812592 L2.35379551,12.4265271 L2.38390299,12.3736633 C1.89597351,11.9234562 1.54604386,11.2554058 1.38932757,10.3826157 C0.86676237,7.47232638 2.69035676,3.3876716 5.46243963,1.2592839 Z" id="形状结合" fill="url(#linearGradient-4)"></path>
                            <path d="M6.35123804,12.6364864 C9.86653237,12.6481677 13.777801,10.5342285 15.0873011,7.91487115 C16.3968011,5.29551377 14.6086516,3.16263548 11.0933572,3.15095418 C7.57806291,3.13927287 3.66679427,5.25321201 2.35729421,7.87256939 C1.04779416,10.4919268 2.83594372,12.6248051 6.35123804,12.6364864 Z" id="椭圆形" fill="#38393B" transform="translate(8.722298, 7.893720) rotate(-37.000000) translate(-8.722298, -7.893720) "></path>
                        </g>
                        <polygon id="路径" fill="url(#linearGradient-5)" points="20.8506773 23.5261299 4.43378692e-13 35.8162408 83.2000046 83.9162434 104.055166 71.8593534"></polygon>
                        <g id="编组-92" transform="translate(62.400003, 0.126129)">
                            <polygon id="路径-206" fill="#8A8F94" points="0 65.9750036 0 5.66332871 5.20000029 8.58832887 20.8000011 77.9838899"></polygon>
                            <polygon id="路径-207" fill="url(#linearGradient-6)" points="20.8000011 77.9838899 31.2000017 71.9794468 15.6000009 3.03537318 5.20000029 8.87679242"></polygon>
                            <polygon id="路径-208" fill="url(#linearGradient-7)" points="5.20000029 8.87679242 0 5.95179226 10.4000006 5.77316005e-16 15.6000009 3.03537318"></polygon>
                        </g>
                        <polygon id="路径-213" stroke="#979797" stroke-width="0.650000036" fill="#D8D8D8" points="89.0246668 93.2640674 83.5880078 90.3441132 104.000006 80.3936978 109.79933 82.1150813"></polygon>
                        <polygon id="路径-212" stroke="#979797" stroke-width="0.650000036" fill="#D8D8D8" points="83.2000046 101.905107 85.9516169 100.293016 85.9516169 91.2141402 104.050682 80.2523009 104.000006 71.9350182 83.2000046 83.9439044"></polygon>
                    </g>
                    <polygon id="路径-205" stroke="#979797" stroke-width="0.650000036" fill="#D8D8D8" transform="translate(99.437336, 99.611450) scale(-1, 1) translate(-99.437336, -99.611450) " points="89.0246668 111.235325 109.850006 123.883439 109.824668 93.3936004 89.0246668 75.3394611"></polygon>
                </g>
                <g id="编组-93" transform="translate(0.000000, 36.400002)">
                    <g id="编组-87">
                        <polygon id="路径-210" fill="#7A7F83" points="89.0246668 123.439464 68.2500038 111.430578 68.2500038 81.3761331 89.0500049 93.3936004"></polygon>
                        <polygon id="路径-202" fill="#8A8F94" points="2.95585794e-13 35.8439018 2.95585794e-13 53.88946 20.8000011 89.9805763 41.6000023 101.989463 83.2000046 101.989463 83.2000046 83.9439044"></polygon>
                        <g id="编组-78" transform="translate(35.500000, 82.099998) scale(-1, 1) translate(-35.500000, -82.099998) translate(27.000000, 74.099998)">
                            <path d="M5.46243963,1.2592839 C6.97235923,0.0999771842 8.4522416,-0.239813801 9.57128527,0.161403555 L9.59316351,0.122566708 L9.96796605,0.343363042 C9.99930041,0.361174064 10.0302595,0.379668437 10.0608339,0.398843918 L12.3058078,1.73061035 L11.4873391,3.10414794 C11.7723115,5.97493847 9.9931482,9.77267878 7.35481563,11.7983738 C6.80596758,12.2197759 6.26108831,12.5328966 5.73606556,12.7415064 L4.9963704,13.9812592 L2.35379551,12.4265271 L2.38390299,12.3736633 C1.89597351,11.9234562 1.54604386,11.2554058 1.38932757,10.3826157 C0.86676237,7.47232638 2.69035676,3.3876716 5.46243963,1.2592839 Z" id="形状结合" fill="url(#linearGradient-4)"></path>
                            <path d="M6.35123804,12.6364864 C9.86653237,12.6481677 13.777801,10.5342285 15.0873011,7.91487115 C16.3968011,5.29551377 14.6086516,3.16263548 11.0933572,3.15095418 C7.57806291,3.13927287 3.66679427,5.25321201 2.35729421,7.87256939 C1.04779416,10.4919268 2.83594372,12.6248051 6.35123804,12.6364864 Z" id="椭圆形" fill="#38393B" transform="translate(8.722298, 7.893720) rotate(-37.000000) translate(-8.722298, -7.893720) "></path>
                        </g>
                        <polygon id="路径" fill="url(#linearGradient-5)" points="20.8506773 23.5261299 4.43378692e-13 35.8162408 83.2000046 83.9162434 104.055166 71.8593534"></polygon>
                        <g id="编组-92" transform="translate(62.400003, 0.126129)">
                            <polygon id="路径-206" fill="#8A8F94" points="0 65.9750036 0 5.66332871 5.20000029 8.58832887 20.8000011 77.9838899"></polygon>
                            <polygon id="路径-207" fill="url(#linearGradient-6)" points="20.8000011 77.9838899 31.2000017 71.9794468 15.6000009 3.03537318 5.20000029 8.87679242"></polygon>
                            <polygon id="路径-208" fill="url(#linearGradient-7)" points="5.20000029 8.87679242 0 5.95179226 10.4000006 5.77316005e-16 15.6000009 3.03537318"></polygon>
                        </g>
                        <polygon id="路径-213" fill="#CCCFD3" points="89.0246668 93.2640674 83.5880078 90.3441132 104.000006 80.3936978 109.79933 82.1150813"></polygon>
                        <polygon id="路径-212" fill="#C2C6CB" points="83.2000046 101.905107 85.9516169 100.293016 85.9516169 91.2141402 104.050682 80.2523009 104.000006 71.9350182 83.2000046 83.9439044"></polygon>
                    </g>
                    <polygon id="路径-205" fill="#7A7F83" transform="translate(99.437336, 99.611450) scale(-1, 1) translate(-99.437336, -99.611450) " points="89.0246668 111.235325 109.850006 123.883439 109.824668 93.3936004 89.0246668 75.3394611"></polygon>
                </g>
                <g id="编组-89" transform="translate(109.700006, 51.135017)">
                    <g id="编组-85" transform="translate(0.150000, 51.195560)">
                        <path d="M114.400006,27.4630254 L31.2000017,75.4000041 C3.18716499,89.3830055 1.45383156,88.3837104 26.0000014,72.4021191 C50.5461713,56.4205277 78.2795062,40.4290388 109.200006,24.4276522 L114.400006,27.4630254 Z" id="路径-197" fill="#7D8186"></path>
                        <polygon id="路径-197" fill="#7D8186" points="88.4000049 12.2898165 5.20000029 60.3658921 0 57.354446 83.2000046 9.25444331"></polygon>
                        <polygon id="路径-198" fill="#696969" points="26.0000014 72.4021191 109.200006 24.4276522 109.200006 0.377650891 26.0000014 48.4615391"></polygon>
                        <polygon id="路径-199" fill="#7A7F83" points="114.400006 63.5615118 114.400006 27.4630254 31.2000017 75.4000041 31.2000017 111.458892"></polygon>
                        <polygon id="路径" fill="#8A8F94" points="0 93.4133335 0 57.354446 5.20000029 60.3658921 5.20000029 35.9745318 26.0000014 48.1043103 26.0000014 72.4021191 31.2000017 75.4000041 31.2000017 111.458892"></polygon>
                    </g>
                    <g id="编组-86">
                        <polygon id="路径-196" fill="#8A8F94" points="0.150000036 102.39112 31.4006779 120.481431 31.4006779 66.4705609 0.20355602 48.4665501"></polygon>
                        <polygon id="路径-200" fill="url(#linearGradient-8)" points="31.3500018 120.567808 114.550006 72.7154772 114.600682 18.2762781 31.4006779 66.4705609"></polygon>
                        <polygon id="路径-201" fill="url(#linearGradient-9)" points="31.3500018 66.4544465 0.099323927 48.4088883 83.2993285 0.308885616 114.550006 18.4239081"></polygon>
                    </g>
                    <g id="编组-78" transform="translate(14.799994, 100.364983) scale(-1, 1) translate(-14.799994, -100.364983) translate(6.299994, 92.364983)">
                        <path d="M5.46243963,1.2592839 C6.97235923,0.0999771842 8.4522416,-0.239813801 9.57128527,0.161403555 L9.59316351,0.122566708 L9.96796605,0.343363042 C9.99930041,0.361174064 10.0302595,0.379668437 10.0608339,0.398843918 L12.3058078,1.73061035 L11.4873391,3.10414794 C11.7723115,5.97493847 9.9931482,9.77267878 7.35481563,11.7983738 C6.80596758,12.2197759 6.26108831,12.5328966 5.73606556,12.7415064 L4.9963704,13.9812592 L2.35379551,12.4265271 L2.38390299,12.3736633 C1.89597351,11.9234562 1.54604386,11.2554058 1.38932757,10.3826157 C0.86676237,7.47232638 2.69035676,3.3876716 5.46243963,1.2592839 Z" id="形状结合" fill="url(#linearGradient-4)"></path>
                        <path d="M6.35123804,12.6364864 C9.86653237,12.6481677 13.777801,10.5342285 15.0873011,7.91487115 C16.3968011,5.29551377 14.6086516,3.16263548 11.0933572,3.15095418 C7.57806291,3.13927287 3.66679427,5.25321201 2.35729421,7.87256939 C1.04779416,10.4919268 2.83594372,12.6248051 6.35123804,12.6364864 Z" id="椭圆形" fill="#38393B" transform="translate(8.722298, 7.893720) rotate(-37.000000) translate(-8.722298, -7.893720) "></path>
                    </g>
                </g>
                <g id="编组-90" transform="translate(145.600008, 80.043904)">
                    <polygon id="路径-193" fill="#7A7F83" points="83.2000046 148.541123 166.400009 100.44112 166.400009 136.532236 83.2000046 184.60001"></polygon>
                    <polygon id="路径-193" fill="#7A7F83" points="83.2000046 112.141121 166.400009 64.0411179 166.400009 100.132234 83.2000046 148.200008"></polygon>
                    <polygon id="路径-184" fill="#8A8F94" points="20.8000011 112.482235 0 100.44112 0 136.500008 83.2000046 184.632239 83.2000046 148.541123 62.4000034 136.532236 52.0000029 112.450006 31.2000017 100.44112"></polygon>
                    <polygon id="路径-194" fill="url(#linearGradient-10)" points="83.2000046 112.450006 166.400009 64.3500035 83.2000046 16.2500009 0 64.3500035"></polygon>
                    <g id="编组-95" transform="translate(26.000001, 0.000000)">
                        <g id="编组-17" transform="translate(0.000000, 0.043303)">
                            <path d="M56.6488877,33.4550374 C63.4464489,33.4550374 69.9643736,34.0689716 76.003289,35.1946056 L113.297775,35.1954221 L113.297775,64.2426244 L113.1979,64.2428014 C111.443531,79.4760245 86.7963825,91.5518834 56.6488877,91.5518834 C26.5013928,91.5518834 1.85424389,79.4760245 0.0998756697,64.2428014 L4.90274488e-13,64.2426244 L4.90274488e-13,35.1954221 L37.2944864,35.1946056 C43.3334018,34.0689716 49.8513265,33.4550374 56.6488877,33.4550374 Z" id="形状结合" fill="url(#linearGradient-11)" transform="translate(56.648888, 62.503460) rotate(-360.000000) translate(-56.648888, -62.503460) "></path>
                            <ellipse id="椭圆形" fill="url(#linearGradient-12)" transform="translate(56.648888, 32.053432) scale(-1, 1) rotate(-360.000000) translate(-56.648888, -32.053432) " cx="56.6488877" cy="32.0534322" rx="56.6488877" ry="32.0534322"></ellipse>
                        </g>
                    </g>
                    <polygon id="路径-195" fill="#8A8F94" points="0 99.4733487 20.8000011 111.482235 31.2000017 99.4411199 52.0000029 111.450006 62.4000034 135.500008 83.2000046 147.541123 83.2000046 111.450006 0 63.3822323"></polygon>
                    <g id="编组-78" transform="translate(69.899992, 125.456096) scale(-1, 1) translate(-69.899992, -125.456096) translate(61.399992, 117.456096)">
                        <path d="M5.46243963,1.2592839 C6.97235923,0.0999771842 8.4522416,-0.239813801 9.57128527,0.161403555 L9.59316351,0.122566708 L9.96796605,0.343363042 C9.99930041,0.361174064 10.0302595,0.379668437 10.0608339,0.398843918 L12.3058078,1.73061035 L11.4873391,3.10414794 C11.7723115,5.97493847 9.9931482,9.77267878 7.35481563,11.7983738 C6.80596758,12.2197759 6.26108831,12.5328966 5.73606556,12.7415064 L4.9963704,13.9812592 L2.35379551,12.4265271 L2.38390299,12.3736633 C1.89597351,11.9234562 1.54604386,11.2554058 1.38932757,10.3826157 C0.86676237,7.47232638 2.69035676,3.3876716 5.46243963,1.2592839 Z" id="形状结合" fill="url(#linearGradient-4)"></path>
                        <path d="M6.35123804,12.6364864 C9.86653237,12.6481677 13.777801,10.5342285 15.0873011,7.91487115 C16.3968011,5.29551377 14.6086516,3.16263548 11.0933572,3.15095418 C7.57806291,3.13927287 3.66679427,5.25321201 2.35729421,7.87256939 C1.04779416,10.4919268 2.83594372,12.6248051 6.35123804,12.6364864 Z" id="椭圆形" fill="#38393B" transform="translate(8.722298, 7.893720) rotate(-37.000000) translate(-8.722298, -7.893720) "></path>
                    </g>
                    <g id="编组-78" transform="translate(10.899992, 91.456096) scale(-1, 1) translate(-10.899992, -91.456096) translate(2.399992, 83.456096)">
                        <path d="M5.46243963,1.2592839 C6.97235923,0.0999771842 8.4522416,-0.239813801 9.57128527,0.161403555 L9.59316351,0.122566708 L9.96796605,0.343363042 C9.99930041,0.361174064 10.0302595,0.379668437 10.0608339,0.398843918 L12.3058078,1.73061035 L11.4873391,3.10414794 C11.7723115,5.97493847 9.9931482,9.77267878 7.35481563,11.7983738 C6.80596758,12.2197759 6.26108831,12.5328966 5.73606556,12.7415064 L4.9963704,13.9812592 L2.35379551,12.4265271 L2.38390299,12.3736633 C1.89597351,11.9234562 1.54604386,11.2554058 1.38932757,10.3826157 C0.86676237,7.47232638 2.69035676,3.3876716 5.46243963,1.2592839 Z" id="形状结合" fill="url(#linearGradient-4)"></path>
                        <path d="M6.35123804,12.6364864 C9.86653237,12.6481677 13.777801,10.5342285 15.0873011,7.91487115 C16.3968011,5.29551377 14.6086516,3.16263548 11.0933572,3.15095418 C7.57806291,3.13927287 3.66679427,5.25321201 2.35729421,7.87256939 C1.04779416,10.4919268 2.83594372,12.6248051 6.35123804,12.6364864 Z" id="椭圆形" fill="#38393B" transform="translate(8.722298, 7.893720) rotate(-37.000000) translate(-8.722298, -7.893720) "></path>
                    </g>
                </g>
                <g id="编组-89" transform="translate(233.200013, 122.635021)">
                    <g id="编组-85" transform="translate(0.150000, 51.195560)">
                        <path d="M114.400006,27.4630254 L31.2000017,75.4000041 C3.31207025,89.0368908 1.64118945,87.8645385 26.1873593,71.8829472 C50.7335292,55.9013558 78.4044114,40.0829242 109.200006,24.4276522 L114.400006,27.4630254 Z" id="路径-197" fill="#7D8186"></path>
                        <polygon id="路径-197" fill="#7D8186" points="88.4000049 12.2898165 5.20000029 60.3658921 0 57.354446 83.2000046 9.25444331"></polygon>
                        <polygon id="路径-198" fill="#696969" points="26.0000014 72.4021191 109.200006 24.4276522 109.200006 0.377650891 26.0000014 48.4615391"></polygon>
                        <polygon id="路径-199" fill="#C2C6CB" points="114.400006 63.5615118 114.400006 27.4630254 31.2000017 75.4000041 31.2000017 111.458892"></polygon>
                        <polygon id="路径" fill="#8A8F94" points="0 93.4133335 0 57.354446 5.20000029 60.3658921 5.20000029 35.9745318 26.0000014 48.1043103 26.0000014 72.4021191 31.2000017 75.4000041 31.2000017 111.458892"></polygon>
                    </g>
                    <g id="编组-86">
                        <polygon id="路径-196" fill="#8A8F94" points="0.150000036 102.39112 31.4006779 120.481431 31.4006779 66.4705609 0.20355602 48.4665501"></polygon>
                        <polygon id="路径-200" fill="url(#linearGradient-13)" points="31.3500018 120.567808 114.550006 72.7154772 114.600682 18.2762781 31.4006779 66.4705609"></polygon>
                        <polygon id="路径-201" fill="url(#linearGradient-9)" points="31.3500018 66.4544465 0.099323927 48.4088883 83.2993285 0.308885616 114.550006 18.4239081"></polygon>
                    </g>
                    <g id="编组-78" transform="translate(14.400001, 99.991119) scale(-1, 1) translate(-14.400001, -99.991119) translate(5.900001, 91.991119)">
                        <path d="M5.46243963,1.2592839 C6.97235923,0.0999771842 8.4522416,-0.239813801 9.57128527,0.161403555 L9.59316351,0.122566708 L9.96796605,0.343363042 C9.99930041,0.361174064 10.0302595,0.379668437 10.0608339,0.398843918 L12.3058078,1.73061035 L11.4873391,3.10414794 C11.7723115,5.97493847 9.9931482,9.77267878 7.35481563,11.7983738 C6.80596758,12.2197759 6.26108831,12.5328966 5.73606556,12.7415064 L4.9963704,13.9812592 L2.35379551,12.4265271 L2.38390299,12.3736633 C1.89597351,11.9234562 1.54604386,11.2554058 1.38932757,10.3826157 C0.86676237,7.47232638 2.69035676,3.3876716 5.46243963,1.2592839 Z" id="形状结合" fill="url(#linearGradient-4)"></path>
                        <path d="M6.35123804,12.6364864 C9.86653237,12.6481677 13.777801,10.5342285 15.0873011,7.91487115 C16.3968011,5.29551377 14.6086516,3.16263548 11.0933572,3.15095418 C7.57806291,3.13927287 3.66679427,5.25321201 2.35729421,7.87256939 C1.04779416,10.4919268 2.83594372,12.6248051 6.35123804,12.6364864 Z" id="椭圆形" fill="#38393B" transform="translate(8.722298, 7.893720) rotate(-37.000000) translate(-8.722298, -7.893720) "></path>
                    </g>
                </g>
                <g id="编组-88" transform="translate(326.350694, 151.729927)">
                    <polygon id="路径-204" fill="url(#linearGradient-14)" points="62.2816576 53.8238744 20.8676709 0 0 12.5136778 41.5746642 66.0197051"></polygon>
                    <polygon id="路径-205" fill="#7A7F83" points="9.23705607e-15 48.4095415 41.5746642 96.5095441 41.5493262 66.0197051 9.23705607e-15 12.5136778"></polygon>
                    <polygon id="路径-209" fill="#7A7F83" points="41.5746642 96.5095441 78.5993282 117.959545 78.5993282 87.9051008 41.5746642 66.1442567"></polygon>
                    <polygon id="路径-211" stroke="#979797" stroke-width="0.650000036" fill="#D8D8D8" points="41.5746642 66.0197051 62.2816576 53.8238744 99.3993294 75.2878031 78.5993282 87.9051008"></polygon>
                    <polygon id="路径-202" fill="#8A8F94" points="47.3993265 62.213985 47.3993265 80.2595432 78.5993282 122.355103 99.3993294 134.363989 130.599331 128.359546 130.599331 110.313988"></polygon>
                    <g id="编组-78" transform="translate(89.149306, 112.770073) scale(-1, 1) translate(-89.149306, -112.770073) translate(80.649306, 104.770073)">
                        <path d="M5.46243963,1.2592839 C6.97235923,0.0999771842 8.4522416,-0.239813801 9.57128527,0.161403555 L9.59316351,0.122566708 L9.96796605,0.343363042 C9.99930041,0.361174064 10.0302595,0.379668437 10.0608339,0.398843918 L12.3058078,1.73061035 L11.4873391,3.10414794 C11.7723115,5.97493847 9.9931482,9.77267878 7.35481563,11.7983738 C6.80596758,12.2197759 6.26108831,12.5328966 5.73606556,12.7415064 L4.9963704,13.9812592 L2.35379551,12.4265271 L2.38390299,12.3736633 C1.89597351,11.9234562 1.54604386,11.2554058 1.38932757,10.3826157 C0.86676237,7.47232638 2.69035676,3.3876716 5.46243963,1.2592839 Z" id="形状结合" fill="url(#linearGradient-4)"></path>
                        <path d="M6.35123804,12.6364864 C9.86653237,12.6481677 13.777801,10.5342285 15.0873011,7.91487115 C16.3968011,5.29551377 14.6086516,3.16263548 11.0933572,3.15095418 C7.57806291,3.13927287 3.66679427,5.25321201 2.35729421,7.87256939 C1.04779416,10.4919268 2.83594372,12.6248051 6.35123804,12.6364864 Z" id="椭圆形" fill="#38393B" transform="translate(8.722298, 7.893720) rotate(-37.000000) translate(-8.722298, -7.893720) "></path>
                    </g>
                    <polygon id="路径-200" fill="#AFB1B4" points="130.599331 128.359546 151.454492 116.642724 151.340467 98.2995151 130.599331 110.313988"></polygon>
                    <polygon id="路径" fill="url(#linearGradient-5)" points="68.2500038 49.9238741 47.3993265 62.213985 130.599331 110.313988 151.454492 98.2570977"></polygon>
                    <g id="编组-91" transform="translate(55.199327, 4.396211)">
                        <polygon id="路径-206" fill="#8A8F94" points="0 56.9767951 15.6000009 5.95179226 20.8000011 8.87679242 20.8000011 68.9856813"></polygon>
                        <polygon id="路径-207" fill="#B7BBBF" points="20.8000011 68.9856813 31.2000017 62.9812382 31.2000017 3.03537318 20.8000011 8.87679242"></polygon>
                        <polygon id="路径-208" fill="url(#linearGradient-7)" points="20.8000011 8.87679242 15.6000009 5.95179226 26.0000014 0 31.2000017 3.03537318"></polygon>
                    </g>
                </g>
                <g id="编组-88" transform="translate(264.600691, 186.829928)">
                    <polygon id="路径-204" fill="url(#linearGradient-14)" points="62.2816576 53.8238744 20.8676709 0 0 12.5136778 41.5746642 66.0197051"></polygon>
                    <polygon id="路径-205" fill="#7A7F83" points="9.23705607e-15 48.4095415 41.5746642 96.5095441 41.5493262 66.0197051 9.23705607e-15 12.5136778"></polygon>
                    <polygon id="路径-209" fill="#7A7F83" points="41.5746642 96.5095441 78.5993282 117.959545 78.5993282 87.9051008 41.5746642 66.1442567"></polygon>
                    <polygon id="路径-211" stroke="#979797" stroke-width="0.650000036" fill="#D8D8D8" points="41.5746642 66.0197051 62.2816576 53.8238744 99.3993294 75.2878031 78.5993282 87.9051008"></polygon>
                    <polygon id="路径-202" fill="#8A8F94" points="47.3993265 62.213985 47.3993265 80.2595432 78.5993282 122.355103 99.3993294 134.363989 130.599331 128.359546 130.599331 110.313988"></polygon>
                    <g id="编组-78" transform="translate(88.899309, 112.670072) scale(-1, 1) translate(-88.899309, -112.670072) translate(80.399309, 104.670072)">
                        <path d="M5.46243963,1.2592839 C6.97235923,0.0999771842 8.4522416,-0.239813801 9.57128527,0.161403555 L9.59316351,0.122566708 L9.96796605,0.343363042 C9.99930041,0.361174064 10.0302595,0.379668437 10.0608339,0.398843918 L12.3058078,1.73061035 L11.4873391,3.10414794 C11.7723115,5.97493847 9.9931482,9.77267878 7.35481563,11.7983738 C6.80596758,12.2197759 6.26108831,12.5328966 5.73606556,12.7415064 L4.9963704,13.9812592 L2.35379551,12.4265271 L2.38390299,12.3736633 C1.89597351,11.9234562 1.54604386,11.2554058 1.38932757,10.3826157 C0.86676237,7.47232638 2.69035676,3.3876716 5.46243963,1.2592839 Z" id="形状结合" fill="url(#linearGradient-4)"></path>
                        <path d="M6.35123804,12.6364864 C9.86653237,12.6481677 13.777801,10.5342285 15.0873011,7.91487115 C16.3968011,5.29551377 14.6086516,3.16263548 11.0933572,3.15095418 C7.57806291,3.13927287 3.66679427,5.25321201 2.35729421,7.87256939 C1.04779416,10.4919268 2.83594372,12.6248051 6.35123804,12.6364864 Z" id="椭圆形" fill="#38393B" transform="translate(8.722298, 7.893720) rotate(-37.000000) translate(-8.722298, -7.893720) "></path>
                    </g>
                    <polygon id="路径-200" fill="#AFB1B4" points="130.599331 128.359546 151.454492 116.642724 151.340467 98.2995151 130.599331 110.313988"></polygon>
                    <polygon id="路径" fill="url(#linearGradient-5)" points="68.2500038 49.9238741 47.3993265 62.213985 130.599331 110.313988 151.454492 98.2570977"></polygon>
                    <g id="编组-91" transform="translate(55.199327, 4.396211)">
                        <polygon id="路径-206" fill="#8A8F94" points="0 56.9767951 15.6000009 5.95179226 20.8000011 8.87679242 20.8000011 68.9856813"></polygon>
                        <polygon id="路径-207" fill="#B7BBBF" points="20.8000011 68.9856813 31.2000017 62.9812382 31.2000017 3.03537318 20.8000011 8.87679242"></polygon>
                        <polygon id="路径-208" fill="url(#linearGradient-7)" points="20.8000011 8.87679242 15.6000009 5.95179226 26.0000014 0 31.2000017 3.03537318"></polygon>
                    </g>
                </g>
            </g>
        </g>
    </g>
</svg>