<?xml version="1.0" encoding="UTF-8"?>
<svg width="459px" height="381px" viewBox="0 0 459 381" version="1.1" xmlns="http://www.w3.org/2000/svg" xmlns:xlink="http://www.w3.org/1999/xlink">
    <title>淬火池</title>
    <defs>
        <polygon id="path-1" points="0 114.367777 197.600011 228.613341 395.200022 114.367777 197.600011 0.154442808"></polygon>
        <radialGradient cx="38.5455277%" cy="32.9365489%" fx="38.5455277%" fy="32.9365489%" r="87.7377487%" gradientTransform="translate(0.385455,0.329365),scale(1.000000,0.864865),rotate(48.521904),scale(1.000000,1.033210),translate(-0.385455,-0.329365)" id="radialGradient-3">
            <stop stop-color="#DFE1E6" offset="0%"></stop>
            <stop stop-color="#85898F" offset="100%"></stop>
        </radialGradient>
        <polygon id="path-4" points="0 12.0411151 0 24.0500013 20.8000011 12.0411151 20.8000011 0"></polygon>
        <polygon id="path-6" points="0 12.0411151 0 24.0500013 20.8000011 12.0411151 20.8000011 0"></polygon>
        <polygon id="path-8" points="0 12.0411151 0 24.0500013 20.8000011 12.0411151 20.8000011 0"></polygon>
        <polygon id="path-10" points="0 12.0411151 0 24.0500013 20.8000011 12.0411151 20.8000011 0"></polygon>
        <polygon id="path-12" points="0 12.0411151 0 24.0500013 20.8000011 12.0411151 20.8000011 0"></polygon>
        <polygon id="path-14" points="0 12.0411151 0 24.0500013 20.8000011 12.0411151 20.8000011 0"></polygon>
        <polygon id="path-16" points="0 12.0411151 0 24.0500013 20.8000011 12.0411151 20.8000011 0"></polygon>
        <polygon id="path-18" points="0 12.0411151 0 24.0500013 20.8000011 12.0411151 20.8000011 0"></polygon>
        <linearGradient x1="100%" y1="50%" x2="0%" y2="50%" id="linearGradient-20">
            <stop stop-color="#8A8F94" offset="0%"></stop>
            <stop stop-color="#ADB1B6" offset="38.4274047%"></stop>
            <stop stop-color="#5C6063" offset="89.2037699%"></stop>
            <stop stop-color="#8A8F94" offset="100%"></stop>
        </linearGradient>
        <linearGradient x1="100%" y1="50%" x2="0%" y2="50%" id="linearGradient-21">
            <stop stop-color="#D4D8DE" offset="0%"></stop>
            <stop stop-color="#D4D7DC" offset="61.5725953%"></stop>
            <stop stop-color="#B4B7BF" offset="100%"></stop>
        </linearGradient>
        <linearGradient x1="77.1513634%" y1="9.11683614%" x2="22.9552473%" y2="88.0536034%" id="linearGradient-22">
            <stop stop-color="#8F9398" offset="0%"></stop>
            <stop stop-color="#989CA1" offset="29.9689796%"></stop>
            <stop stop-color="#37383A" offset="87.5802178%"></stop>
            <stop stop-color="#8F9195" offset="100%"></stop>
        </linearGradient>
        <linearGradient x1="50%" y1="0%" x2="54.2508669%" y2="100%" id="linearGradient-23">
            <stop stop-color="#B8BDC3" offset="0%"></stop>
            <stop stop-color="#8E8D8D" offset="100%"></stop>
        </linearGradient>
        <polygon id="path-24" points="80.3000044 160.537813 229.800013 247.000014 379.300021 160.537813 229.800013 74.1000041"></polygon>
    </defs>
    <g id="-" stroke="none" stroke-width="1" fill="none" fill-rule="evenodd">
        <g id="画板" transform="translate(-1379.000000, -1603.000000)">
            <g id="淬火池" transform="translate(1380.000000, 1603.500000)">
                <polygon id="路径-203" stroke="#979797" stroke-width="0.650000036" fill="#989B9F" points="0 132.291122 228.800013 264.550015 228.800013 300.641131 3.0482285e-13 168.382238"></polygon>
                <polygon id="路径-214" fill="#C6CACF" points="228.800013 300.641131 228.800013 264.550015 457.600025 132.291122 457.600025 168.382238"></polygon>
                <polygon id="路径-215" fill="#CED3D8" points="228.800013 264.550015 0 132.291122 228.800013 0 457.600025 132.291122"></polygon>
                <g id="路径-214-+-路径-214-蒙版" transform="translate(31.200002, 17.891115)">
                    <mask id="mask-2" fill="white">
                        <use xlink:href="#path-1"></use>
                    </mask>
                    <use id="蒙版" fill="#B3B3B3" xlink:href="#path-1"></use>
                    <polygon id="蒙版" fill="#D8D8D8" mask="url(#mask-2)" points="0 239.817784 197.600011 354.063348 395.200022 239.817784 197.600011 125.60445"></polygon>
                    <g id="编组-96" mask="url(#mask-2)">
                        <g transform="translate(-31.200002, 0.000000)">
                            <polygon id="路径-214" fill="#C6CACF" points="1.01607617e-13 168.350009 1.97559341e-13 132.258893 228.800013 1.73537733e-14 228.800013 36.0911164"></polygon>
                            <g id="路径-218" stroke-width="1" fill="none" transform="translate(66.300004, 94.250005)">
                                <mask id="mask-5" fill="white">
                                    <use xlink:href="#path-4"></use>
                                </mask>
                                <use id="蒙版" fill="url(#radialGradient-3)" xlink:href="#path-4"></use>
                                <polygon fill="#808080" opacity="0.822288876" mask="url(#mask-5)" points="-2.60000014 10.091115 -2.60000014 22.1000012 18.200001 10.091115 18.200001 -1.95000011"></polygon>
                            </g>
                            <g id="路径-218" stroke-width="1" fill="none" transform="translate(108.550006, 69.550004)">
                                <mask id="mask-7" fill="white">
                                    <use xlink:href="#path-6"></use>
                                </mask>
                                <use id="蒙版" fill="url(#radialGradient-3)" xlink:href="#path-6"></use>
                                <polygon fill="#808080" opacity="0.822288876" mask="url(#mask-7)" points="-2.60000014 10.091115 -2.60000014 22.1000012 18.200001 10.091115 18.200001 -1.95000011"></polygon>
                            </g>
                            <g id="路径-218" stroke-width="1" fill="none" transform="translate(150.150008, 45.500003)">
                                <mask id="mask-9" fill="white">
                                    <use xlink:href="#path-8"></use>
                                </mask>
                                <use id="蒙版" fill="url(#radialGradient-3)" xlink:href="#path-8"></use>
                                <polygon fill="#808080" opacity="0.822288876" mask="url(#mask-9)" points="-2.60000014 10.091115 -2.60000014 22.1000012 18.200001 10.091115 18.200001 -1.95000011"></polygon>
                            </g>
                            <g id="路径-218" stroke-width="1" fill="none" transform="translate(192.400011, 20.150001)">
                                <mask id="mask-11" fill="white">
                                    <use xlink:href="#path-10"></use>
                                </mask>
                                <use id="蒙版" fill="url(#radialGradient-3)" xlink:href="#path-10"></use>
                                <polygon fill="#808080" opacity="0.822288876" mask="url(#mask-11)" points="-2.60000014 10.091115 -2.60000014 22.1000012 18.200001 10.091115 18.200001 -1.95000011"></polygon>
                            </g>
                        </g>
                    </g>
                    <polygon id="路径-214" fill="#C8C5C5" mask="url(#mask-2)" points="-31.2000017 257.863343 -31.2000017 168.008895 197.600011 35.750002 197.600011 125.60445"></polygon>
                    <polygon id="路径-214" fill="#64A7C8" mask="url(#mask-2)" points="-31.2000017 257.863343 -31.2000017 188.467782 197.600011 56.2088887 197.600011 125.60445"></polygon>
                    <polygon id="路径-214" fill="#6FC1E9" mask="url(#mask-2)" transform="translate(272.008133, 116.613361) scale(-1, 1) translate(-272.008133, -116.613361) " points="197.600011 142.232799 346.416255 56.2088887 346.416255 125.60445 257.474161 177.017833"></polygon>
                    <g id="编组-96" mask="url(#mask-2)">
                        <g transform="translate(311.900023, 84.500000) scale(-1, 1) translate(-311.900023, -84.500000) translate(197.400023, 0.000000)">
                            <polygon id="路径-214" fill="#989B9F" points="1.01607617e-13 168.350009 1.97559341e-13 132.258893 228.800013 1.73537733e-14 228.800013 36.0911164"></polygon>
                            <g id="路径-218" stroke-width="1" fill="none" transform="translate(66.300004, 94.250005)">
                                <mask id="mask-13" fill="white">
                                    <use xlink:href="#path-12"></use>
                                </mask>
                                <use id="蒙版" fill="url(#radialGradient-3)" xlink:href="#path-12"></use>
                                <polygon fill="#635F5F" opacity="0.822288876" mask="url(#mask-13)" points="-2.60000014 10.091115 -2.60000014 22.1000012 18.200001 10.091115 18.200001 -1.95000011"></polygon>
                            </g>
                            <g id="路径-218" stroke-width="1" fill="none" transform="translate(108.550006, 69.550004)">
                                <mask id="mask-15" fill="white">
                                    <use xlink:href="#path-14"></use>
                                </mask>
                                <use id="蒙版" fill="url(#radialGradient-3)" xlink:href="#path-14"></use>
                                <polygon fill="#635F5F" opacity="0.822288876" mask="url(#mask-15)" points="-2.60000014 10.091115 -2.60000014 22.1000012 18.200001 10.091115 18.200001 -1.95000011"></polygon>
                            </g>
                            <g id="路径-218" stroke-width="1" fill="none" transform="translate(150.150008, 45.500003)">
                                <mask id="mask-17" fill="white">
                                    <use xlink:href="#path-16"></use>
                                </mask>
                                <use id="蒙版" fill="url(#radialGradient-3)" xlink:href="#path-16"></use>
                                <polygon fill="#635F5F" opacity="0.822288876" mask="url(#mask-17)" points="-2.60000014 10.091115 -2.60000014 22.1000012 18.200001 10.091115 18.200001 -1.95000011"></polygon>
                            </g>
                            <g id="路径-218" stroke-width="1" fill="none" transform="translate(192.400011, 20.150001)">
                                <mask id="mask-19" fill="white">
                                    <use xlink:href="#path-18"></use>
                                </mask>
                                <use id="蒙版" fill="url(#radialGradient-3)" xlink:href="#path-18"></use>
                                <polygon fill="#635F5F" opacity="0.822288876" mask="url(#mask-19)" points="-2.60000014 10.091115 -2.60000014 22.1000012 18.200001 10.091115 18.200001 -1.95000011"></polygon>
                            </g>
                        </g>
                    </g>
                </g>
                <polygon id="路径-216" fill="url(#linearGradient-20)" points="10.4000006 174.354452 10.4000006 246.691128 228.800013 372.758906 228.800013 300.608902"></polygon>
                <polygon id="路径-217" fill="url(#linearGradient-21)" points="228.800013 300.641131 228.800013 372.758906 447.200025 246.504456 447.200025 174.354452"></polygon>
                <g id="编组-50" transform="translate(300.800015, 338.191131) rotate(-3.000000) translate(-300.800015, -338.191131) translate(273.800015, 298.691131)">
                    <g id="编组-51" transform="translate(27.010832, 50.906594) rotate(-118.000000) translate(-27.010832, -50.906594) translate(6.010832, 32.406594)">
                        <g id="编组-46" transform="translate(-0.000000, -0.000000)">
                            <path d="M8.43135215,2.50347245 C11.4888816,0.199458724 14.4856054,-0.476340761 16.7520717,0.320143046 L16.7984617,0.24366418 L17.5117499,0.657310255 C17.6082814,0.709867419 17.7030852,0.765533655 17.7960951,0.824293547 L31.4174129,8.74899251 L16.537936,33.0210205 L2.13454642,24.7040944 L2.19713708,24.6004539 C1.20795922,23.7054211 0.498553127,22.3768298 0.180939952,20.6407725 C-0.877557397,14.8550802 2.81627797,6.73473435 8.43135215,2.50347245 Z" id="形状结合" fill="url(#linearGradient-22)"></path>
                            <path d="M19.7852477,30.625366 C26.8160823,30.625366 34.6530565,26.3631751 37.2896195,21.1054962 C39.9261825,15.8478173 36.3639215,11.5856264 29.3330869,11.5856264 C22.3022523,11.5856264 14.4652781,15.8478173 11.8287151,21.1054962 C9.19215212,26.3631751 12.7544131,30.625366 19.7852477,30.625366 Z" id="椭圆形" fill="#7C7F83" transform="translate(24.559167, 21.105496) rotate(-37.000000) translate(-24.559167, -21.105496) "></path>
                        </g>
                    </g>
                    <g id="编组-47" transform="translate(3.100000, 0.000000)" fill="url(#linearGradient-23)">
                        <path d="M5.66880085,1.8114848 C8.3049975,-0.175031861 10.872512,-0.322422541 12.3807129,1.13857162 L25.6873054,8.87622133 C31.2762239,12.1255338 34.6789444,18.1358569 34.5892978,24.6000664 L34.3082061,44.912602 C34.5806345,46.2314776 34.0748081,47.6038112 32.7100778,48.7639599 C29.7607765,51.2711425 23.9169781,51.8379391 19.6575888,50.0299357 C16.992122,48.8985121 15.5787652,47.1052133 15.616996,45.307081 L15.6056554,45.3073196 L15.9086741,32.1612669 C16.0137153,27.6041995 13.6358271,23.3495367 9.69937906,21.051217 L2.94920509,17.1106849 C1.58195314,16.7339657 0.575727567,15.5892132 0.23892356,13.7482597 C-0.457709599,9.94049855 1.97332927,4.59622238 5.66880085,1.8114848 Z" id="形状结合"></path>
                    </g>
                </g>
                <g id="编组-50" transform="translate(344.350017, 307.641129) rotate(-3.000000) translate(-344.350017, -307.641129) translate(317.350017, 268.141129)">
                    <g id="编组-51" transform="translate(27.010832, 50.906594) rotate(-118.000000) translate(-27.010832, -50.906594) translate(6.010832, 32.406594)">
                        <g id="编组-46" transform="translate(-0.000000, -0.000000)">
                            <path d="M8.43135215,2.50347245 C11.4888816,0.199458724 14.4856054,-0.476340761 16.7520717,0.320143046 L16.7984617,0.24366418 L17.5117499,0.657310255 C17.6082814,0.709867419 17.7030852,0.765533655 17.7960951,0.824293547 L31.4174129,8.74899251 L16.537936,33.0210205 L2.13454642,24.7040944 L2.19713708,24.6004539 C1.20795922,23.7054211 0.498553127,22.3768298 0.180939952,20.6407725 C-0.877557397,14.8550802 2.81627797,6.73473435 8.43135215,2.50347245 Z" id="形状结合" fill="url(#linearGradient-22)"></path>
                            <path d="M19.7852477,30.625366 C26.8160823,30.625366 34.6530565,26.3631751 37.2896195,21.1054962 C39.9261825,15.8478173 36.3639215,11.5856264 29.3330869,11.5856264 C22.3022523,11.5856264 14.4652781,15.8478173 11.8287151,21.1054962 C9.19215212,26.3631751 12.7544131,30.625366 19.7852477,30.625366 Z" id="椭圆形" fill="#7C7F83" transform="translate(24.559167, 21.105496) rotate(-37.000000) translate(-24.559167, -21.105496) "></path>
                        </g>
                    </g>
                    <g id="编组-47" transform="translate(3.100000, 0.000000)" fill="url(#linearGradient-23)">
                        <path d="M5.66880085,1.8114848 C8.3049975,-0.175031861 10.872512,-0.322422541 12.3807129,1.13857162 L25.6873054,8.87622133 C31.2762239,12.1255338 34.6789444,18.1358569 34.5892978,24.6000664 L34.3082061,44.912602 C34.5806345,46.2314776 34.0748081,47.6038112 32.7100778,48.7639599 C29.7607765,51.2711425 23.9169781,51.8379391 19.6575888,50.0299357 C16.992122,48.8985121 15.5787652,47.1052133 15.616996,45.307081 L15.6056554,45.3073196 L15.9086741,32.1612669 C16.0137153,27.6041995 13.6358271,23.3495367 9.69937906,21.051217 L2.94920509,17.1106849 C1.58195314,16.7339657 0.575727567,15.5892132 0.23892356,13.7482597 C-0.457709599,9.94049855 1.97332927,4.59622238 5.66880085,1.8114848 Z" id="形状结合"></path>
                    </g>
                </g>
                <g id="编组-50" transform="translate(387.250020, 280.341128) rotate(-2.000000) translate(-387.250020, -280.341128) translate(360.250020, 240.841128)">
                    <g id="编组-51" transform="translate(27.010832, 50.906594) rotate(-118.000000) translate(-27.010832, -50.906594) translate(6.010832, 32.406594)">
                        <g id="编组-46" transform="translate(0.000000, -0.000000)">
                            <path d="M8.43135215,2.50347245 C11.4888816,0.199458724 14.4856054,-0.476340761 16.7520717,0.320143046 L16.7984617,0.24366418 L17.5117499,0.657310255 C17.6082814,0.709867419 17.7030852,0.765533655 17.7960951,0.824293547 L31.4174129,8.74899251 L16.537936,33.0210205 L2.13454642,24.7040944 L2.19713708,24.6004539 C1.20795922,23.7054211 0.498553127,22.3768298 0.180939952,20.6407725 C-0.877557397,14.8550802 2.81627797,6.73473435 8.43135215,2.50347245 Z" id="形状结合" fill="url(#linearGradient-22)"></path>
                            <path d="M19.7852477,30.625366 C26.8160823,30.625366 34.6530565,26.3631751 37.2896195,21.1054962 C39.9261825,15.8478173 36.3639215,11.5856264 29.3330869,11.5856264 C22.3022523,11.5856264 14.4652781,15.8478173 11.8287151,21.1054962 C9.19215212,26.3631751 12.7544131,30.625366 19.7852477,30.625366 Z" id="椭圆形" fill="#7C7F83" transform="translate(24.559167, 21.105496) rotate(-37.000000) translate(-24.559167, -21.105496) "></path>
                        </g>
                    </g>
                    <g id="编组-47" transform="translate(3.100000, 0.000000)" fill="url(#linearGradient-23)">
                        <path d="M5.66880085,1.8114848 C8.3049975,-0.175031861 10.872512,-0.322422541 12.3807129,1.13857162 L25.6873054,8.87622133 C31.2762239,12.1255338 34.6789444,18.1358569 34.5892978,24.6000664 L34.3082061,44.912602 C34.5806345,46.2314776 34.0748081,47.6038112 32.7100778,48.7639599 C29.7607765,51.2711425 23.9169781,51.8379391 19.6575888,50.0299357 C16.992122,48.8985121 15.5787652,47.1052133 15.616996,45.307081 L15.6056554,45.3073196 L15.9086741,32.1612669 C16.0137153,27.6041995 13.6358271,23.3495367 9.69937906,21.051217 L2.94920509,17.1106849 C1.58195314,16.7339657 0.575727567,15.5892132 0.23892356,13.7482597 C-0.457709599,9.94049855 1.97332927,4.59622238 5.66880085,1.8114848 Z" id="形状结合"></path>
                    </g>
                </g>
                <g id="编组-50" transform="translate(428.850022, 256.291126) rotate(-2.000000) translate(-428.850022, -256.291126) translate(401.850022, 216.791126)">
                    <g id="编组-51" transform="translate(27.010832, 50.906594) rotate(-118.000000) translate(-27.010832, -50.906594) translate(6.010832, 32.406594)">
                        <g id="编组-46" transform="translate(-0.000000, -0.000000)">
                            <path d="M8.43135215,2.50347245 C11.4888816,0.199458724 14.4856054,-0.476340761 16.7520717,0.320143046 L16.7984617,0.24366418 L17.5117499,0.657310255 C17.6082814,0.709867419 17.7030852,0.765533655 17.7960951,0.824293547 L31.4174129,8.74899251 L16.537936,33.0210205 L2.13454642,24.7040944 L2.19713708,24.6004539 C1.20795922,23.7054211 0.498553127,22.3768298 0.180939952,20.6407725 C-0.877557397,14.8550802 2.81627797,6.73473435 8.43135215,2.50347245 Z" id="形状结合" fill="url(#linearGradient-22)"></path>
                            <path d="M19.7852477,30.625366 C26.8160823,30.625366 34.6530565,26.3631751 37.2896195,21.1054962 C39.9261825,15.8478173 36.3639215,11.5856264 29.3330869,11.5856264 C22.3022523,11.5856264 14.4652781,15.8478173 11.8287151,21.1054962 C9.19215212,26.3631751 12.7544131,30.625366 19.7852477,30.625366 Z" id="椭圆形" fill="#7C7F83" transform="translate(24.559167, 21.105496) rotate(-37.000000) translate(-24.559167, -21.105496) "></path>
                        </g>
                    </g>
                    <g id="编组-47" transform="translate(3.100000, 0.000000)" fill="url(#linearGradient-23)">
                        <path d="M5.66880085,1.8114848 C8.3049975,-0.175031861 10.872512,-0.322422541 12.3807129,1.13857162 L25.6873054,8.87622133 C31.2762239,12.1255338 34.6789444,18.1358569 34.5892978,24.6000664 L34.3082061,44.912602 C34.5806345,46.2314776 34.0748081,47.6038112 32.7100778,48.7639599 C29.7607765,51.2711425 23.9169781,51.8379391 19.6575888,50.0299357 C16.992122,48.8985121 15.5787652,47.1052133 15.616996,45.307081 L15.6056554,45.3073196 L15.9086741,32.1612669 C16.0137153,27.6041995 13.6358271,23.3495367 9.69937906,21.051217 L2.94920509,17.1106849 C1.58195314,16.7339657 0.575727567,15.5892132 0.23892356,13.7482597 C-0.457709599,9.94049855 1.97332927,4.59622238 5.66880085,1.8114848 Z" id="形状结合"></path>
                    </g>
                </g>
                <mask id="mask-25" fill="white">
                    <use xlink:href="#path-24"></use>
                </mask>
                <use id="蒙版" fill="#5EBBEA" opacity="0.627325149" xlink:href="#path-24"></use>
            </g>
        </g>
    </g>
</svg>