<?xml version="1.0" encoding="UTF-8"?>
<svg width="398px" height="340px" viewBox="0 0 398 340" version="1.1" xmlns="http://www.w3.org/2000/svg" xmlns:xlink="http://www.w3.org/1999/xlink">
    <title>环形加热炉</title>
    <defs>
        <linearGradient x1="100%" y1="50%" x2="0%" y2="50%" id="linearGradient-1">
            <stop stop-color="#B4B7BF" offset="0%"></stop>
            <stop stop-color="#D4D7DC" offset="18.0368047%"></stop>
            <stop stop-color="#6B7074" offset="94.5941008%"></stop>
            <stop stop-color="#D4D8DE" offset="100%"></stop>
        </linearGradient>
        <path d="M397.600006,2.89901436e-12 L397.600006,94.4000014 L397.260197,94.5445549 C391.193705,156.055855 304.659395,204.834465 198.800003,204.834465 C92.9417578,204.834465 6.40817533,156.056911 0.340006498,94.5465538 L0,94.4000014 L0,2.89901436e-12 L106.807983,44.0394562 C164.261896,37.387156 234.866421,37.4387553 292.116326,44.1942539 L397.600006,2.89901436e-12 Z" id="path-2"></path>
        <linearGradient x1="56.0838538%" y1="34.509985%" x2="51.2001451%" y2="56.9735385%" id="linearGradient-4">
            <stop stop-color="#F19E39" offset="0%"></stop>
            <stop stop-color="#C6442C" offset="100%"></stop>
        </linearGradient>
        <linearGradient x1="100%" y1="50%" x2="0%" y2="50%" id="linearGradient-5">
            <stop stop-color="#B4B7BF" offset="0%"></stop>
            <stop stop-color="#C3C7CE" offset="32.8028819%"></stop>
            <stop stop-color="#6B7074" offset="86.8905721%"></stop>
            <stop stop-color="#D4D8DE" offset="100%"></stop>
        </linearGradient>
        <linearGradient x1="50%" y1="25.5927587%" x2="50%" y2="54.7778669%" id="linearGradient-6">
            <stop stop-color="#F19E39" offset="0%"></stop>
            <stop stop-color="#C6442C" offset="100%"></stop>
        </linearGradient>
        <linearGradient x1="100%" y1="50%" x2="0%" y2="50%" id="linearGradient-7">
            <stop stop-color="#B4B7BF" offset="0%"></stop>
            <stop stop-color="#C3C7CE" offset="33.3783438%"></stop>
            <stop stop-color="#828383" offset="84.7677799%"></stop>
            <stop stop-color="#95999E" offset="100%"></stop>
        </linearGradient>
        <linearGradient x1="100%" y1="50%" x2="0%" y2="50%" id="linearGradient-8">
            <stop stop-color="#E3E5E9" offset="0%"></stop>
            <stop stop-color="#B9BDC2" offset="100%"></stop>
        </linearGradient>
        <linearGradient x1="5.30085052%" y1="54.103275%" x2="93.1563567%" y2="54.103275%" id="linearGradient-9">
            <stop stop-color="#D4D7DC" offset="0%"></stop>
            <stop stop-color="#404244" offset="100%"></stop>
        </linearGradient>
        <path d="M90.8820045,5.68434189e-14 C141.07475,5.68434189e-14 181.764009,22.8178984 181.764009,50.9652025 C181.764009,68.2596123 166.403074,83.5420745 142.91495,92.7560171 C128.175267,86.9714931 110.235068,83.5792015 90.8820045,83.5792015 C71.5289412,83.5792015 53.5887422,86.9714931 38.849059,92.7535895 C15.3609355,83.5420745 0,68.2596123 0,50.9652025 C0,22.8178984 40.6892594,5.68434189e-14 90.8820045,5.68434189e-14 Z" id="path-10"></path>
        <linearGradient x1="100%" y1="56.0386151%" x2="5.87813237%" y2="56.0386151%" id="linearGradient-12">
            <stop stop-color="#8F9195" offset="0%"></stop>
            <stop stop-color="#37383A" offset="24.500517%"></stop>
            <stop stop-color="#989CA1" offset="70.0310204%"></stop>
            <stop stop-color="#8F9398" offset="100%"></stop>
        </linearGradient>
        <linearGradient x1="77.1513634%" y1="9.11683614%" x2="22.9552473%" y2="88.0536034%" id="linearGradient-13">
            <stop stop-color="#8F9398" offset="0%"></stop>
            <stop stop-color="#989CA1" offset="29.9689796%"></stop>
            <stop stop-color="#37383A" offset="87.5802178%"></stop>
            <stop stop-color="#8F9195" offset="100%"></stop>
        </linearGradient>
        <linearGradient x1="50%" y1="0%" x2="50%" y2="38.2112253%" id="linearGradient-14">
            <stop stop-color="#8F9398" offset="0%"></stop>
            <stop stop-color="#989CA1" offset="29.9689796%"></stop>
            <stop stop-color="#37383A" offset="74.1945101%"></stop>
            <stop stop-color="#8F9195" offset="100%"></stop>
        </linearGradient>
        <path d="M0.479928613,-6.19504448e-14 L33.5122597,0.041646364 C40.2722197,0.0502526096 45.7452733,5.53725966 45.736667,12.2972196 L45.7360193,12.4085132 L45.5720951,28.2985646 C45.7595672,29.2011516 45.4139343,30.140535 44.4798935,30.9345573 C42.4632774,32.64887 38.4675181,33.0364232 35.5551154,31.8001817 C33.7325277,31.0265391 32.7661272,29.8003092 32.7923191,28.5707857 L32.7845628,28.5710427 L33.0773948,14.5638089 C33.0940173,13.7686926 32.4629234,13.1106483 31.6678071,13.0940258 L31.6365204,13.0937117 L0.000194044382,13.1200699 C0.516061875,10.4630755 0.7806973,7.76447457 0.7806973,5.03168144 C0.7806973,3.34077851 0.679382751,1.66296591 0.479928613,-6.19504448e-14 Z" id="path-15"></path>
        <linearGradient x1="119.425944%" y1="56.0386151%" x2="5.87813237%" y2="56.0386151%" id="linearGradient-17">
            <stop stop-color="#8F9398" offset="0%"></stop>
            <stop stop-color="#989CA1" offset="29.9689796%"></stop>
            <stop stop-color="#37383A" offset="78.8620378%"></stop>
            <stop stop-color="#8F9195" offset="100%"></stop>
        </linearGradient>
        <path d="M0.479928613,-6.19504448e-14 L33.5122597,0.041646364 C40.2722197,0.0502526096 45.7452733,5.53725966 45.736667,12.2972196 L45.7360193,12.4085132 L45.5720951,28.2985646 C45.7595672,29.2011516 45.4139343,30.140535 44.4798935,30.9345573 C42.4632774,32.64887 38.4675181,33.0364232 35.5551154,31.8001817 C33.7325277,31.0265391 32.7661272,29.8003092 32.7923191,28.5707857 L32.7845628,28.5710427 L33.0773948,14.5638089 C33.0940173,13.7686926 32.4629234,13.1106483 31.6678071,13.0940258 L31.6365204,13.0937117 L0.000194044382,13.1200699 C0.516061875,10.4630755 0.7806973,7.76447457 0.7806973,5.03168144 C0.7806973,3.34077851 0.679382751,1.66296591 0.479928613,-6.19504448e-14 Z" id="path-18"></path>
        <linearGradient x1="119.425944%" y1="56.0386151%" x2="5.87813237%" y2="56.0386151%" id="linearGradient-20">
            <stop stop-color="#8F9398" offset="0%"></stop>
            <stop stop-color="#989CA1" offset="29.9689796%"></stop>
            <stop stop-color="#37383A" offset="78.8620378%"></stop>
            <stop stop-color="#8F9195" offset="100%"></stop>
        </linearGradient>
        <linearGradient x1="38.7669584%" y1="42.8476937%" x2="55.9806781%" y2="56.5590269%" id="linearGradient-21">
            <stop stop-color="#8F9398" offset="0%"></stop>
            <stop stop-color="#989CA1" offset="29.9689796%"></stop>
            <stop stop-color="#37383A" offset="74.1945101%"></stop>
            <stop stop-color="#5A5B5D" offset="100%"></stop>
        </linearGradient>
        <path d="M43.6738992,6.36292144 C44.6816523,8.20303438 45.1995081,10.2712913 45.1777609,12.3691734 L45.1029121,19.7084698 C45.2894574,20.6104436 44.9436453,21.5490247 44.0102954,22.3424596 C41.9936793,24.0567724 37.99792,24.4443256 35.0855173,23.208084 C33.2627891,22.4343818 32.2963801,21.2080225 32.3227271,19.9784037 L32.3149647,19.9789451 L32.4504668,16.7863325 C32.5066729,15.4620413 31.4786868,14.3429271 30.1543956,14.286721 C29.688462,14.2669457 29.22686,14.383346 28.826016,14.6216932 L13.4219497,23.7809436 C9.26819647,21.1259495 4.78265878,18.6341748 0.000999730383,16.325348 L27.0590429,1.50681588 C32.9880853,-1.74027346 40.4268098,0.433879052 43.6738992,6.36292144 Z" id="path-22"></path>
        <linearGradient x1="119.425944%" y1="56.0386151%" x2="5.87813237%" y2="56.0386151%" id="linearGradient-24">
            <stop stop-color="#8F9398" offset="0%"></stop>
            <stop stop-color="#989CA1" offset="29.9689796%"></stop>
            <stop stop-color="#37383A" offset="57.0574217%"></stop>
            <stop stop-color="#656565" offset="100%"></stop>
        </linearGradient>
        <linearGradient x1="44.7715015%" y1="34.4105618%" x2="57.366277%" y2="50%" id="linearGradient-25">
            <stop stop-color="#8F9398" offset="0%"></stop>
            <stop stop-color="#B2B5B9" offset="29.9689796%"></stop>
            <stop stop-color="#37383A" offset="82.7384066%"></stop>
            <stop stop-color="#8F9195" offset="100%"></stop>
        </linearGradient>
        <path d="M71.4004754,9.23705556e-14 C81.7392464,9.41469125e-14 90.1204763,8.38122985 90.1204763,18.7200008 L90.1204763,18.7200008 L90.1214257,69.9016282 C83.5409296,63.839278 76.0125374,58.1572931 67.656739,52.9254947 L67.6564753,33.2672996 C67.6564753,32.4583186 67.4467729,31.6631519 67.0478279,30.9593811 C65.7731997,28.710835 62.9171026,27.9213186 60.6685566,29.1959468 L60.6685566,29.1959468 L3.52396613,61.5893707 L-8.52651283e-14,37.8324008 L11.7330777,31.0300958 L62.1675496,2.43529905 C64.9829344,0.839062377 68.1640635,9.23705556e-14 71.4004754,9.23705556e-14 Z" id="path-26"></path>
        <linearGradient x1="77.2844237%" y1="56.0386151%" x2="9.09427992%" y2="56.0386151%" id="linearGradient-28">
            <stop stop-color="#8F9398" offset="0%"></stop>
            <stop stop-color="#989CA1" offset="29.9689796%"></stop>
            <stop stop-color="#37383A" offset="78.8620378%"></stop>
            <stop stop-color="#8F9195" offset="100%"></stop>
        </linearGradient>
        <linearGradient x1="100%" y1="46.5716017%" x2="0%" y2="46.5768412%" id="linearGradient-29">
            <stop stop-color="#77797C" offset="0%"></stop>
            <stop stop-color="#ADB1B4" offset="29.9689796%"></stop>
            <stop stop-color="#292A2B" offset="88.9087214%"></stop>
            <stop stop-color="#818387" offset="100%"></stop>
        </linearGradient>
        <path d="M271,0.9550306 L270.773078,22.3129499 C270.790992,22.542775 270.800001,22.7832073 270.800001,23.0344598 C270.800001,23.8351065 270.779748,24.6329782 270.739527,25.4279082 L270.735224,25.5344839 C268.480992,68.117571 208.931311,102.230419 135.800001,102.230419 C62.867611,102.230419 3.44306552,68.3028955 0.885765,25.8840653 L0.800000966,25.8344605 L0.735224447,3.4900963 C3.33451562,9.03486999 6.03254917,14.2374529 8.82932512,19.0978451 C28.2359988,24.6108935 79.9902872,63.1151111 132.700002,62.9187893 C175.567823,62.7591245 219.053257,38.3504675 245.477234,25.6871076 L271,0.9550306 Z" id="path-30"></path>
        <linearGradient x1="5.30085052%" y1="54.103275%" x2="93.1563567%" y2="54.103275%" id="linearGradient-32">
            <stop stop-color="#ADAFB2" offset="0%"></stop>
            <stop stop-color="#404244" offset="100%"></stop>
        </linearGradient>
        <path d="M105.299998,0.199999332 C163.013755,0.199999332 209.799998,24.1527652 209.799998,53.6999993 C209.799998,60.6091846 207.241777,67.2124704 202.583818,73.2751299 C195.14138,43.1959095 154.419434,20.1999993 105.299998,20.1999993 C56.1805632,20.1999993 15.4586166,43.1959095 8.01568998,73.2736539 C3.35822017,67.2124704 0.799998403,60.6091846 0.799998403,53.6999993 C0.799998403,24.1527652 47.586242,0.199999332 105.299998,0.199999332 Z" id="path-33"></path>
        <linearGradient x1="62.254167%" y1="25.6778514%" x2="49.0075933%" y2="50%" id="linearGradient-35">
            <stop stop-color="#8F9398" offset="0%"></stop>
            <stop stop-color="#989CA1" offset="29.9689796%"></stop>
            <stop stop-color="#37383A" offset="74.1945101%"></stop>
            <stop stop-color="#8F9195" offset="100%"></stop>
        </linearGradient>
        <path d="M3.79416041,1.12657803 C5.5824055,-0.220961309 7.32442969,-0.330827784 8.35885212,0.642927583 L8.42712784,0.524650513 L38.5361087,18.0295556 C42.3575911,20.2513075 44.6842375,24.3609298 44.6229407,28.7809018 L44.431034,42.6712339 C44.6166538,43.5725941 44.2706631,44.5103731 43.338004,45.3032208 C41.3213879,47.0175335 37.3256286,47.4050868 34.4132259,46.1688452 C32.5906382,45.3952026 31.6242377,44.1689727 31.6504296,42.9394492 L31.6426733,42.9397062 L31.8498656,33.9509529 C31.9216887,30.8350097 30.2957823,27.9258388 27.6041941,26.3543382 L2.46008187,11.6751934 C1.26117967,11.5953746 0.353009997,10.7729494 0.0814240928,9.28847476 C-0.394906234,6.68487758 1.26734243,3.03067194 3.79416041,1.12657803 Z" id="path-36"></path>
        <linearGradient x1="119.425944%" y1="56.0386151%" x2="5.87813237%" y2="56.0386151%" id="linearGradient-38">
            <stop stop-color="#8F9398" offset="0%"></stop>
            <stop stop-color="#989CA1" offset="29.9689796%"></stop>
            <stop stop-color="#37383A" offset="78.8620378%"></stop>
            <stop stop-color="#8F9195" offset="100%"></stop>
        </linearGradient>
        <path d="M3.79416041,1.12657803 C5.5824055,-0.220961309 7.32442969,-0.330827784 8.35885212,0.642927583 L8.42712784,0.524650513 L38.5361087,18.0295556 C42.3575911,20.2513075 44.6842375,24.3609298 44.6229407,28.7809018 L44.431034,42.6712339 C44.6166538,43.5725941 44.2706631,44.5103731 43.338004,45.3032208 C41.3213879,47.0175335 37.3256286,47.4050868 34.4132259,46.1688452 C32.5906382,45.3952026 31.6242377,44.1689727 31.6504296,42.9394492 L31.6426733,42.9397062 L31.8498656,33.9509529 C31.9216887,30.8350097 30.2957823,27.9258388 27.6041941,26.3543382 L2.46008187,11.6751934 C1.26117967,11.5953746 0.353009997,10.7729494 0.0814240928,9.28847476 C-0.394906234,6.68487758 1.26734243,3.03067194 3.79416041,1.12657803 Z" id="path-39"></path>
        <linearGradient x1="100%" y1="56.0386151%" x2="5.87813237%" y2="56.0386151%" id="linearGradient-41">
            <stop stop-color="#8F9195" offset="0%"></stop>
            <stop stop-color="#37383A" offset="24.500517%"></stop>
            <stop stop-color="#989CA1" offset="70.0310204%"></stop>
            <stop stop-color="#8F9398" offset="100%"></stop>
        </linearGradient>
    </defs>
    <g id="-" stroke="none" stroke-width="1" fill="none" fill-rule="evenodd">
        <g id="画板" transform="translate(-2085.000000, -1612.000000)">
            <g id="环形加热炉" transform="translate(2085.000000, 1612.000000)">
                <g id="编组-48" transform="translate(0.000000, 18.400000)">
                    <g id="形状结合-+-形状结合-蒙版" transform="translate(0.000000, 115.965540)">
                        <mask id="mask-3" fill="white">
                            <use xlink:href="#path-2"></use>
                        </mask>
                        <use id="蒙版" fill="url(#linearGradient-1)" xlink:href="#path-2"></use>
                        <path d="M125.597558,146.373374 L125.600002,238.558761 L63.2000009,238.558761 L63.1966467,123.475068 C81.1962891,133.208643 102.318564,141.027986 125.597558,146.373374 Z" id="形状结合" stroke="#979797" stroke-width="0.800000012" fill="url(#linearGradient-4)" mask="url(#mask-3)"></path>
                        <g id="编组-54" mask="url(#mask-3)">
                            <g transform="translate(53.600001, 100.034463)">
                                <path d="M62.420812,28.4979748 L62.4228111,70.8984344 C39.1433526,65.5528552 18.0207248,57.7332163 0.0209060417,47.9992801 L0.0189122872,5.59820124 C18.0186498,15.3323596 39.1412839,23.1522095 62.420812,28.4979748 Z" id="形状结合" fill="url(#linearGradient-5)"></path>
                                <path d="M72.1247795,22.9218293 L62.6088578,28.4227987 C39.2583805,23.1039795 18.0651002,15.2985693 -4.1426687e-05,5.5692062 L9.62263739,0.000215539093 C27.6483568,9.747927 48.8057783,17.5758527 72.1247795,22.9218293 Z" id="形状结合" fill="#C6C9CE"></path>
                                <polygon id="路径-123" fill="#C2C6CB" points="62.426255 28.4227917 72.1247723 22.9296532 72.1247723 65.172354 62.426255 70.8986181"></polygon>
                            </g>
                        </g>
                        <path d="M198.800003,154.434464 C210.392383,154.434464 221.75302,153.8595 232.801621,152.756099 L232.800003,246.558761 L160.000002,246.558761 L159.999198,152.241444 C172.548333,153.680152 185.522152,154.434464 198.800003,154.434464 Z" id="形状结合" stroke="#979797" stroke-width="0.800000012" fill="url(#linearGradient-6)" mask="url(#mask-3)"></path>
                        <g id="编组-53" mask="url(#mask-3)">
                            <g transform="translate(160.039073, 127.218992)" id="路径-122">
                                <path d="M0,4.54747358e-14 L0,43.7857226 L72.8000011,43.7857226 L72.8000011,4.54747358e-14 C60.4824423,2.01842038 48.3360853,3.02763057 36.3609301,3.02763057 C24.3857749,3.02763057 12.2654649,2.01842038 0,4.54747358e-14 Z" fill="#CACDD2"></path>
                                <path d="M0,8.80000013 L0,49.6000007 C11.6529237,51.7333337 23.7732337,52.8000001 36.3609301,52.8000001 C48.9486265,52.8000001 61.0949835,51.7333337 72.8000011,49.6000007 L72.8000011,8.80000013 C60.2964397,10.9333335 48.18681,12.0000002 36.4711121,12.0000002 C24.7554141,12.0000002 12.5983768,10.9333335 0,8.80000013 Z" fill="url(#linearGradient-7)"></path>
                            </g>
                        </g>
                    </g>
                    <path d="M198.800003,0 C308.594213,0 397.600006,51.5767976 397.600006,115.200002 C397.600006,178.823206 308.594213,230.400003 198.800003,230.400003 C89.0057931,230.400003 0,178.823206 0,115.200002 C0,51.5767976 89.0057931,0 198.800003,0 Z M200.000003,20.8000003 C125.331104,20.8000003 64.800001,54.2891015 64.800001,95.6000014 C64.800001,136.910901 125.331104,170.400003 200.000003,170.400003 C274.668902,170.400003 335.200005,136.910901 335.200005,95.6000014 C335.200005,54.2891015 274.668902,20.8000003 200.000003,20.8000003 Z" id="形状结合" fill="url(#linearGradient-8)"></path>
                    <path d="M200.000003,20.8000003 C274.668902,20.8000003 335.200005,54.2891015 335.200005,95.6000014 C335.200005,136.910901 274.668902,170.400003 200.000003,170.400003 C125.331104,170.400003 64.800001,136.910901 64.800001,95.6000014 C64.800001,54.2891015 125.331104,20.8000003 200.000003,20.8000003 Z M198.00437,44.534616 C147.870953,44.534616 107.229789,67.328137 107.229789,95.4453699 C107.229789,123.562603 147.870953,146.356124 198.00437,146.356124 C248.137787,146.356124 288.778952,123.562603 288.778952,95.4453699 C288.778952,67.328137 248.137787,44.534616 198.00437,44.534616 Z" id="形状结合" fill="#D2D5D9"></path>
                    <g id="椭圆形" transform="translate(107.200002, 44.800001)">
                        <mask id="mask-11" fill="white">
                            <use xlink:href="#path-10"></use>
                        </mask>
                        <use id="形状结合" fill="url(#linearGradient-9)" xlink:href="#path-10"></use>
                    </g>
                </g>
                <g id="编组-52" transform="translate(9.200000, 0.000000)">
                    <g id="编组-47" transform="translate(188.999998, 13.500000) scale(-1, 1) translate(-188.999998, -13.500000) translate(181.999998, 0.000000)" fill="url(#linearGradient-12)">
                        <path d="M6.70181646,0 C10.225272,-6.4724828e-16 13.0825646,2.85449368 13.0860179,6.37794751 L13.1058207,26.7281391 C10.9105257,26.6696042 8.70151246,26.6399997 6.47999992,26.6399997 C4.41643007,26.6399997 2.36364539,26.6655443 0.322622815,26.7160931 L0.323865892,6.37795057 C0.323865892,2.85550574 3.17937163,6.47062619e-16 6.70181646,0 Z" id="形状结合"></path>
                    </g>
                    <g id="编组-50" transform="translate(29.800000, 115.000000) scale(-1, 1) translate(-29.800000, -115.000000) translate(0.800000, 89.000000)">
                        <g id="编组-46" transform="translate(38.865820, 32.118889) rotate(-118.000000) translate(-38.865820, -32.118889) translate(24.365820, 19.118889)">
                            <path d="M5.76502665,1.7117759 C7.85566962,0.136363424 9.90473508,-0.325713969 11.454462,0.2189205 L11.4861267,0.166607973 L11.977843,0.451622937 C12.0327957,0.481635447 12.0869277,0.513123497 12.1402128,0.54608099 L21.48199,5.98221662 L11.3079895,22.5784737 L1.4595188,16.8916871 L1.50240695,16.8209043 C0.825998525,16.2089152 0.340900752,15.3004485 0.123719615,14.1133476 C-0.600039198,10.157319 1.92565999,4.6049462 5.76502665,1.7117759 Z" id="形状结合" fill="url(#linearGradient-13)"></path>
                            <path d="M13.5283734,20.9404196 C18.3357813,20.9404196 23.6943957,18.0261012 25.4971737,14.4311074 C27.2999517,10.8361135 24.8642178,7.92179517 20.0568099,7.92179517 C15.249402,7.92179517 9.89078764,10.8361135 8.08800968,14.4311074 C6.28523172,18.0261012 8.72096554,20.9404196 13.5283734,20.9404196 Z" id="椭圆形" fill="#989BA0" transform="translate(16.792592, 14.431107) rotate(-37.000000) translate(-16.792592, -14.431107) "></path>
                        </g>
                        <g id="路径-53" transform="translate(0.159303, 0.008319)">
                            <mask id="mask-16" fill="white">
                                <use xlink:href="#path-15"></use>
                            </mask>
                            <use id="蒙版" fill="url(#linearGradient-14)" xlink:href="#path-15"></use>
                            <path d="M30.700701,106.131702 C30.7106409,111.062612 31.4725442,114.450247 32.986411,116.294605 C34.5002778,118.138964 36.7815906,119.540501 39.8303495,120.499216 L45.700701,114.4313 L46.5139039,2.52991782 C41.8017793,7.68506327 36.9315067,13.7742404 32.986411,13.2047005 L30.700701,106.131702 Z" fill="url(#linearGradient-17)" mask="url(#mask-16)"></path>
                        </g>
                    </g>
                    <g id="编组-50" transform="translate(320.939996, 90.039999)">
                        <g id="编组-46" transform="translate(38.865820, 32.118889) rotate(-118.000000) translate(-38.865820, -32.118889) translate(24.365820, 19.118889)">
                            <path d="M5.76502665,1.7117759 C7.85566962,0.136363424 9.90473508,-0.325713969 11.454462,0.2189205 L11.4861267,0.166607973 L11.977843,0.451622937 C12.0327957,0.481635447 12.0869277,0.513123497 12.1402128,0.54608099 L21.48199,5.98221662 L11.3079895,22.5784737 L1.4595188,16.8916871 L1.50240695,16.8209043 C0.825998525,16.2089152 0.340900752,15.3004485 0.123719615,14.1133476 C-0.600039198,10.157319 1.92565999,4.6049462 5.76502665,1.7117759 Z" id="形状结合" fill="url(#linearGradient-13)"></path>
                            <path d="M13.5283734,20.9404196 C18.3357813,20.9404196 23.6943957,18.0261012 25.4971737,14.4311074 C27.2999517,10.8361135 24.8642178,7.92179517 20.0568099,7.92179517 C15.249402,7.92179517 9.89078764,10.8361135 8.08800968,14.4311074 C6.28523172,18.0261012 8.72096554,20.9404196 13.5283734,20.9404196 Z" id="椭圆形" fill="#989BA0" transform="translate(16.792592, 14.431107) rotate(-37.000000) translate(-16.792592, -14.431107) "></path>
                        </g>
                        <g id="路径-53" transform="translate(0.159303, 0.008319)">
                            <mask id="mask-19" fill="white">
                                <use xlink:href="#path-18"></use>
                            </mask>
                            <use id="蒙版" fill="url(#linearGradient-14)" xlink:href="#path-18"></use>
                            <path d="M30.700701,106.131702 C30.7106409,111.062612 31.4725442,114.450247 32.986411,116.294605 C34.5002778,118.138964 36.7815906,119.540501 39.8303495,120.499216 L45.700701,114.4313 L46.1040556,4.01214158 C44.3003916,7.56943142 40.0740279,13.1169044 32.986411,12.7101906 L30.700701,106.131702 Z" fill="url(#linearGradient-20)" mask="url(#mask-19)"></path>
                        </g>
                    </g>
                    <g id="编组-50" transform="translate(72.459999, 50.080000) scale(-1, 1) translate(-72.459999, -50.080000) translate(43.959999, 28.580000)">
                        <g id="编组-46" transform="translate(38.645820, 23.698889) rotate(-118.000000) translate(-38.645820, -23.698889) translate(24.145820, 10.698889)">
                            <path d="M5.76502665,1.7117759 C7.85566962,0.136363424 9.90473508,-0.325713969 11.454462,0.2189205 L11.4861267,0.166607973 L11.977843,0.451622937 C12.0327957,0.481635447 12.0869277,0.513123497 12.1402128,0.54608099 L21.48199,5.98221662 L11.3079895,22.5784737 L1.4595188,16.8916871 L1.50240695,16.8209043 C0.825998525,16.2089152 0.340900752,15.3004485 0.123719615,14.1133476 C-0.600039198,10.157319 1.92565999,4.6049462 5.76502665,1.7117759 Z" id="形状结合" fill="url(#linearGradient-13)"></path>
                            <path d="M13.5283734,20.9404196 C18.3357813,20.9404196 23.6943957,18.0261012 25.4971737,14.4311074 C27.2999517,10.8361135 24.8642178,7.92179517 20.0568099,7.92179517 C15.249402,7.92179517 9.89078764,10.8361135 8.08800968,14.4311074 C6.28523172,18.0261012 8.72096554,20.9404196 13.5283734,20.9404196 Z" id="椭圆形" fill="#989BA0" transform="translate(16.792592, 14.431107) rotate(-37.000000) translate(-16.792592, -14.431107) "></path>
                        </g>
                        <g id="路径-53" transform="translate(0.408901, 0.180416)">
                            <mask id="mask-23" fill="white">
                                <use xlink:href="#path-22"></use>
                            </mask>
                            <use id="蒙版" fill="url(#linearGradient-21)" xlink:href="#path-22"></use>
                            <path d="M29.3477435,105.419603 C29.3576834,110.350514 30.1195868,113.738148 31.6334535,115.582507 C33.1473203,117.426865 35.4286331,118.828402 38.477392,119.787118 L44.3477435,113.719201 C46.4253353,69.6861296 47.1064537,36.7656647 46.3910987,14.9578066 C46.2775007,11.4947311 44.3529528,6.50879557 40.617455,0 C40.0450971,4.15360202 33.6618262,12.3388892 31.4295419,14.279068 L29.3477435,105.419603 Z" fill="url(#linearGradient-24)" mask="url(#mask-23)"></path>
                        </g>
                    </g>
                    <g id="路径-53" transform="translate(267.600004, 2.400000)">
                        <mask id="mask-27" fill="white">
                            <use xlink:href="#path-26"></use>
                        </mask>
                        <use id="蒙版" fill="url(#linearGradient-25)" xlink:href="#path-26"></use>
                        <path d="M64.1999959,111.780019 C64.2167739,116.710929 65.502824,120.098564 68.0581464,121.942923 C70.6134687,123.787281 74.464197,125.188818 79.6103313,126.147533 L89.5191559,120.079617 C87.1999959,79.7784393 112.133394,39.6584776 85.3399922,4.54747351e-13 C84.8084893,16.8688435 69.7072841,28.6132841 66.0792081,29.8335423 L64.1999959,111.780019 Z" fill="url(#linearGradient-28)" mask="url(#mask-27)"></path>
                    </g>
                    <g id="编组-48" transform="translate(52.000000, 2.000000)">
                        <g id="形状结合-+-形状结合-蒙版" transform="translate(0.000000, 71.965540)">
                            <mask id="mask-31" fill="white">
                                <use xlink:href="#path-30"></use>
                            </mask>
                            <use id="蒙版" fill="url(#linearGradient-29)" xlink:href="#path-30"></use>
                        </g>
                        <path d="M136.000003,0.80000031 C210.668902,0.80000031 271.200005,34.2891015 271.200005,75.6000014 C271.200005,116.910901 210.668902,150.400003 136.000003,150.400003 C61.3311037,150.400003 0.800000966,116.910901 0.800000966,75.6000014 C0.800000966,34.2891015 61.3311037,0.80000031 136.000003,0.80000031 Z M137.278952,23.534616 C79.5651953,23.534616 32.7789516,46.328137 32.7789516,74.4453699 C32.7789516,102.562603 79.5651953,125.356124 137.278952,125.356124 C194.992708,125.356124 241.778952,102.562603 241.778952,74.4453699 C241.778952,46.328137 194.992708,23.534616 137.278952,23.534616 Z" id="形状结合" fill="#989BA0"></path>
                        <g id="椭圆形" transform="translate(32.200002, 20.800001)">
                            <mask id="mask-34" fill="white">
                                <use xlink:href="#path-33"></use>
                            </mask>
                            <use id="形状结合" fill="url(#linearGradient-32)" xlink:href="#path-33"></use>
                        </g>
                    </g>
                    <g id="编组-50" transform="translate(82.300000, 176.000000) scale(-1, 1) translate(-82.300000, -176.000000) translate(53.800000, 143.000000)">
                        <g id="编组-51" transform="translate(37.925820, 46.518889) rotate(-118.000000) translate(-37.925820, -46.518889) translate(23.425820, 33.518889)">
                            <g id="编组-46" transform="translate(0.000000, -0.000000)">
                                <path d="M5.76502665,1.7117759 C7.85566962,0.136363424 9.90473508,-0.325713969 11.454462,0.2189205 L11.4861267,0.166607973 L11.977843,0.451622937 C12.0327957,0.481635447 12.0869277,0.513123497 12.1402128,0.54608099 L21.48199,5.98221662 L11.3079895,22.5784737 L1.4595188,16.8916871 L1.50240695,16.8209043 C0.825998525,16.2089152 0.340900752,15.3004485 0.123719615,14.1133476 C-0.600039198,10.157319 1.92565999,4.6049462 5.76502665,1.7117759 Z" id="形状结合" fill="url(#linearGradient-13)"></path>
                                <path d="M13.5283734,20.9404196 C18.3357813,20.9404196 23.6943957,18.0261012 25.4971737,14.4311074 C27.2999517,10.8361135 24.8642178,7.92179517 20.0568099,7.92179517 C15.249402,7.92179517 9.89078764,10.8361135 8.08800968,14.4311074 C6.28523172,18.0261012 8.72096554,20.9404196 13.5283734,20.9404196 Z" id="椭圆形" fill="#989BA0" transform="translate(16.792592, 14.431107) rotate(-37.000000) translate(-16.792592, -14.431107) "></path>
                            </g>
                        </g>
                        <g id="路径-53" transform="translate(0.361192, 0.039655)">
                            <mask id="mask-37" fill="white">
                                <use xlink:href="#path-36"></use>
                            </mask>
                            <use id="蒙版" fill="url(#linearGradient-35)" xlink:href="#path-36"></use>
                            <path d="M29.3188108,123.556031 C29.3287507,128.486941 30.090654,131.874576 31.6045208,133.718935 C33.1183876,135.563293 35.3997004,136.96483 38.4484593,137.923545 L44.3188108,131.855629 L44.7221654,21.4364709 C36.1179803,20.7588299 32.3358222,25.9124725 31.6045208,30.1345199 L29.3188108,123.556031 Z" fill="url(#linearGradient-38)" mask="url(#mask-37)"></path>
                        </g>
                    </g>
                    <g id="编组-50" transform="translate(265.119997, 143.279998)">
                        <g id="编组-51" transform="translate(37.925820, 46.518889) rotate(-118.000000) translate(-37.925820, -46.518889) translate(23.425820, 33.518889)">
                            <g id="编组-46" transform="translate(0.000000, -0.000000)">
                                <path d="M5.76502665,1.7117759 C7.85566962,0.136363424 9.90473508,-0.325713969 11.454462,0.2189205 L11.4861267,0.166607973 L11.977843,0.451622937 C12.0327957,0.481635447 12.0869277,0.513123497 12.1402128,0.54608099 L21.48199,5.98221662 L11.3079895,22.5784737 L1.4595188,16.8916871 L1.50240695,16.8209043 C0.825998525,16.2089152 0.340900752,15.3004485 0.123719615,14.1133476 C-0.600039198,10.157319 1.92565999,4.6049462 5.76502665,1.7117759 Z" id="形状结合" fill="url(#linearGradient-13)"></path>
                                <path d="M13.5283734,20.9404196 C18.3357813,20.9404196 23.6943957,18.0261012 25.4971737,14.4311074 C27.2999517,10.8361135 24.8642178,7.92179517 20.0568099,7.92179517 C15.249402,7.92179517 9.89078764,10.8361135 8.08800968,14.4311074 C6.28523172,18.0261012 8.72096554,20.9404196 13.5283734,20.9404196 Z" id="椭圆形" fill="#989BA0" transform="translate(16.792592, 14.431107) rotate(-37.000000) translate(-16.792592, -14.431107) "></path>
                            </g>
                        </g>
                        <g id="路径-53" transform="translate(0.361192, 0.039655)">
                            <mask id="mask-40" fill="white">
                                <use xlink:href="#path-39"></use>
                            </mask>
                            <use id="蒙版" fill="url(#linearGradient-35)" xlink:href="#path-39"></use>
                            <path d="M29.3188108,123.556031 C29.3287507,128.486941 30.090654,131.874576 31.6045208,133.718935 C33.1183876,135.563293 35.3997004,136.96483 38.4484593,137.923545 L44.3188108,131.855629 L44.7221654,21.4364709 C36.1179803,20.7588299 32.3358222,25.9124725 31.6045208,30.1345199 L29.3188108,123.556031 Z" fill="url(#linearGradient-38)" mask="url(#mask-40)"></path>
                        </g>
                    </g>
                    <g id="编组-50" transform="translate(190.239998, 199.939998) scale(-1, 1) translate(-190.239998, -199.939998) translate(171.239998, 163.439998)">
                        <g id="编组-51" transform="translate(19.482091, 53.719360) rotate(-120.000000) translate(-19.482091, -53.719360) translate(4.982091, 40.719360)">
                            <g id="编组-46" transform="translate(-0.000000, -0.000000)">
                                <path d="M5.76502665,1.7117759 C7.85566962,0.136363424 9.90473508,-0.325713969 11.454462,0.2189205 L11.4861267,0.166607973 L11.977843,0.451622937 C12.0327957,0.481635447 12.0869277,0.513123497 12.1402128,0.54608099 L21.48199,5.98221662 L11.3079895,22.5784737 L1.4595188,16.8916871 L1.50240695,16.8209043 C0.825998525,16.2089152 0.340900752,15.3004485 0.123719615,14.1133476 C-0.600039198,10.157319 1.92565999,4.6049462 5.76502665,1.7117759 Z" id="形状结合" fill="url(#linearGradient-13)"></path>
                                <path d="M13.5283734,20.9404196 C18.3357813,20.9404196 23.6943957,18.0261012 25.4971737,14.4311074 C27.2999517,10.8361135 24.8642178,7.92179517 20.0568099,7.92179517 C15.249402,7.92179517 9.89078764,10.8361135 8.08800968,14.4311074 C6.28523172,18.0261012 8.72096554,20.9404196 13.5283734,20.9404196 Z" id="椭圆形" fill="#989BA0" transform="translate(16.792592, 14.431107) rotate(-37.000000) translate(-16.792592, -14.431107) "></path>
                            </g>
                        </g>
                        <g id="编组-47" transform="translate(13.240000, 0.000000)" fill="url(#linearGradient-41)">
                            <path d="M6.70181646,0 C10.224837,-6.47168381e-16 13.0813606,2.85492955 13.0833272,6.37794958 L13.1077769,50.179361 L13.0871915,50.179689 C13.1590329,50.9966454 12.7949558,51.8285785 11.9546991,52.5428755 C9.93808292,54.2571883 5.94232367,54.6447415 3.02992098,53.4084999 C0.980837662,52.5387156 0.0139632084,51.0968673 0.323138202,49.7214296 L0.323865892,6.37795057 C0.323865892,2.85550574 3.17937163,6.47062619e-16 6.70181646,0 Z" id="形状结合"></path>
                        </g>
                    </g>
                </g>
            </g>
        </g>
    </g>
</svg>