<?xml version="1.0" encoding="UTF-8"?>
<svg width="185px" height="251px" viewBox="0 0 185 251" version="1.1" xmlns="http://www.w3.org/2000/svg" xmlns:xlink="http://www.w3.org/1999/xlink">
    <title>电炉</title>
    <defs>
        <linearGradient x1="14.4257257%" y1="60.5781137%" x2="100%" y2="65.5035432%" id="linearGradient-1">
            <stop stop-color="#686B6F" offset="0%"></stop>
            <stop stop-color="#AAACAE" offset="29.9689796%"></stop>
            <stop stop-color="#37383A" offset="87.5802178%"></stop>
            <stop stop-color="#686B6F" offset="100%"></stop>
        </linearGradient>
        <linearGradient x1="100%" y1="50%" x2="0%" y2="50%" id="linearGradient-2">
            <stop stop-color="#E3E5E9" offset="0%"></stop>
            <stop stop-color="#AEB2B8" offset="38.4274047%"></stop>
            <stop stop-color="#4E4E4F" offset="84.4193548%"></stop>
            <stop stop-color="#D4D8DE" offset="100%"></stop>
        </linearGradient>
        <linearGradient x1="100%" y1="50%" x2="0%" y2="50%" id="linearGradient-3">
            <stop stop-color="#E3E5E9" offset="0%"></stop>
            <stop stop-color="#D3D7DD" offset="38.4274047%"></stop>
            <stop stop-color="#9C9FA4" offset="84.4193548%"></stop>
            <stop stop-color="#D4D8DE" offset="100%"></stop>
        </linearGradient>
        <linearGradient x1="100%" y1="50%" x2="0%" y2="50%" id="linearGradient-4">
            <stop stop-color="#D3D7DD" offset="0%"></stop>
            <stop stop-color="#B8BDC4" offset="38.4274047%"></stop>
            <stop stop-color="#64696F" offset="84.4193548%"></stop>
            <stop stop-color="#D4D8DE" offset="100%"></stop>
        </linearGradient>
        <linearGradient x1="100%" y1="50%" x2="0%" y2="50%" id="linearGradient-5">
            <stop stop-color="#9DA1AA" offset="0%"></stop>
            <stop stop-color="#D4D7DC" offset="38.4274047%"></stop>
            <stop stop-color="#515457" offset="91.7482759%"></stop>
            <stop stop-color="#D4D8DE" offset="100%"></stop>
        </linearGradient>
        <linearGradient x1="100%" y1="50%" x2="0%" y2="50%" id="linearGradient-6">
            <stop stop-color="#E3E3E4" offset="0%"></stop>
            <stop stop-color="#9FA3A7" offset="100%"></stop>
        </linearGradient>
        <ellipse id="path-7" cx="70.1954407" cy="40.5625009" rx="70.1250015" ry="40.5625009"></ellipse>
        <filter x="0.0%" y="0.0%" width="100.0%" height="100.0%" filterUnits="objectBoundingBox" id="filter-9">
            <feGaussianBlur stdDeviation="0" in="SourceGraphic"></feGaussianBlur>
        </filter>
        <linearGradient x1="100%" y1="50%" x2="0%" y2="50%" id="linearGradient-10">
            <stop stop-color="#C6C6C6" offset="0%"></stop>
            <stop stop-color="#C9CCD2" offset="34.9105325%"></stop>
            <stop stop-color="#767A7E" offset="89.7885968%"></stop>
            <stop stop-color="#D4D8DE" offset="100%"></stop>
        </linearGradient>
        <linearGradient x1="100%" y1="50%" x2="0%" y2="50%" id="linearGradient-11">
            <stop stop-color="#E3E5E9" offset="0%"></stop>
            <stop stop-color="#D5D8DC" offset="32.8451078%"></stop>
            <stop stop-color="#9FA3A7" offset="100%"></stop>
        </linearGradient>
        <ellipse id="path-12" cx="54.375" cy="31.25" rx="54.375" ry="31.25"></ellipse>
        <filter x="0.0%" y="0.0%" width="100.0%" height="100.0%" filterUnits="objectBoundingBox" id="filter-14">
            <feGaussianBlur stdDeviation="0" in="SourceGraphic"></feGaussianBlur>
        </filter>
        <linearGradient x1="100%" y1="50%" x2="0%" y2="50%" id="linearGradient-15">
            <stop stop-color="#BBBEC3" offset="0%"></stop>
            <stop stop-color="#C9CCD2" offset="30.5719019%"></stop>
            <stop stop-color="#767A7E" offset="89.7885968%"></stop>
            <stop stop-color="#D4D8DE" offset="100%"></stop>
        </linearGradient>
        <linearGradient x1="100%" y1="50%" x2="0%" y2="50%" id="linearGradient-16">
            <stop stop-color="#E3E5E9" offset="0%"></stop>
            <stop stop-color="#9FA3A7" offset="100%"></stop>
        </linearGradient>
        <radialGradient cx="38.5455277%" cy="32.9365489%" fx="38.5455277%" fy="32.9365489%" r="81.2957322%" gradientTransform="translate(0.385455,0.329365),rotate(44.371701),scale(1.000000,1.033210),translate(-0.385455,-0.329365)" id="radialGradient-17">
            <stop stop-color="#DFE1E6" offset="0%"></stop>
            <stop stop-color="#A3A7AC" offset="100%"></stop>
        </radialGradient>
        <linearGradient x1="100%" y1="50%" x2="0%" y2="50%" id="linearGradient-18">
            <stop stop-color="#8F9398" offset="0%"></stop>
            <stop stop-color="#37383A" offset="87.5802178%"></stop>
            <stop stop-color="#8F9195" offset="100%"></stop>
        </linearGradient>
        <linearGradient x1="100%" y1="50%" x2="0%" y2="50%" id="linearGradient-19">
            <stop stop-color="#E3E5E9" offset="0%"></stop>
            <stop stop-color="#A2A5A9" offset="100%"></stop>
        </linearGradient>
        <linearGradient x1="100%" y1="50%" x2="0%" y2="50%" id="linearGradient-20">
            <stop stop-color="#E3E5E9" offset="0%"></stop>
            <stop stop-color="#D3D7DD" offset="38.4274047%"></stop>
            <stop stop-color="#9C9FA4" offset="84.4193548%"></stop>
            <stop stop-color="#D4D8DE" offset="100%"></stop>
        </linearGradient>
        <radialGradient cx="70.1378334%" cy="35.2495089%" fx="70.1378334%" fy="35.2495089%" r="71.4262371%" gradientTransform="translate(0.701378,0.352495),rotate(140.844282),scale(1.000000,1.033210),translate(-0.701378,-0.352495)" id="radialGradient-21">
            <stop stop-color="#DFE1E6" offset="0%"></stop>
            <stop stop-color="#A3A7AC" offset="100%"></stop>
        </radialGradient>
        <linearGradient x1="100%" y1="50%" x2="0%" y2="50%" id="linearGradient-22">
            <stop stop-color="#83B5FF" offset="0%"></stop>
            <stop stop-color="#1F4988" offset="75.9183716%"></stop>
            <stop stop-color="#2F62AE" offset="100%"></stop>
        </linearGradient>
        <linearGradient x1="100%" y1="50%" x2="0%" y2="50%" id="linearGradient-23">
            <stop stop-color="#7F8185" offset="0%"></stop>
            <stop stop-color="#323335" offset="100%"></stop>
        </linearGradient>
        <radialGradient cx="59.7371559%" cy="65.6320357%" fx="59.7371559%" fy="65.6320357%" r="33.386691%" gradientTransform="translate(0.597372,0.656320),scale(1.000000,0.571429),rotate(-90.000000),scale(1.000000,2.395184),translate(-0.597372,-0.656320)" id="radialGradient-24">
            <stop stop-color="#FFBB3E" offset="0%"></stop>
            <stop stop-color="#B62227" offset="100%"></stop>
        </radialGradient>
        <path d="M0,29.179701 C1.83758532,32.276354 5.09464791,35.1874522 9.77118778,37.9129955 C14.4477276,40.6385389 19.5239984,42.584207 25,43.75 L25,14.570299 C18.7953562,12.2460004 14.2867206,10.2642347 11.4740932,8.62500176 C8.6614658,6.98576887 4.83676806,4.11076828 0,0 L0,29.179701 Z" id="path-25"></path>
        <linearGradient x1="100%" y1="50%" x2="0%" y2="50%" id="linearGradient-27">
            <stop stop-color="#D4D8DE" offset="0%"></stop>
            <stop stop-color="#B6B8BB" offset="34.7065093%"></stop>
            <stop stop-color="#C9CCD2" offset="61.5725953%"></stop>
            <stop stop-color="#D5D8DF" offset="100%"></stop>
        </linearGradient>
        <radialGradient cx="38.5455277%" cy="32.9365489%" fx="38.5455277%" fy="32.9365489%" r="91.7987645%" gradientTransform="translate(0.385455,0.329365),scale(1.000000,0.800000),rotate(50.725737),scale(1.000000,1.033210),translate(-0.385455,-0.329365)" id="radialGradient-28">
            <stop stop-color="#DFE1E6" offset="0%"></stop>
            <stop stop-color="#85898F" offset="100%"></stop>
        </radialGradient>
    </defs>
    <g id="-" stroke="none" stroke-width="1" fill="none" fill-rule="evenodd">
        <g id="画板" transform="translate(-738.000000, -422.000000)">
            <g id="电炉" transform="translate(738.500000, 422.500000)">
                <g id="左轨道" transform="translate(0.000000, 103.500000)">
                    <g id="编组-13" transform="translate(0.000000, 27.500000)">
                        <polygon id="路径-23" fill="#D8D8D8" points="-1.0658141e-13 69.6301656 11.25 76.1394488 118.472031 14.5932897 107.222031 8.06761978"></polygon>
                        <polygon id="路径-23" fill="#D8D8D8" points="0 66.5625458 11.25 73.071829 118.75 11.014776 107.966893 4.64101615"></polygon>
                        <polygon id="路径-25" fill="#7C7E80" points="-3.19744231e-13 72.1137789 -3.19744231e-13 61.25 1.85029337 62.3461025 1.85029337 66.68558 9.38008064 71.0373649 9.38008064 66.68558 11.25 67.7619078 11.25 78.6394488"></polygon>
                        <polygon id="路径-26" fill="#ABABAB" points="1.85029337 62.3461025 109.350293 1.09610247 107.5 0 0 61.25"></polygon>
                        <polygon id="路径-26" fill="#B0AEAE" points="11.25 67.7619078 118.75 6.51190782 116.899707 5.41580535 9.39970663 66.6658054"></polygon>
                        <polygon id="路径-27" fill="#C4C4C4" points="1.85029337 62.3461025 1.85029337 66.68558 109.350293 5.43558002 109.350293 1.09610247"></polygon>
                        <polygon id="路径-28" fill="#D8D8D8" points="11.25 67.7619078 11.25 78.6394488 118.75 17.3894488 118.75 6.51190782"></polygon>
                    </g>
                    <g id="编组-12" transform="translate(2.500000, 0.000000)">
                        <path d="M33.75,62.2306475 C56.8769239,75.4644971 80.5327966,69.0554343 86.5346134,50.7152031 C86.5346134,50.7152031 0,7.10542736e-14 0,7.10542736e-14 C0,23.0446048 10.6230761,48.9967979 33.75,62.2306475 Z" id="椭圆形" fill="#1F4988" transform="translate(43.267307, 34.623102) scale(-1, 1) translate(-43.267307, -34.623102) "></path>
                        <path d="M62.5286105,74.4434451 C77.8611116,76.0048424 90.7847105,69.0091957 95,56.1281987 C95,56.1281987 8.46538662,5.41299553 8.46538662,5.41299553 C8.46538662,21.2154168 13.4606574,38.3850683 24.0576548,51.8833598 C24.0576548,51.8833598 62.5286105,74.4434451 62.5286105,74.4434451 Z" id="椭圆形" fill="#163A70" transform="translate(51.732693, 40.036097) scale(-1, 1) translate(-51.732693, -40.036097) "></path>
                        <polygon id="路径-23" fill="#4980D1" points="0 50.7152031 8.46538662 56.1281987 95 5.41299553 86.5346134 -7.10542736e-14"></polygon>
                        <path d="M27.9461829,45.625 C47.8993656,46.8120457 66.8965775,41.5017036 82.5,13.125" id="路径-30" stroke="#979797" stroke-width="1.25"></path>
                    </g>
                    <g id="编组-12" transform="translate(2.500000, 0.000000)">
                        <path d="M33.75,62.2306475 C56.8769239,75.4644971 80.5327966,69.0554343 86.5346134,50.7152031 C86.5346134,50.7152031 0,7.10542736e-14 0,7.10542736e-14 C0,23.0446048 10.6230761,48.9967979 33.75,62.2306475 Z" id="椭圆形" fill="#3F4042" transform="translate(43.267307, 34.623102) scale(-1, 1) translate(-43.267307, -34.623102) "></path>
                        <path d="M62.5286105,74.4434451 C77.8611116,76.0048424 90.7847105,69.0091957 95,56.1281987 C95,56.1281987 8.46538662,5.41299553 8.46538662,5.41299553 C8.46538662,21.2154168 13.4606574,38.3850683 24.0576548,51.8833598 C24.0576548,51.8833598 62.5286105,74.4434451 62.5286105,74.4434451 Z" id="椭圆形" fill="url(#linearGradient-1)" transform="translate(51.732693, 40.036097) scale(-1, 1) translate(-51.732693, -40.036097) "></path>
                        <polygon id="路径-23" fill="#6F7072" points="0 50.7152031 8.46538662 56.1281987 95 5.41299553 86.5346134 -7.10542736e-14"></polygon>
                    </g>
                </g>
                <ellipse id="底部" fill="url(#linearGradient-2)" cx="83.125" cy="155.375" rx="55.625" ry="40.5169753"></ellipse>
                <g id="右轨道" transform="translate(65.000000, 142.250000)">
                    <g id="编组-13" transform="translate(0.000000, 27.500000)">
                        <polygon id="路径-23" fill="#D8D8D8" points="-1.0658141e-13 69.6301656 11.25 76.1394488 118.472031 14.5932897 107.222031 8.06761978"></polygon>
                        <polygon id="路径-23" fill="#D8D8D8" points="0 66.5625458 11.25 73.071829 118.75 11.014776 107.966893 4.64101615"></polygon>
                        <polygon id="路径-25" fill="#7C7E80" points="-3.19744231e-13 72.1137789 -3.19744231e-13 61.25 1.85029337 62.3461025 1.85029337 66.68558 9.38008064 71.0373649 9.38008064 66.68558 11.25 67.7619078 11.25 78.6394488"></polygon>
                        <polygon id="路径-26" fill="#ABABAB" points="1.85029337 62.3461025 109.350293 1.09610247 107.5 0 0 61.25"></polygon>
                        <polygon id="路径-26" fill="#B0AEAE" points="11.25 67.7619078 118.75 6.51190782 116.899707 5.41580535 9.39970663 66.6658054"></polygon>
                        <polygon id="路径-27" fill="#C4C4C4" points="1.85029337 62.3461025 1.85029337 66.68558 109.350293 5.43558002 109.350293 1.09610247"></polygon>
                        <polygon id="路径-28" fill="#D8D8D8" points="11.25 67.7619078 11.25 78.6394488 118.75 17.3894488 118.75 6.51190782"></polygon>
                    </g>
                    <g id="编组-12" transform="translate(3.750000, 0.000000)">
                        <path d="M33.75,62.2306475 C56.8769239,75.4644971 80.5327966,69.0554343 86.5346134,50.7152031 C86.5346134,50.7152031 0,7.10542736e-14 0,7.10542736e-14 C0,23.0446048 10.6230761,48.9967979 33.75,62.2306475 Z" id="椭圆形" fill="#3F4042" transform="translate(43.267307, 34.623102) scale(-1, 1) translate(-43.267307, -34.623102) "></path>
                        <path d="M62.5286105,74.4434451 C77.8611116,76.0048424 90.7847105,69.0091957 95,56.1281987 C95,56.1281987 8.46538662,5.41299553 8.46538662,5.41299553 C8.46538662,21.2154168 13.4606574,38.3850683 24.0576548,51.8833598 C24.0576548,51.8833598 62.5286105,74.4434451 62.5286105,74.4434451 Z" id="椭圆形" fill="url(#linearGradient-1)" transform="translate(51.732693, 40.036097) scale(-1, 1) translate(-51.732693, -40.036097) "></path>
                        <polygon id="路径-23" fill="#6F7072" points="0 50.7152031 8.46538662 56.1281987 95 5.41299553 86.5346134 -7.10542736e-14"></polygon>
                    </g>
                </g>
                <g id="左竖杆" transform="translate(20.500000, 34.000000)" fill="url(#linearGradient-3)">
                    <g id="编组-6" transform="translate(0.000000, 0.000000)">
                        <path d="M6.75000027,1.1920929e-07 C10.0852265,1.1920929e-07 12.8554818,1.88138703 13.4021055,4.35409075 L13.5,4.3547747 L13.5,75.6047747 L13.4574677,75.6052318 C13.4855678,75.7409969 13.5,75.8783849 13.5,76.0168886 C13.5,78.0211183 10.4779225,79.5000018 6.75000027,79.5000018 C3.02207806,79.5000018 8.8817842e-16,78.0211183 8.8817842e-16,76.0168886 C8.8817842e-16,75.8783849 0.0144322255,75.7409969 0.0425322709,75.6052318 L0,75.6047747 L0,4.3547747 L0.0978945072,4.35409075 C0.644518276,1.88138703 3.41477405,1.1920929e-07 6.75000027,1.1920929e-07 Z" id="形状结合"></path>
                    </g>
                </g>
                <g id="右竖杆" transform="translate(33.000000, 16.500000)" fill="url(#linearGradient-3)">
                    <g id="编组-6" transform="translate(0.000000, 0.000000)">
                        <path d="M6.75000027,1.1920929e-07 C10.0852265,1.1920929e-07 12.8554818,1.88138703 13.4021055,4.35409075 L13.5,4.3547747 L13.5,75.6047747 L13.4574677,75.6052318 C13.4855678,75.7409969 13.5,75.8783849 13.5,76.0168886 C13.5,78.0211183 10.4779225,79.5000018 6.75000027,79.5000018 C3.02207806,79.5000018 8.8817842e-16,78.0211183 8.8817842e-16,76.0168886 C8.8817842e-16,75.8783849 0.0144322255,75.7409969 0.0425322709,75.6052318 L0,75.6047747 L0,4.3547747 L0.0978945072,4.35409075 C0.644518276,1.88138703 3.41477405,1.1920929e-07 6.75000027,1.1920929e-07 Z" id="形状结合"></path>
                    </g>
                </g>
                <g id="上竖杆" transform="translate(48.000000, 17.750000)">
                    <g id="编组-6" transform="translate(0.000000, 0.000000)" fill="url(#linearGradient-3)">
                        <path d="M6.75000027,1.1920929e-07 C10.0852265,1.1920929e-07 12.8554818,1.88138703 13.4021055,4.35409075 L13.5,4.3547747 L13.5,75.6047747 L13.4574677,75.6052318 C13.4855678,75.7409969 13.5,75.8783849 13.5,76.0168886 C13.5,78.0211183 10.4779225,79.5000018 6.75000027,79.5000018 C3.02207806,79.5000018 8.8817842e-16,78.0211183 8.8817842e-16,76.0168886 C8.8817842e-16,75.8783849 0.0144322255,75.7409969 0.0425322709,75.6052318 L0,75.6047747 L0,4.3547747 L0.0978945072,4.35409075 C0.644518276,1.88138703 3.41477405,1.1920929e-07 6.75000027,1.1920929e-07 Z" id="形状结合"></path>
                    </g>
                    <g id="编组-6" transform="translate(0.000000, 24.000001)" fill="#D8D8D8" stroke="#979797" stroke-width="1.6500001">
                        <path d="M13.5,0 L13.5,4.8991214 L13.4707353,4.90013825 C13.151754,6.95875321 10.264557,8.43750034 6.75000027,8.43750034 C3.23544357,8.43750034 0.348246034,6.95875321 0.029264726,4.90013825 L0,4.8991214 L0,0 L0.212896637,0.000587767198 C0.962545904,1.81986518 3.60510978,3.16406263 6.75000027,3.16406263 C9.89489076,3.16406263 12.5374543,1.81986518 13.2871034,0.000587767198 L13.5,0 Z" id="形状结合"></path>
                    </g>
                </g>
                <ellipse id="4层" fill="url(#linearGradient-4)" cx="87.5" cy="142.875" rx="72.5" ry="41.875"></ellipse>
                <g id="3主体" transform="translate(16.500000, 37.250000)">
                    <path d="M141.250003,43.3474586 L141.250003,103.347459 L141.160838,103.348434 C139.303346,125.155101 108.657625,142.5 71.1250015,142.5 C33.5923785,142.5 2.94665706,125.155101 1.08916547,103.348434 L1,103.347459 L1,43.3474586 L141.250003,43.3474586 Z" id="形状结合" fill="url(#linearGradient-5)"></path>
                    <g id="路径-3" transform="translate(0.929561, 0.000000)">
                        <mask id="mask-8" fill="white">
                            <use xlink:href="#path-7"></use>
                        </mask>
                        <use id="蒙版" fill="url(#linearGradient-6)" xlink:href="#path-7"></use>
                        <polygon fill-opacity="0" fill="#000000" filter="url(#filter-9)" mask="url(#mask-8)" points="68.9999996 70.9634905 68.0548863 8.12634485 -4 8.12634485 -4.00000038 71.1263448"></polygon>
                    </g>
                </g>
                <g id="2层" transform="translate(33.750000, 39.750000)">
                    <path d="M54.375,3.75 C81.4198945,3.75 103.853204,15.5513367 108.046467,31.0082626 L108.75,31.0086037 L108.75,37.9025431 L108.680884,37.9030409 C107.240809,55.0841787 83.4779881,68.75 54.375,68.75 C25.2720119,68.75 1.50919055,55.0841787 0.0691163304,37.9030409 L0,37.9025431 L0,31.0086037 L0.703532917,31.0082626 C4.8967962,15.5513367 27.3301055,3.75 54.375,3.75 Z" id="形状结合" fill="url(#linearGradient-10)"></path>
                    <g id="路径-3">
                        <mask id="mask-13" fill="white">
                            <use xlink:href="#path-12"></use>
                        </mask>
                        <use id="蒙版" fill="url(#linearGradient-11)" xlink:href="#path-12"></use>
                        <polygon fill-opacity="0" fill="#000000" filter="url(#filter-14)" mask="url(#mask-13)" points="55 52.5 54.25 3.75 -2.92956055 3.75 -2.92956085 52.6263448"></polygon>
                    </g>
                </g>
                <g id="1层" transform="translate(48.750000, 43.500000)">
                    <path d="M39.375,2.5 C59.4667602,2.5 76.0437713,12.1314159 78.4498348,23.6696785 L78.75,23.6697489 L78.749,26.49 L78.75,26.554502 C78.75,26.5758995 78.7499505,26.5972875 78.7498516,26.6186661 L78.75,28.7076277 L78.5801495,28.7079889 C76.7237628,40.3713755 59.8797436,48.75 39.375,48.75 C18.8702564,48.75 2.02623724,40.3713755 0.169850549,28.7079889 L0,28.7076277 L0,23.6697489 L0.300165161,23.6696785 C2.70622871,12.1314159 19.2832398,2.5 39.375,2.5 Z" id="形状结合" fill="url(#linearGradient-15)"></path>
                    <ellipse id="椭圆形" fill="url(#linearGradient-16)" cx="39.375" cy="22.5" rx="39.375" ry="22.5"></ellipse>
                </g>
                <g id="左横杆" transform="translate(44.500000, 0.500000)">
                    <polygon id="路径-18" fill="#B6BABF" points="0 2 0 14.1829056 48.75 42.5940108 48.75 30.1559892"></polygon>
                    <polygon id="路径-19" fill="#DADDE1" points="4.57411886e-14 2 2.5 0.452994616 51.25 28.9059892 48.75 30.1559892"></polygon>
                    <polygon id="路径-20" stroke="#979797" stroke-width="1.25" fill="#D8D8D8" points="48.75 30.1559892 51.25 28.9059892 51.25 41.3440108 48.75 42.5940108"></polygon>
                </g>
                <g id="左固定" transform="translate(74.500000, 16.500000)">
                    <polygon id="路径-24" fill="#C9CDD2" points="0 21.6737293 13.75 13.7641164 13.75 0 0 7.97529156"></polygon>
                    <polygon id="路径-24" fill="#B6BABF" points="2.5 22.9237293 16.25 15.0141164 16.25 1.25 2.5 9.22529156"></polygon>
                    <path d="M6.25,12.3337909 C6.94035594,12.6775272 7.5,12.4709509 7.5,11.8723897 C7.5,11.2738286 6.94035594,10.5099455 6.25,10.1662091 C5.55964406,9.82247279 5,10.0290491 5,10.6276103 C5,11.2261714 5.55964406,11.9900545 6.25,12.3337909 Z" id="椭圆形" fill="url(#radialGradient-17)" transform="translate(6.250000, 11.250000) scale(-1, 1) translate(-6.250000, -11.250000) "></path>
                    <path d="M6.25,17.3337909 C6.94035594,17.6775272 7.5,17.4709509 7.5,16.8723897 C7.5,16.2738286 6.94035594,15.5099455 6.25,15.1662091 C5.55964406,14.8224728 5,15.0290491 5,15.6276103 C5,16.2261714 5.55964406,16.9900545 6.25,17.3337909 Z" id="椭圆形" fill="url(#radialGradient-17)" transform="translate(6.250000, 16.250000) scale(-1, 1) translate(-6.250000, -16.250000) "></path>
                </g>
                <g id="上电极" transform="translate(81.500000, 2.500000)">
                    <g id="编组-6" transform="translate(0.000000, 36.000001)">
                        <path d="M19.5,6.5000003 L19.5,13.4676396 L19.4580206,13.467228 C18.998742,16.3960041 14.827656,18.5000008 9.75000039,18.5000008 C4.67234481,18.5000008 0.50125804,16.3960041 0.0419794269,13.467228 L0,13.4676396 L0,6.5000003 L19.5,6.5000003 Z" id="形状结合" fill="url(#linearGradient-18)"></path>
                        <ellipse id="椭圆形" fill="url(#linearGradient-19)" cx="9.75000039" cy="6.00000024" rx="9.75000039" ry="6.00000024"></ellipse>
                    </g>
                    <g id="编组-6" transform="translate(3.000000, 0.000000)">
                        <path d="M6.75000027,3.00000012 C10.0852265,3.00000012 12.8554818,4.88138703 13.4021055,7.35409075 L13.5,7.3547747 L13.5,41.8547747 L13.4707734,41.855461 C13.1519843,43.6854551 10.2646971,45.0000018 6.75000027,45.0000018 C3.23530343,45.0000018 0.348015782,43.6854551 0.0292265802,41.855461 L0,41.8547747 L0,7.3547747 L0.0978945072,7.35409075 C0.644518276,4.88138703 3.41477405,3.00000012 6.75000027,3.00000012 Z" id="形状结合" fill="url(#linearGradient-20)"></path>
                        <circle id="椭圆形" fill="url(#radialGradient-21)" cx="6.75000027" cy="2.25000009" r="2.25000009"></circle>
                    </g>
                    <g id="编组-6" transform="translate(3.000000, 27.000001)" fill="url(#linearGradient-22)">
                        <path d="M13.5,0 L13.5,4.8991214 L13.4707353,4.90013825 C13.151754,6.95875321 10.264557,8.43750034 6.75000027,8.43750034 C3.23544357,8.43750034 0.348246034,6.95875321 0.029264726,4.90013825 L0,4.8991214 L0,0 L0.212896637,0.000587767198 C0.962545904,1.81986518 3.60510978,3.16406263 6.75000027,3.16406263 C9.89489076,3.16406263 12.5374543,1.81986518 13.2871034,0.000587767198 L13.5,0 Z" id="形状结合"></path>
                    </g>
                </g>
                <g id="右横杆" transform="translate(30.500000, 7.750000)">
                    <polygon id="路径-18" fill="#B6BABF" points="0.320439448 1.48466896 0.320439448 13.6675746 67 52.5940108 67 40.1559892"></polygon>
                    <polygon id="路径-19" fill="#DADDE1" points="0.320439448 1.48466896 2.82043945 0.234668961 69.5 38.9059892 67 40.1559892"></polygon>
                    <polygon id="路径-20" stroke="#979797" stroke-width="1.25" fill="#D8D8D8" points="67 40.1559892 69.5 38.9059892 69.5 51.3440108 67 52.5940108"></polygon>
                </g>
                <g id="左固定" transform="translate(88.500000, 38.500000)">
                    <polygon id="路径-24" fill="#C9CDD2" points="0 21.6737293 13.75 13.7641164 13.75 0 0 7.97529156"></polygon>
                    <polygon id="路径-24" fill="#B6BABF" points="2.5 22.9237293 16.25 15.0141164 16.25 1.25 2.5 9.22529156"></polygon>
                    <path d="M6.25,12.3337909 C6.94035594,12.6775272 7.5,12.4709509 7.5,11.8723897 C7.5,11.2738286 6.94035594,10.5099455 6.25,10.1662091 C5.55964406,9.82247279 5,10.0290491 5,10.6276103 C5,11.2261714 5.55964406,11.9900545 6.25,12.3337909 Z" id="椭圆形" fill="url(#radialGradient-17)" transform="translate(6.250000, 11.250000) scale(-1, 1) translate(-6.250000, -11.250000) "></path>
                    <path d="M6.25,17.3337909 C6.94035594,17.6775272 7.5,17.4709509 7.5,16.8723897 C7.5,16.2738286 6.94035594,15.5099455 6.25,15.1662091 C5.55964406,14.8224728 5,15.0290491 5,15.6276103 C5,16.2261714 5.55964406,16.9900545 6.25,17.3337909 Z" id="椭圆形" fill="url(#radialGradient-17)" transform="translate(6.250000, 16.250000) scale(-1, 1) translate(-6.250000, -16.250000) "></path>
                </g>
                <g id="左横杆" transform="translate(18.750000, 17.750000)">
                    <polygon id="路径-18" fill="#B6BABF" points="0 2 0 14.1829056 48.75 42.5940108 48.75 30.1559892"></polygon>
                    <polygon id="路径-19" fill="#DADDE1" points="4.57411886e-14 2 2.5 0.452994616 51.25 28.9059892 48.75 30.1559892"></polygon>
                    <polygon id="路径-20" stroke="#979797" stroke-width="1.25" fill="#D8D8D8" points="48.75 30.1559892 51.25 28.9059892 51.25 41.3440108 48.75 42.5940108"></polygon>
                </g>
                <g id="左固定" transform="translate(51.250000, 37.250000)">
                    <polygon id="路径-24" fill="#C9CDD2" points="0 21.6737293 13.75 13.7641164 13.75 0 0 7.97529156"></polygon>
                    <polygon id="路径-24" fill="#B6BABF" points="2.5 22.9237293 16.25 15.0141164 16.25 1.25 2.5 9.22529156"></polygon>
                    <path d="M6.25,12.3337909 C6.94035594,12.6775272 7.5,12.4709509 7.5,11.8723897 C7.5,11.2738286 6.94035594,10.5099455 6.25,10.1662091 C5.55964406,9.82247279 5,10.0290491 5,10.6276103 C5,11.2261714 5.55964406,11.9900545 6.25,12.3337909 Z" id="椭圆形" fill="url(#radialGradient-17)" transform="translate(6.250000, 11.250000) scale(-1, 1) translate(-6.250000, -11.250000) "></path>
                    <path d="M6.25,17.3337909 C6.94035594,17.6775272 7.5,17.4709509 7.5,16.8723897 C7.5,16.2738286 6.94035594,15.5099455 6.25,15.1662091 C5.55964406,14.8224728 5,15.0290491 5,15.6276103 C5,16.2261714 5.55964406,16.9900545 6.25,17.3337909 Z" id="椭圆形" fill="url(#radialGradient-17)" transform="translate(6.250000, 16.250000) scale(-1, 1) translate(-6.250000, -16.250000) "></path>
                </g>
                <g id="右电极" transform="translate(95.000000, 23.500000)">
                    <g id="编组-6" transform="translate(0.000000, 36.000001)" fill="url(#linearGradient-19)">
                        <ellipse id="椭圆形" cx="9.75000039" cy="6.00000024" rx="9.75000039" ry="6.00000024"></ellipse>
                    </g>
                    <g id="编组-6" transform="translate(3.000000, 0.000000)">
                        <path d="M6.75000027,3.00000012 C10.0852265,3.00000012 12.8554818,4.88138703 13.4021055,7.35409075 L13.5,7.3547747 L13.5,41.8547747 L13.4707734,41.855461 C13.1519843,43.6854551 10.2646971,45.0000018 6.75000027,45.0000018 C3.23530343,45.0000018 0.348015782,43.6854551 0.0292265802,41.855461 L0,41.8547747 L0,7.3547747 L0.0978945072,7.35409075 C0.644518276,4.88138703 3.41477405,3.00000012 6.75000027,3.00000012 Z" id="形状结合" fill="url(#linearGradient-20)"></path>
                        <circle id="椭圆形" fill="url(#radialGradient-21)" cx="6.75000027" cy="2.25000009" r="2.25000009"></circle>
                    </g>
                    <g id="编组-6" transform="translate(3.000000, 27.000001)" fill="#4980D1">
                        <path d="M13.5,0 L13.5,4.8991214 L13.4707353,4.90013825 C13.151754,6.95875321 10.264557,8.43750034 6.75000027,8.43750034 C3.23544357,8.43750034 0.348246034,6.95875321 0.029264726,4.90013825 L0,4.8991214 L0,0 L0.212896637,0.000587767198 C0.962545904,1.81986518 3.60510978,3.16406263 6.75000027,3.16406263 C9.89489076,3.16406263 12.5374543,1.81986518 13.2871034,0.000587767198 L13.5,0 Z" id="形状结合"></path>
                    </g>
                </g>
                <g id="右电极" transform="translate(95.000000, 23.500000)">
                    <g id="编组-6" transform="translate(0.000000, 36.000001)">
                        <path d="M19.5,6.5000003 L19.5,13.4676396 L19.4580206,13.467228 C18.998742,16.3960041 14.827656,18.5000008 9.75000039,18.5000008 C4.67234481,18.5000008 0.50125804,16.3960041 0.0419794269,13.467228 L0,13.4676396 L0,6.5000003 L19.5,6.5000003 Z" id="形状结合" fill="url(#linearGradient-18)"></path>
                        <ellipse id="椭圆形" fill="url(#linearGradient-23)" cx="9.75000039" cy="6.00000024" rx="9.75000039" ry="6.00000024"></ellipse>
                    </g>
                    <g id="编组-6" transform="translate(3.000000, 0.000000)">
                        <path d="M6.75000027,3.00000012 C10.0852265,3.00000012 12.8554818,4.88138703 13.4021055,7.35409075 L13.5,7.3547747 L13.5,41.8547747 L13.4707734,41.855461 C13.1519843,43.6854551 10.2646971,45.0000018 6.75000027,45.0000018 C3.23530343,45.0000018 0.348015782,43.6854551 0.0292265802,41.855461 L0,41.8547747 L0,7.3547747 L0.0978945072,7.35409075 C0.644518276,4.88138703 3.41477405,3.00000012 6.75000027,3.00000012 Z" id="形状结合" fill="url(#linearGradient-20)"></path>
                        <circle id="椭圆形" fill="url(#radialGradient-21)" cx="6.75000027" cy="2.25000009" r="2.25000009"></circle>
                    </g>
                    <g id="编组-6" transform="translate(3.000000, 27.000001)" fill="url(#linearGradient-22)">
                        <path d="M13.5,0 L13.5,4.8991214 L13.4707353,4.90013825 C13.151754,6.95875321 10.264557,8.43750034 6.75000027,8.43750034 C3.23544357,8.43750034 0.348246034,6.95875321 0.029264726,4.90013825 L0,4.8991214 L0,0 L0.212896637,0.000587767198 C0.962545904,1.81986518 3.60510978,3.16406263 6.75000027,3.16406263 C9.89489076,3.16406263 12.5374543,1.81986518 13.2871034,0.000587767198 L13.5,0 Z" id="形状结合"></path>
                    </g>
                </g>
                <g id="左电极" transform="translate(57.500000, 21.000000)">
                    <g id="编组-6" transform="translate(0.000000, 36.000001)">
                        <path d="M19.5,6.5000003 L19.5,13.4676396 L19.4580206,13.467228 C18.998742,16.3960041 14.827656,18.5000008 9.75000039,18.5000008 C4.67234481,18.5000008 0.50125804,16.3960041 0.0419794269,13.467228 L0,13.4676396 L0,6.5000003 L19.5,6.5000003 Z" id="形状结合" fill="url(#linearGradient-18)"></path>
                        <ellipse id="椭圆形" fill="url(#linearGradient-23)" cx="9.75000039" cy="6.00000024" rx="9.75000039" ry="6.00000024"></ellipse>
                    </g>
                    <g id="编组-6" transform="translate(3.000000, 0.000000)">
                        <path d="M6.75000027,3.00000012 C10.0852265,3.00000012 12.8554818,4.88138703 13.4021055,7.35409075 L13.5,7.3547747 L13.5,41.8547747 L13.4707734,41.855461 C13.1519843,43.6854551 10.2646971,45.0000018 6.75000027,45.0000018 C3.23530343,45.0000018 0.348015782,43.6854551 0.0292265802,41.855461 L0,41.8547747 L0,7.3547747 L0.0978945072,7.35409075 C0.644518276,4.88138703 3.41477405,3.00000012 6.75000027,3.00000012 Z" id="形状结合" fill="url(#linearGradient-20)"></path>
                        <circle id="椭圆形" fill="url(#radialGradient-21)" cx="6.75000027" cy="2.25000009" r="2.25000009"></circle>
                    </g>
                    <g id="编组-6" transform="translate(3.000000, 27.000001)" fill="url(#linearGradient-22)">
                        <path d="M13.5,0 L13.5,4.8991214 L13.4707353,4.90013825 C13.151754,6.95875321 10.264557,8.43750034 6.75000027,8.43750034 C3.23544357,8.43750034 0.348246034,6.95875321 0.029264726,4.90013825 L0,4.8991214 L0,0 L0.212896637,0.000587767198 C0.962545904,1.81986518 3.60510978,3.16406263 6.75000027,3.16406263 C9.89489076,3.16406263 12.5374543,1.81986518 13.2871034,0.000587767198 L13.5,0 Z" id="形状结合"></path>
                    </g>
                </g>
                <g id="投料窗" transform="translate(122.500000, 109.750000)">
                    <mask id="mask-26" fill="white">
                        <use xlink:href="#path-25"></use>
                    </mask>
                    <use id="蒙版" fill="url(#radialGradient-24)" transform="translate(12.500000, 21.875000) scale(-1, 1) translate(-12.500000, -21.875000) " xlink:href="#path-25"></use>
                    <path d="M0,55.429701 C1.83758532,58.526354 5.09464791,61.4374522 9.77118778,64.1629955 C14.4477276,66.8885389 19.5239984,68.834207 25,70 L25,40.820299 C18.7953562,38.4960004 14.2867206,36.5142347 11.4740932,34.8750018 C8.6614658,33.2357689 4.83676806,30.3607683 0,26.25 L0,55.429701 Z" id="路径-29" fill="#C0C4C8" mask="url(#mask-26)" transform="translate(12.500000, 48.125000) scale(-1, 1) translate(-12.500000, -48.125000) "></path>
                    <polyline id="路径-4" fill="#B6BABF" mask="url(#mask-26)" points="26.3278374 29.3176198 21.268573 29.3176198 21.0589728 -6.25 26.3278374 -6.25"></polyline>
                    <path d="M-0.127966855,20.429701 C1.70961847,23.526354 4.96668106,26.4374522 9.64322092,29.1629955 C14.3197608,31.8885389 19.4386871,33.8615936 25,35.0821598 L25,5.90245879 C18.710045,3.52338699 14.1587538,1.51423465 11.3461264,-0.124998242 C8.53349894,-1.76423113 4.70880121,-4.63923172 -0.127966855,-8.75 L-0.127966855,20.429701 Z" id="路径-29" fill="url(#linearGradient-27)" mask="url(#mask-26)" transform="translate(12.436017, 13.166080) scale(-1, 1) translate(-12.436017, -13.166080) "></path>
                    <path d="M15,25.8344771 C16.3807119,26.693818 17.5,26.1773772 17.5,24.6809743 C17.5,23.1845714 16.3807119,21.2748637 15,20.4155229 C13.6192881,19.556182 12.5,20.0726228 12.5,21.5690257 C12.5,23.0654286 13.6192881,24.9751363 15,25.8344771 Z" id="椭圆形" fill="url(#radialGradient-28)" mask="url(#mask-26)" transform="translate(15.000000, 23.125000) scale(-1, 1) translate(-15.000000, -23.125000) "></path>
                </g>
            </g>
        </g>
    </g>
</svg>