<?xml version="1.0" encoding="UTF-8"?>
<svg width="401px" height="373px" viewBox="0 0 401 373" version="1.1" xmlns="http://www.w3.org/2000/svg" xmlns:xlink="http://www.w3.org/1999/xlink">
    <title>矩形加热炉</title>
    <defs>
        <linearGradient x1="100%" y1="50%" x2="0%" y2="50%" id="linearGradient-1">
            <stop stop-color="#E3E5E9" offset="0%"></stop>
            <stop stop-color="#B9BDC2" offset="100%"></stop>
        </linearGradient>
        <polygon id="path-2" points="9.09494715e-14 59.3900843 9.09494715e-14 0.190083448 115.200002 66.7801679 115.200002 125.980169"></polygon>
        <linearGradient x1="32.8823209%" y1="48.0970242%" x2="23.682379%" y2="56.0329432%" id="linearGradient-4">
            <stop stop-color="#F19E39" offset="0%"></stop>
            <stop stop-color="#C6442C" offset="100%"></stop>
        </linearGradient>
        <linearGradient x1="96.9501541%" y1="50%" x2="3.17678513%" y2="79.9700598%" id="linearGradient-5">
            <stop stop-color="#DD7533" stop-opacity="0.6" offset="0%"></stop>
            <stop stop-color="#830505" offset="100%"></stop>
        </linearGradient>
        <linearGradient x1="48.2459395%" y1="83.9903333%" x2="30.6099885%" y2="100%" id="linearGradient-6">
            <stop stop-color="#F19E39" offset="0%"></stop>
            <stop stop-color="#C6442C" offset="100%"></stop>
        </linearGradient>
        <linearGradient x1="96.9501541%" y1="50%" x2="3.17678513%" y2="86.5293128%" id="linearGradient-7">
            <stop stop-color="#DD7533" stop-opacity="0.6" offset="0%"></stop>
            <stop stop-color="#830505" offset="100%"></stop>
        </linearGradient>
        <linearGradient x1="10.7471192%" y1="56.0386151%" x2="0%" y2="56.0386151%" id="linearGradient-8">
            <stop stop-color="#8F9398" offset="0%"></stop>
            <stop stop-color="#989CA1" offset="29.9689796%"></stop>
            <stop stop-color="#37383A" offset="46.8013702%"></stop>
            <stop stop-color="#8F9195" offset="100%"></stop>
        </linearGradient>
        <path d="M78.7211812,45.1347787 L10.5829747,5.56509096 C7.52638075,3.7900447 3.60956245,4.82894438 1.83451619,7.88553834 C1.27063377,8.85653253 0.972135769,9.95879104 0.968994099,11.0816371 L0.852036727,52.8826843 L0.852036727,52.8826843 L9.17792693,47.873435 L9.17792693,17.0332508 C9.17792693,16.1495952 9.89427135,15.4332508 10.777927,15.4332508 C11.0609532,15.4332508 11.3389148,15.5083257 11.5834555,15.6508168 L70.6119986,50.046078 L70.6119986,50.046078 L78.7211812,45.1347787 Z" id="path-9"></path>
        <linearGradient x1="79.2648214%" y1="57.8739152%" x2="74.2949956%" y2="63.5964651%" id="linearGradient-11">
            <stop stop-color="#8F9398" offset="0%"></stop>
            <stop stop-color="#989CA1" offset="20.7131769%"></stop>
            <stop stop-color="#37383A" offset="57.817616%"></stop>
            <stop stop-color="#8F9195" offset="100%"></stop>
        </linearGradient>
        <path d="M78.7211812,45.1347787 L10.5829747,5.56509096 C7.52638075,3.7900447 3.60956245,4.82894438 1.83451619,7.88553834 C1.27063377,8.85653253 0.972135769,9.95879104 0.968994099,11.0816371 L0.852036727,52.8826843 L0.852036727,52.8826843 L9.17792693,47.873435 L9.17792693,17.0332508 C9.17792693,16.1495952 9.89427135,15.4332508 10.777927,15.4332508 C11.0609532,15.4332508 11.3389148,15.5083257 11.5834555,15.6508168 L70.6119986,50.046078 L70.6119986,50.046078 L78.7211812,45.1347787 Z" id="path-12"></path>
        <path d="M78.7211812,45.1347787 L10.5829747,5.56509096 C7.52638075,3.7900447 3.60956245,4.82894438 1.83451619,7.88553834 C1.27063377,8.85653253 0.972135769,9.95879104 0.968994099,11.0816371 L0.852036727,52.8826843 L0.852036727,52.8826843 L9.17792693,47.873435 L9.17792693,17.0332508 C9.17792693,16.1495952 9.89427135,15.4332508 10.777927,15.4332508 C11.0609532,15.4332508 11.3389148,15.5083257 11.5834555,15.6508168 L70.6119986,50.046078 L70.6119986,50.046078 L78.7211812,45.1347787 Z" id="path-14"></path>
        <path d="M78.7211812,45.1347787 L10.5829747,5.56509096 C7.52638075,3.7900447 3.60956245,4.82894438 1.83451619,7.88553834 C1.27063377,8.85653253 0.972135769,9.95879104 0.968994099,11.0816371 L0.852036727,52.8826843 L0.852036727,52.8826843 L9.17792693,47.873435 L9.17792693,17.0332508 C9.17792693,16.1495952 9.89427135,15.4332508 10.777927,15.4332508 C11.0609532,15.4332508 11.3389148,15.5083257 11.5834555,15.6508168 L70.6119986,50.046078 L70.6119986,50.046078 L78.7211812,45.1347787 Z" id="path-16"></path>
        <path d="M78.7211812,45.1347787 L10.5829747,5.56509096 C7.52638075,3.7900447 3.60956245,4.82894438 1.83451619,7.88553834 C1.27063377,8.85653253 0.972135769,9.95879104 0.968994099,11.0816371 L0.852036727,52.8826843 L0.852036727,52.8826843 L9.17792693,47.873435 L9.17792693,17.0332508 C9.17792693,16.1495952 9.89427135,15.4332508 10.777927,15.4332508 C11.0609532,15.4332508 11.3389148,15.5083257 11.5834555,15.6508168 L70.6119986,50.046078 L70.6119986,50.046078 L78.7211812,45.1347787 Z" id="path-18"></path>
        <linearGradient x1="10.7471192%" y1="56.0386151%" x2="0%" y2="56.0386151%" id="linearGradient-20">
            <stop stop-color="#8F9398" offset="0%"></stop>
            <stop stop-color="#989CA1" offset="29.9689796%"></stop>
            <stop stop-color="#37383A" offset="46.8013702%"></stop>
            <stop stop-color="#8F9195" offset="100%"></stop>
        </linearGradient>
        <path d="M77.7211812,45.1347787 L9.61400566,5.58311147 C6.5574117,3.80806521 2.64059341,4.84696489 0.865547147,7.90355885 C0.298615007,8.87980459 -2.05663569e-14,9.98864112 -2.13162821e-14,11.1175644 L-2.13162821e-14,35.7681143 L-2.13162821e-14,35.7681143 L8.18363492,40.5052703 L8.17853234,17.0339514 C8.17834024,16.1502958 8.8945289,15.4337956 9.77818449,15.4336035 C10.0613288,15.433542 10.3394182,15.508619 10.5840609,15.6511695 L69.6119986,50.046078 L69.6119986,50.046078 L77.7211812,45.1347787 Z" id="path-21"></path>
        <linearGradient x1="56.0172001%" y1="50.4705137%" x2="58.8595149%" y2="52.7057896%" id="linearGradient-23">
            <stop stop-color="#8F9398" offset="0%"></stop>
            <stop stop-color="#989CA1" offset="29.9689796%"></stop>
            <stop stop-color="#37383A" offset="87.5802178%"></stop>
            <stop stop-color="#8F9195" offset="100%"></stop>
        </linearGradient>
        <path d="M315.599173,1.69971186 C319.397657,4.56207526 321.90724,10.0410231 321.204483,13.9372844 C321.00423,15.0475356 320.56475,15.9094729 319.950751,16.5082331 L320,16.5869066 L319.528777,16.8594748 C319.360172,16.9784294 319.181883,17.081312 318.994867,17.1679024 L108.068243,138.918115 C100.606029,143.225452 91.4074956,143.202159 83.9671921,138.857083 L25.2171811,104.547561 C23.3095203,103.433503 20.8599331,104.076845 19.7458749,105.984506 C19.3883877,106.59665 19.2000003,107.292801 19.2000003,108.001686 L19.2000003,130.872033 L8.52651283e-14,141.957159 L8.52651283e-14,95.7577482 C7.35248212e-14,86.921192 7.16344411,79.7577479 16.0000002,79.7577479 C18.8200868,79.7577479 21.5900762,80.5031113 24.029349,81.9183274 L87.9931548,119.028819 C92.9464238,121.902604 99.0578807,121.910044 104.018132,119.048328 L308.820961,0.890623083 C310.376201,-0.49272449 312.951363,-0.295555429 315.599173,1.69971186 Z" id="path-24"></path>
        <linearGradient x1="119.425944%" y1="56.0386151%" x2="5.87813237%" y2="56.0386151%" id="linearGradient-26">
            <stop stop-color="#8F9398" offset="0%"></stop>
            <stop stop-color="#989CA1" offset="29.9689796%"></stop>
            <stop stop-color="#37383A" offset="61.7589216%"></stop>
            <stop stop-color="#8F9195" offset="100%"></stop>
        </linearGradient>
        <linearGradient x1="83.3169109%" y1="55.8557926%" x2="73.4276675%" y2="69.9375379%" id="linearGradient-27">
            <stop stop-color="#8F9398" offset="0%"></stop>
            <stop stop-color="#989CA1" offset="20.7131769%"></stop>
            <stop stop-color="#37383A" offset="83.0018016%"></stop>
            <stop stop-color="#8F9195" offset="100%"></stop>
        </linearGradient>
        <linearGradient x1="70.0932454%" y1="4.58948963%" x2="22.9552473%" y2="88.0536034%" id="linearGradient-28">
            <stop stop-color="#8F9398" offset="0%"></stop>
            <stop stop-color="#989CA1" offset="29.9689796%"></stop>
            <stop stop-color="#37383A" offset="87.5802178%"></stop>
            <stop stop-color="#8F9195" offset="100%"></stop>
        </linearGradient>
        <linearGradient x1="73.8401034%" y1="9.11683614%" x2="26.2535055%" y2="88.0536034%" id="linearGradient-29">
            <stop stop-color="#8F9398" offset="0%"></stop>
            <stop stop-color="#989CA1" offset="29.9689796%"></stop>
            <stop stop-color="#37383A" offset="87.5802178%"></stop>
            <stop stop-color="#8F9195" offset="100%"></stop>
        </linearGradient>
        <linearGradient x1="58.1462613%" y1="88.407385%" x2="56.1986278%" y2="94.7296978%" id="linearGradient-30">
            <stop stop-color="#8F9398" offset="0%"></stop>
            <stop stop-color="#989CA1" offset="29.9689796%"></stop>
            <stop stop-color="#37383A" offset="87.5802178%"></stop>
            <stop stop-color="#8F9195" offset="100%"></stop>
        </linearGradient>
        <path d="M5.46311209,0.420035333 L5.50792668,0.342908832 L78.9008142,42.8141989 C81.3759939,44.2465458 82.8983586,46.8911882 82.8938801,49.7509281 L82.7209695,160.164115 C82.716818,162.815078 80.5644219,164.960744 77.9134583,164.956592 C77.0685157,164.955269 76.2388932,164.730932 75.5084299,164.306252 L59.3710231,154.925155 C58.7385344,154.76903 58.2715578,154.253013 58.1175951,153.411461 C57.806268,151.709764 58.8927051,149.321394 60.5442201,148.076888 C61.7498492,147.168381 62.9233341,147.120612 63.5902203,147.823069 L71.9503989,152.713784 C72.7132023,153.159854 73.6931876,152.903091 74.1392574,152.140288 C74.2820001,151.89619 74.3575027,151.618623 74.3580765,151.335853 L74.5573626,53.1196846 C74.5614247,51.1176965 73.4964451,49.2658217 71.7640488,48.2624393 L1.61011532,7.63099176 C0.825420983,7.57969021 0.230892981,7.0420589 0.0532183613,6.07089853 C-0.258108649,4.36920103 0.828328386,1.98083133 2.4798434,0.736325506 C3.64852159,-0.144336682 4.7869957,-0.216213854 5.46311209,0.420035333 Z" id="path-31"></path>
        <linearGradient x1="78.4085511%" y1="58.0384437%" x2="73.4926429%" y2="63.1220645%" id="linearGradient-33">
            <stop stop-color="#8F9398" offset="0%"></stop>
            <stop stop-color="#989CA1" offset="29.9689796%"></stop>
            <stop stop-color="#37383A" offset="68.0232107%"></stop>
            <stop stop-color="#8F9195" offset="100%"></stop>
        </linearGradient>
        <linearGradient x1="82.9686856%" y1="56.0386151%" x2="5.87813237%" y2="56.0386151%" id="linearGradient-34">
            <stop stop-color="#8F9398" offset="0%"></stop>
            <stop stop-color="#989CA1" offset="29.9689796%"></stop>
            <stop stop-color="#37383A" offset="81.1629593%"></stop>
            <stop stop-color="#8F9195" offset="100%"></stop>
        </linearGradient>
        <path d="M5.46311209,0.420035333 L5.50792668,0.342908832 L78.9008142,42.8141989 C81.3759939,44.2465458 82.8983586,46.8911882 82.8938801,49.7509281 L82.7209695,160.164115 C82.716818,162.815078 80.5644219,164.960744 77.9134583,164.956592 C77.0685157,164.955269 76.2388932,164.730932 75.5084299,164.306252 L59.3710231,154.925155 C58.7385344,154.76903 58.2715578,154.253013 58.1175951,153.411461 C57.806268,151.709764 58.8927051,149.321394 60.5442201,148.076888 C61.7498492,147.168381 62.9233341,147.120612 63.5902203,147.823069 L71.9503989,152.713784 C72.7132023,153.159854 73.6931876,152.903091 74.1392574,152.140288 C74.2820001,151.89619 74.3575027,151.618623 74.3580765,151.335853 L74.5573626,53.1196846 C74.5614247,51.1176965 73.4964451,49.2658217 71.7640488,48.2624393 L1.61011532,7.63099176 C0.825420983,7.57969021 0.230892981,7.0420589 0.0532183613,6.07089853 C-0.258108649,4.36920103 0.828328386,1.98083133 2.4798434,0.736325506 C3.64852159,-0.144336682 4.7869957,-0.216213854 5.46311209,0.420035333 Z" id="path-35"></path>
        <path d="M5.46311209,0.420035333 L5.50792668,0.342908832 L78.9008142,42.8141989 C81.3759939,44.2465458 82.8983586,46.8911882 82.8938801,49.7509281 L82.7209695,160.164115 C82.716818,162.815078 80.5644219,164.960744 77.9134583,164.956592 C77.0685157,164.955269 76.2388932,164.730932 75.5084299,164.306252 L59.3710231,154.925155 C58.7385344,154.76903 58.2715578,154.253013 58.1175951,153.411461 C57.806268,151.709764 58.8927051,149.321394 60.5442201,148.076888 C61.7498492,147.168381 62.9233341,147.120612 63.5902203,147.823069 L71.9503989,152.713784 C72.7132023,153.159854 73.6931876,152.903091 74.1392574,152.140288 C74.2820001,151.89619 74.3575027,151.618623 74.3580765,151.335853 L74.5573626,53.1196846 C74.5614247,51.1176965 73.4964451,49.2658217 71.7640488,48.2624393 L1.61011532,7.63099176 C0.825420983,7.57969021 0.230892981,7.0420589 0.0532183613,6.07089853 C-0.258108649,4.36920103 0.828328386,1.98083133 2.4798434,0.736325506 C3.64852159,-0.144336682 4.7869957,-0.216213854 5.46311209,0.420035333 Z" id="path-37"></path>
        <path d="M5.46311209,0.420035333 L5.50792668,0.342908832 L78.9008142,42.8141989 C81.3759939,44.2465458 82.8983586,46.8911882 82.8938801,49.7509281 L82.7209695,160.164115 C82.716818,162.815078 80.5644219,164.960744 77.9134583,164.956592 C77.0685157,164.955269 76.2388932,164.730932 75.5084299,164.306252 L59.3710231,154.925155 C58.7385344,154.76903 58.2715578,154.253013 58.1175951,153.411461 C57.806268,151.709764 58.8927051,149.321394 60.5442201,148.076888 C61.7498492,147.168381 62.9233341,147.120612 63.5902203,147.823069 L71.9503989,152.713784 C72.7132023,153.159854 73.6931876,152.903091 74.1392574,152.140288 C74.2820001,151.89619 74.3575027,151.618623 74.3580765,151.335853 L74.5573626,53.1196846 C74.5614247,51.1176965 73.4964451,49.2658217 71.7640488,48.2624393 L1.61011532,7.63099176 C0.825420983,7.57969021 0.230892981,7.0420589 0.0532183613,6.07089853 C-0.258108649,4.36920103 0.828328386,1.98083133 2.4798434,0.736325506 C3.64852159,-0.144336682 4.7869957,-0.216213854 5.46311209,0.420035333 Z" id="path-39"></path>
        <path d="M5.46311209,0.420035333 L5.50792668,0.342908832 L78.9008142,42.8141989 C81.3759939,44.2465458 82.8983586,46.8911882 82.8938801,49.7509281 L82.7209695,160.164115 C82.716818,162.815078 80.5644219,164.960744 77.9134583,164.956592 C77.0685157,164.955269 76.2388932,164.730932 75.5084299,164.306252 L59.3710231,154.925155 C58.7385344,154.76903 58.2715578,154.253013 58.1175951,153.411461 C57.806268,151.709764 58.8927051,149.321394 60.5442201,148.076888 C61.7498492,147.168381 62.9233341,147.120612 63.5902203,147.823069 L71.9503989,152.713784 C72.7132023,153.159854 73.6931876,152.903091 74.1392574,152.140288 C74.2820001,151.89619 74.3575027,151.618623 74.3580765,151.335853 L74.5573626,53.1196846 C74.5614247,51.1176965 73.4964451,49.2658217 71.7640488,48.2624393 L1.61011532,7.63099176 C0.825420983,7.57969021 0.230892981,7.0420589 0.0532183613,6.07089853 C-0.258108649,4.36920103 0.828328386,1.98083133 2.4798434,0.736325506 C3.64852159,-0.144336682 4.7869957,-0.216213854 5.46311209,0.420035333 Z" id="path-41"></path>
        <path d="M5.46311209,0.420035333 L5.50792668,0.342908832 L78.9008142,42.8141989 C81.3759939,44.2465458 82.8983586,46.8911882 82.8938801,49.7509281 L82.7209695,160.164115 C82.716818,162.815078 80.5644219,164.960744 77.9134583,164.956592 C77.0685157,164.955269 76.2388932,164.730932 75.5084299,164.306252 L59.3710231,154.925155 C58.7385344,154.76903 58.2715578,154.253013 58.1175951,153.411461 C57.806268,151.709764 58.8927051,149.321394 60.5442201,148.076888 C61.7498492,147.168381 62.9233341,147.120612 63.5902203,147.823069 L71.9503989,152.713784 C72.7132023,153.159854 73.6931876,152.903091 74.1392574,152.140288 C74.2820001,151.89619 74.3575027,151.618623 74.3580765,151.335853 L74.5573626,53.1196846 C74.5614247,51.1176965 73.4964451,49.2658217 71.7640488,48.2624393 L1.61011532,7.63099176 C0.825420983,7.57969021 0.230892981,7.0420589 0.0532183613,6.07089853 C-0.258108649,4.36920103 0.828328386,1.98083133 2.4798434,0.736325506 C3.64852159,-0.144336682 4.7869957,-0.216213854 5.46311209,0.420035333 Z" id="path-43"></path>
    </defs>
    <g id="-" stroke="none" stroke-width="1" fill="none" fill-rule="evenodd">
        <g id="画板" transform="translate(-2633.000000, -1603.000000)">
            <g id="矩形加热炉" transform="translate(2633.500000, 1603.500000)">
                <polygon id="路径-21" fill="#989B9F" points="140.800002 371.659064 140.800002 268.03923 1.25766066e-13 186.629312 0 290.249147"></polygon>
                <polygon id="路径-87" fill="#C2C6CB" points="140.800002 371.659064 396.800006 223.659062 396.800006 120.039228 140.800002 268.03923"></polygon>
                <polygon id="路径-22" fill="url(#linearGradient-1)" points="140.800002 268.03923 3.97903904e-14 186.629312 256.000004 38.6293099 396.800006 120.039228"></polygon>
                <g id="路径-118-+-路径-119-蒙版" transform="translate(12.800000, 238.249146)">
                    <mask id="mask-3" fill="white">
                        <use xlink:href="#path-2"></use>
                    </mask>
                    <use id="蒙版" fill="#D8D8D8" opacity="0.306687128" xlink:href="#path-2"></use>
                    <polygon id="路径-118" fill="url(#linearGradient-4)" mask="url(#mask-3)" points="9.09494715e-14 59.3900843 115.200002 -7.20000011 243.200004 66.7801679 128.000002 133.409919"></polygon>
                    <polygon id="路径-95" fill="url(#linearGradient-5)" mask="url(#mask-3)" points="18.4000003 57.2247897 87.2000013 17.4099168 90.6071677 19.4230922 21.8071667 59.2379651"></polygon>
                    <polygon id="路径-95" fill="url(#linearGradient-5)" mask="url(#mask-3)" points="27.2000004 62.8247898 96.0000014 23.0099169 99.4071678 25.0230923 30.6071668 64.8379652"></polygon>
                    <polygon id="路径-95" fill="url(#linearGradient-5)" mask="url(#mask-3)" points="36.8000005 68.4247899 105.600002 28.609917 109.007168 30.6230924 40.2071669 70.4379653"></polygon>
                    <polygon id="路径-95" fill="url(#linearGradient-5)" mask="url(#mask-3)" points="46.4000007 74.02479 115.200002 34.2099171 118.607168 36.2230925 49.8071671 76.0379654"></polygon>
                    <polygon id="路径-95" fill="url(#linearGradient-5)" mask="url(#mask-3)" points="56.0000008 79.62479 124.800002 39.8099171 128.207168 41.8230926 59.4071672 81.6379655"></polygon>
                    <polygon id="路径-95" fill="url(#linearGradient-5)" mask="url(#mask-3)" points="64.800001 85.2247901 133.600002 45.4099172 137.007168 47.4230926 68.2071674 87.2379655"></polygon>
                    <polygon id="路径-95" fill="url(#linearGradient-5)" mask="url(#mask-3)" points="76.0000011 91.6247902 144.800002 51.8099173 148.207169 53.8230927 79.4071675 93.6379656"></polygon>
                    <polygon id="路径-95" fill="url(#linearGradient-5)" mask="url(#mask-3)" points="85.6000013 97.2247903 154.400002 57.4099174 157.807169 59.4230928 89.0071677 99.2379657"></polygon>
                    <polygon id="路径-95" fill="url(#linearGradient-5)" mask="url(#mask-3)" points="96.0000014 102.82479 164.800002 63.0099175 168.207169 65.0230929 99.4071678 104.837966"></polygon>
                    <polygon id="路径-95" fill="url(#linearGradient-5)" mask="url(#mask-3)" points="106.400002 109.22479 175.200003 69.4099176 178.607169 71.423093 109.807168 111.237966"></polygon>
                    <polygon id="路径-119" fill="url(#linearGradient-6)" mask="url(#mask-3)" points="1.02517996e-13 59.3900843 115.200002 -7.20000011 115.200002 -125.600002 1.02318155e-13 -59.0099174"></polygon>
                    <g id="编组-49" mask="url(#mask-3)" fill="url(#linearGradient-7)">
                        <g transform="translate(9.600000, -55.390084)" id="路径-95">
                            <polygon points="0 39.8148729 68.800001 0 68.800001 4.18512777 0 44.0000007"></polygon>
                            <polygon points="0 49.414873 68.800001 9.60000014 68.800001 13.7851279 0 53.6000008"></polygon>
                            <polygon points="0 59.0148732 68.800001 19.2000003 68.800001 23.3851281 0 63.2000009"></polygon>
                            <polygon points="0 68.6148733 68.800001 28.8000004 68.800001 32.9851282 0 72.8000011"></polygon>
                            <polygon points="0 78.2148735 68.800001 38.4000006 68.800001 42.5851283 0 82.4000012"></polygon>
                            <polygon points="0 87.8148736 68.800001 48.0000007 68.800001 52.1851285 0 92.0000014"></polygon>
                            <polygon points="0 96.6148737 68.800001 56.8000008 68.800001 60.9851286 0 100.800002"></polygon>
                        </g>
                    </g>
                </g>
                <g id="编组-29" transform="translate(8.800000, 214.559062)">
                    <polygon id="路径-84" fill="#989B9F" points="0 50.4702511 115.200002 117.100002 115.200002 80.0702515 0 13.1124292"></polygon>
                    <polygon id="路径-90" fill="#DCDEE3" points="0 13.1124292 6.85884 0.259691614 122.058842 67.2175139 115.200002 80.0702515"></polygon>
                    <polygon id="路径-91" fill="#C2C6CB" points="115.200002 80.0702515 115.200002 117.060336 122.058842 113.095894 122.058842 67.2175139"></polygon>
                </g>
                <g id="矩形" transform="translate(230.500000, 0.500000)">
                    <mask id="mask-10" fill="white">
                        <use xlink:href="#path-9"></use>
                    </mask>
                    <use id="蒙版" fill="url(#linearGradient-8)" xlink:href="#path-9"></use>
                    <path d="M6.02996398,2.74100109 L86.0650787,49.2590597 L81.469929,56.4264337 L9.87111692,15.7942483 C4.77142097,13.0222169 2.75329359,9.02792678 6.02996398,2.74100109 Z" fill="url(#linearGradient-11)" mask="url(#mask-10)"></path>
                </g>
                <g id="矩形" transform="translate(198.500000, 18.500000)">
                    <mask id="mask-13" fill="white">
                        <use xlink:href="#path-12"></use>
                    </mask>
                    <use id="蒙版" fill="url(#linearGradient-8)" xlink:href="#path-12"></use>
                    <path d="M6.02996398,2.74100109 L86.0650787,49.2590597 L81.469929,56.4264337 L9.87111692,15.7942483 C4.77142097,13.0222169 2.75329359,9.02792678 6.02996398,2.74100109 Z" fill="url(#linearGradient-11)" mask="url(#mask-13)"></path>
                </g>
                <g id="矩形" transform="translate(164.500000, 38.500000)">
                    <mask id="mask-15" fill="white">
                        <use xlink:href="#path-14"></use>
                    </mask>
                    <use id="蒙版" fill="url(#linearGradient-8)" xlink:href="#path-14"></use>
                    <path d="M6.02996398,2.74100109 L86.0650787,49.2590597 L81.469929,56.4264337 L9.87111692,15.7942483 C4.77142097,13.0222169 2.75329359,9.02792678 6.02996398,2.74100109 Z" fill="url(#linearGradient-11)" mask="url(#mask-15)"></path>
                </g>
                <g id="矩形" transform="translate(129.500000, 58.500000)">
                    <mask id="mask-17" fill="white">
                        <use xlink:href="#path-16"></use>
                    </mask>
                    <use id="蒙版" fill="url(#linearGradient-8)" xlink:href="#path-16"></use>
                    <path d="M6.02996398,2.74100109 L86.0650787,49.2590597 L81.469929,56.4264337 L9.87111692,15.7942483 C4.77142097,13.0222169 2.75329359,9.02792678 6.02996398,2.74100109 Z" fill="url(#linearGradient-11)" mask="url(#mask-17)"></path>
                </g>
                <g id="矩形" transform="translate(96.500000, 77.500000)">
                    <mask id="mask-19" fill="white">
                        <use xlink:href="#path-18"></use>
                    </mask>
                    <use id="蒙版" fill="url(#linearGradient-8)" xlink:href="#path-18"></use>
                    <path d="M6.02996398,2.74100109 L86.0650787,49.2590597 L81.469929,56.4264337 L9.87111692,15.7942483 C4.77142097,13.0222169 2.75329359,9.02792678 6.02996398,2.74100109 Z" fill="url(#linearGradient-11)" mask="url(#mask-19)"></path>
                </g>
                <g id="矩形" transform="translate(62.152036, 99.200001)">
                    <mask id="mask-22" fill="white">
                        <use xlink:href="#path-21"></use>
                    </mask>
                    <use id="蒙版" fill="url(#linearGradient-20)" xlink:href="#path-21"></use>
                    <path d="M5.02996398,2.74100109 L85.0650787,49.2590597 L80.469929,56.4264337 L8.87111692,15.7942483 C3.77142097,13.0222169 1.75329359,9.02792678 5.02996398,2.74100109 Z" fill="url(#linearGradient-11)" mask="url(#mask-22)"></path>
                </g>
                <g id="矩形" transform="translate(12.000000, 37.662237)">
                    <mask id="mask-25" fill="white">
                        <use xlink:href="#path-24"></use>
                    </mask>
                    <use id="蒙版" fill="url(#linearGradient-23)" xlink:href="#path-24"></use>
                    <path d="M0.499999821,185.713448 C0.512590368,190.644358 1.47766793,194.031992 3.3952325,195.876351 C5.31279707,197.72071 8.20245999,199.122247 12.0642213,200.080962 L19.4999998,194.013046 L19.4999998,83.492057 C17.8472362,79.1840497 14.2596844,77.8666563 8.7373444,79.5398768 C3.21500444,81.2130973 0.664278048,82.7964836 1.08516523,84.2900358 L0.499999821,185.713448 Z" id="路径-53" fill="url(#linearGradient-26)" mask="url(#mask-25)"></path>
                    <path d="M11.4479055,74.523196 L96.5703665,121.207491 C102.091982,129.00738 99.4255875,141.007612 94.4026984,145.884144 L19.4474809,101.755233 C8.82686705,95.9721462 4.62392009,87.6391502 11.4479055,74.523196 Z" fill="url(#linearGradient-27)" mask="url(#mask-25)"></path>
                </g>
                <g id="编组-47" transform="translate(314.500000, 50.500000)">
                    <g id="编组-46" transform="translate(36.300001, 132.000002)">
                        <path d="M6.40558534,1.90197327 C8.72872334,0.151363221 11.0056561,-0.361993398 12.727628,0.243402362 L12.7623634,0.185119975 L13.2630506,0.477259113 C13.3433301,0.519718828 13.4220685,0.564974147 13.4992013,0.61301001 L23.8688784,6.64690754 L12.5644331,25.0871937 L1.6216876,18.7685418 L1.6687858,18.6893916 C0.917510665,18.009409 0.378719187,17.000174 0.137466243,15.6814977 C-0.666710237,11.2859103 2.13962227,5.11660702 6.40558534,1.90197327 Z" id="形状结合" fill="url(#linearGradient-28)"></path>
                        <path d="M15.0315264,23.2671335 C20.3730909,23.2671335 26.3271071,20.0290019 28.3301938,16.0345642 C30.3332804,12.0401264 27.6269094,8.80199487 22.285345,8.80199487 C16.9437805,8.80199487 10.9897643,12.0401264 8.98667766,16.0345642 C6.98359098,20.0290019 9.68996197,23.2671335 15.0315264,23.2671335 Z" id="椭圆形" fill="#969A9E" transform="translate(18.658436, 16.034564) rotate(-37.000000) translate(-18.658436, -16.034564) "></path>
                    </g>
                    <g id="编组-46" transform="translate(0.044000, 0.384000)">
                        <path d="M54.8839104,142.931383 C56.5098853,141.706123 58.1035254,141.346705 59.3088473,141.770211 L59.3336549,141.729586 L59.7222475,141.954632 C59.7593715,141.975032 59.7960117,141.9963 59.8321549,142.018434 L65.1042071,145.086902 L57.3457096,158.093145 L51.5351821,154.737981 L51.5687398,154.683109 C51.0425398,154.207116 50.6651672,153.500468 50.4962271,152.57705 C49.9333036,149.500139 51.8977363,145.181627 54.8839104,142.931383 Z" id="形状结合" fill="url(#linearGradient-29)"></path>
                        <path d="M58.7712837,156.610931 C62.5103787,156.610931 66.67819,154.344239 68.0803506,151.548133 C69.4825113,148.752027 67.5880516,146.485335 63.8489566,146.485335 C60.1098615,146.485335 55.9420503,148.752027 54.5398896,151.548133 C53.137729,154.344239 55.0321886,156.610931 58.7712837,156.610931 Z" id="椭圆形" stroke="#979797" stroke-width="0.800000012" fill="#969A9E" transform="translate(61.310120, 151.548133) rotate(-37.000000) translate(-61.310120, -151.548133) "></path>
                        <g id="路径-53" transform="translate(0.492073, 0.441918)">
                            <mask id="mask-32" fill="white">
                                <use xlink:href="#path-31"></use>
                            </mask>
                            <use id="蒙版" fill="url(#linearGradient-30)" xlink:href="#path-31"></use>
                            <rect id="矩形" fill="url(#linearGradient-33)" mask="url(#mask-32)" x="-2" y="-3" width="85" height="53"></rect>
                            <path d="M73.3135901,151.806568 C73.321128,156.737478 73.8989131,160.125112 75.0469455,161.969471 C76.1949779,163.81383 77.9249987,165.215367 80.237008,166.174082 L84.6887563,160.106166 L84.6887563,49.5851769 C83.6992583,45.2771696 81.5514163,43.9597762 78.2452303,45.6329967 C74.9390442,47.3062172 73.4119423,48.8896035 73.6639245,50.3831557 L73.3135901,151.806568 Z" fill="url(#linearGradient-34)" mask="url(#mask-32)"></path>
                        </g>
                    </g>
                </g>
                <g id="编组-47" transform="translate(280.500000, 69.500000)">
                    <g id="编组-46" transform="translate(36.300001, 132.000002)">
                        <path d="M6.40558534,1.90197327 C8.72872334,0.151363221 11.0056561,-0.361993398 12.727628,0.243402362 L12.7623634,0.185119975 L13.2630506,0.477259113 C13.3433301,0.519718828 13.4220685,0.564974147 13.4992013,0.61301001 L23.8688784,6.64690754 L12.5644331,25.0871937 L1.6216876,18.7685418 L1.6687858,18.6893916 C0.917510665,18.009409 0.378719187,17.000174 0.137466243,15.6814977 C-0.666710237,11.2859103 2.13962227,5.11660702 6.40558534,1.90197327 Z" id="形状结合" fill="url(#linearGradient-28)"></path>
                        <path d="M15.0315264,23.2671335 C20.3730909,23.2671335 26.3271071,20.0290019 28.3301938,16.0345642 C30.3332804,12.0401264 27.6269094,8.80199487 22.285345,8.80199487 C16.9437805,8.80199487 10.9897643,12.0401264 8.98667766,16.0345642 C6.98359098,20.0290019 9.68996197,23.2671335 15.0315264,23.2671335 Z" id="椭圆形" fill="#969A9E" transform="translate(18.658436, 16.034564) rotate(-37.000000) translate(-18.658436, -16.034564) "></path>
                    </g>
                    <g id="编组-46" transform="translate(0.044000, 0.384000)">
                        <path d="M54.8839104,142.931383 C56.5098853,141.706123 58.1035254,141.346705 59.3088473,141.770211 L59.3336549,141.729586 L59.7222475,141.954632 C59.7593715,141.975032 59.7960117,141.9963 59.8321549,142.018434 L65.1042071,145.086902 L57.3457096,158.093145 L51.5351821,154.737981 L51.5687398,154.683109 C51.0425398,154.207116 50.6651672,153.500468 50.4962271,152.57705 C49.9333036,149.500139 51.8977363,145.181627 54.8839104,142.931383 Z" id="形状结合" fill="url(#linearGradient-29)"></path>
                        <path d="M58.7712837,156.610931 C62.5103787,156.610931 66.67819,154.344239 68.0803506,151.548133 C69.4825113,148.752027 67.5880516,146.485335 63.8489566,146.485335 C60.1098615,146.485335 55.9420503,148.752027 54.5398896,151.548133 C53.137729,154.344239 55.0321886,156.610931 58.7712837,156.610931 Z" id="椭圆形" stroke="#979797" stroke-width="0.800000012" fill="#969A9E" transform="translate(61.310120, 151.548133) rotate(-37.000000) translate(-61.310120, -151.548133) "></path>
                        <g id="路径-53" transform="translate(0.492073, 0.441918)">
                            <mask id="mask-36" fill="white">
                                <use xlink:href="#path-35"></use>
                            </mask>
                            <use id="蒙版" fill="url(#linearGradient-30)" xlink:href="#path-35"></use>
                            <rect id="矩形" fill="url(#linearGradient-33)" mask="url(#mask-36)" x="-2" y="-3" width="85" height="53"></rect>
                            <path d="M73.3135901,151.806568 C73.321128,156.737478 73.8989131,160.125112 75.0469455,161.969471 C76.1949779,163.81383 77.9249987,165.215367 80.237008,166.174082 L84.6887563,160.106166 L84.6887563,49.5851769 C83.6992583,45.2771696 81.5514163,43.9597762 78.2452303,45.6329967 C74.9390442,47.3062172 73.4119423,48.8896035 73.6639245,50.3831557 L73.3135901,151.806568 Z" fill="url(#linearGradient-34)" mask="url(#mask-36)"></path>
                        </g>
                    </g>
                </g>
                <g id="编组-47" transform="translate(246.500000, 88.500000)">
                    <g id="编组-46" transform="translate(36.300001, 132.000002)">
                        <path d="M6.40558534,1.90197327 C8.72872334,0.151363221 11.0056561,-0.361993398 12.727628,0.243402362 L12.7623634,0.185119975 L13.2630506,0.477259113 C13.3433301,0.519718828 13.4220685,0.564974147 13.4992013,0.61301001 L23.8688784,6.64690754 L12.5644331,25.0871937 L1.6216876,18.7685418 L1.6687858,18.6893916 C0.917510665,18.009409 0.378719187,17.000174 0.137466243,15.6814977 C-0.666710237,11.2859103 2.13962227,5.11660702 6.40558534,1.90197327 Z" id="形状结合" fill="url(#linearGradient-28)"></path>
                        <path d="M15.0315264,23.2671335 C20.3730909,23.2671335 26.3271071,20.0290019 28.3301938,16.0345642 C30.3332804,12.0401264 27.6269094,8.80199487 22.285345,8.80199487 C16.9437805,8.80199487 10.9897643,12.0401264 8.98667766,16.0345642 C6.98359098,20.0290019 9.68996197,23.2671335 15.0315264,23.2671335 Z" id="椭圆形" fill="#969A9E" transform="translate(18.658436, 16.034564) rotate(-37.000000) translate(-18.658436, -16.034564) "></path>
                    </g>
                    <g id="编组-46" transform="translate(0.044000, 0.384000)">
                        <path d="M54.8839104,142.931383 C56.5098853,141.706123 58.1035254,141.346705 59.3088473,141.770211 L59.3336549,141.729586 L59.7222475,141.954632 C59.7593715,141.975032 59.7960117,141.9963 59.8321549,142.018434 L65.1042071,145.086902 L57.3457096,158.093145 L51.5351821,154.737981 L51.5687398,154.683109 C51.0425398,154.207116 50.6651672,153.500468 50.4962271,152.57705 C49.9333036,149.500139 51.8977363,145.181627 54.8839104,142.931383 Z" id="形状结合" fill="url(#linearGradient-29)"></path>
                        <path d="M58.7712837,156.610931 C62.5103787,156.610931 66.67819,154.344239 68.0803506,151.548133 C69.4825113,148.752027 67.5880516,146.485335 63.8489566,146.485335 C60.1098615,146.485335 55.9420503,148.752027 54.5398896,151.548133 C53.137729,154.344239 55.0321886,156.610931 58.7712837,156.610931 Z" id="椭圆形" stroke="#979797" stroke-width="0.800000012" fill="#969A9E" transform="translate(61.310120, 151.548133) rotate(-37.000000) translate(-61.310120, -151.548133) "></path>
                        <g id="路径-53" transform="translate(0.492073, 0.441918)">
                            <mask id="mask-38" fill="white">
                                <use xlink:href="#path-37"></use>
                            </mask>
                            <use id="蒙版" fill="url(#linearGradient-30)" xlink:href="#path-37"></use>
                            <rect id="矩形" fill="url(#linearGradient-33)" mask="url(#mask-38)" x="-2" y="-3" width="85" height="53"></rect>
                            <path d="M73.3135901,151.806568 C73.321128,156.737478 73.8989131,160.125112 75.0469455,161.969471 C76.1949779,163.81383 77.9249987,165.215367 80.237008,166.174082 L84.6887563,160.106166 L84.6887563,49.5851769 C83.6992583,45.2771696 81.5514163,43.9597762 78.2452303,45.6329967 C74.9390442,47.3062172 73.4119423,48.8896035 73.6639245,50.3831557 L73.3135901,151.806568 Z" fill="url(#linearGradient-34)" mask="url(#mask-38)"></path>
                        </g>
                    </g>
                </g>
                <g id="编组-47" transform="translate(212.500000, 108.500000)">
                    <g id="编组-46" transform="translate(36.300001, 132.000002)">
                        <path d="M6.40558534,1.90197327 C8.72872334,0.151363221 11.0056561,-0.361993398 12.727628,0.243402362 L12.7623634,0.185119975 L13.2630506,0.477259113 C13.3433301,0.519718828 13.4220685,0.564974147 13.4992013,0.61301001 L23.8688784,6.64690754 L12.5644331,25.0871937 L1.6216876,18.7685418 L1.6687858,18.6893916 C0.917510665,18.009409 0.378719187,17.000174 0.137466243,15.6814977 C-0.666710237,11.2859103 2.13962227,5.11660702 6.40558534,1.90197327 Z" id="形状结合" fill="url(#linearGradient-28)"></path>
                        <path d="M15.0315264,23.2671335 C20.3730909,23.2671335 26.3271071,20.0290019 28.3301938,16.0345642 C30.3332804,12.0401264 27.6269094,8.80199487 22.285345,8.80199487 C16.9437805,8.80199487 10.9897643,12.0401264 8.98667766,16.0345642 C6.98359098,20.0290019 9.68996197,23.2671335 15.0315264,23.2671335 Z" id="椭圆形" fill="#969A9E" transform="translate(18.658436, 16.034564) rotate(-37.000000) translate(-18.658436, -16.034564) "></path>
                    </g>
                    <g id="编组-46" transform="translate(0.044000, 0.384000)">
                        <path d="M54.8839104,142.931383 C56.5098853,141.706123 58.1035254,141.346705 59.3088473,141.770211 L59.3336549,141.729586 L59.7222475,141.954632 C59.7593715,141.975032 59.7960117,141.9963 59.8321549,142.018434 L65.1042071,145.086902 L57.3457096,158.093145 L51.5351821,154.737981 L51.5687398,154.683109 C51.0425398,154.207116 50.6651672,153.500468 50.4962271,152.57705 C49.9333036,149.500139 51.8977363,145.181627 54.8839104,142.931383 Z" id="形状结合" fill="url(#linearGradient-29)"></path>
                        <path d="M58.7712837,156.610931 C62.5103787,156.610931 66.67819,154.344239 68.0803506,151.548133 C69.4825113,148.752027 67.5880516,146.485335 63.8489566,146.485335 C60.1098615,146.485335 55.9420503,148.752027 54.5398896,151.548133 C53.137729,154.344239 55.0321886,156.610931 58.7712837,156.610931 Z" id="椭圆形" stroke="#979797" stroke-width="0.800000012" fill="#969A9E" transform="translate(61.310120, 151.548133) rotate(-37.000000) translate(-61.310120, -151.548133) "></path>
                        <g id="路径-53" transform="translate(0.492073, 0.441918)">
                            <mask id="mask-40" fill="white">
                                <use xlink:href="#path-39"></use>
                            </mask>
                            <use id="蒙版" fill="url(#linearGradient-30)" xlink:href="#path-39"></use>
                            <rect id="矩形" fill="url(#linearGradient-33)" mask="url(#mask-40)" x="-2" y="-3" width="85" height="53"></rect>
                            <path d="M73.3135901,151.806568 C73.321128,156.737478 73.8989131,160.125112 75.0469455,161.969471 C76.1949779,163.81383 77.9249987,165.215367 80.237008,166.174082 L84.6887563,160.106166 L84.6887563,49.5851769 C83.6992583,45.2771696 81.5514163,43.9597762 78.2452303,45.6329967 C74.9390442,47.3062172 73.4119423,48.8896035 73.6639245,50.3831557 L73.3135901,151.806568 Z" fill="url(#linearGradient-34)" mask="url(#mask-40)"></path>
                        </g>
                    </g>
                </g>
                <g id="编组-47" transform="translate(178.500000, 127.500000)">
                    <g id="编组-46" transform="translate(36.300001, 132.000002)">
                        <path d="M6.40558534,1.90197327 C8.72872334,0.151363221 11.0056561,-0.361993398 12.727628,0.243402362 L12.7623634,0.185119975 L13.2630506,0.477259113 C13.3433301,0.519718828 13.4220685,0.564974147 13.4992013,0.61301001 L23.8688784,6.64690754 L12.5644331,25.0871937 L1.6216876,18.7685418 L1.6687858,18.6893916 C0.917510665,18.009409 0.378719187,17.000174 0.137466243,15.6814977 C-0.666710237,11.2859103 2.13962227,5.11660702 6.40558534,1.90197327 Z" id="形状结合" fill="url(#linearGradient-28)"></path>
                        <path d="M15.0315264,23.2671335 C20.3730909,23.2671335 26.3271071,20.0290019 28.3301938,16.0345642 C30.3332804,12.0401264 27.6269094,8.80199487 22.285345,8.80199487 C16.9437805,8.80199487 10.9897643,12.0401264 8.98667766,16.0345642 C6.98359098,20.0290019 9.68996197,23.2671335 15.0315264,23.2671335 Z" id="椭圆形" fill="#969A9E" transform="translate(18.658436, 16.034564) rotate(-37.000000) translate(-18.658436, -16.034564) "></path>
                    </g>
                    <g id="编组-46" transform="translate(0.044000, 0.384000)">
                        <path d="M54.8839104,142.931383 C56.5098853,141.706123 58.1035254,141.346705 59.3088473,141.770211 L59.3336549,141.729586 L59.7222475,141.954632 C59.7593715,141.975032 59.7960117,141.9963 59.8321549,142.018434 L65.1042071,145.086902 L57.3457096,158.093145 L51.5351821,154.737981 L51.5687398,154.683109 C51.0425398,154.207116 50.6651672,153.500468 50.4962271,152.57705 C49.9333036,149.500139 51.8977363,145.181627 54.8839104,142.931383 Z" id="形状结合" fill="url(#linearGradient-29)"></path>
                        <path d="M58.7712837,156.610931 C62.5103787,156.610931 66.67819,154.344239 68.0803506,151.548133 C69.4825113,148.752027 67.5880516,146.485335 63.8489566,146.485335 C60.1098615,146.485335 55.9420503,148.752027 54.5398896,151.548133 C53.137729,154.344239 55.0321886,156.610931 58.7712837,156.610931 Z" id="椭圆形" stroke="#979797" stroke-width="0.800000012" fill="#969A9E" transform="translate(61.310120, 151.548133) rotate(-37.000000) translate(-61.310120, -151.548133) "></path>
                        <g id="路径-53" transform="translate(0.492073, 0.441918)">
                            <mask id="mask-42" fill="white">
                                <use xlink:href="#path-41"></use>
                            </mask>
                            <use id="蒙版" fill="url(#linearGradient-30)" xlink:href="#path-41"></use>
                            <rect id="矩形" fill="url(#linearGradient-33)" mask="url(#mask-42)" x="-2" y="-3" width="85" height="53"></rect>
                            <path d="M73.3135901,151.806568 C73.321128,156.737478 73.8989131,160.125112 75.0469455,161.969471 C76.1949779,163.81383 77.9249987,165.215367 80.237008,166.174082 L84.6887563,160.106166 L84.6887563,49.5851769 C83.6992583,45.2771696 81.5514163,43.9597762 78.2452303,45.6329967 C74.9390442,47.3062172 73.4119423,48.8896035 73.6639245,50.3831557 L73.3135901,151.806568 Z" fill="url(#linearGradient-34)" mask="url(#mask-42)"></path>
                        </g>
                    </g>
                </g>
                <g id="编组-47" transform="translate(145.300002, 148.459061)">
                    <g id="编组-46" transform="translate(36.300001, 132.000002)">
                        <path d="M6.40558534,1.90197327 C8.72872334,0.151363221 11.0056561,-0.361993398 12.727628,0.243402362 L12.7623634,0.185119975 L13.2630506,0.477259113 C13.3433301,0.519718828 13.4220685,0.564974147 13.4992013,0.61301001 L23.8688784,6.64690754 L12.5644331,25.0871937 L1.6216876,18.7685418 L1.6687858,18.6893916 C0.917510665,18.009409 0.378719187,17.000174 0.137466243,15.6814977 C-0.666710237,11.2859103 2.13962227,5.11660702 6.40558534,1.90197327 Z" id="形状结合" fill="url(#linearGradient-28)"></path>
                        <path d="M15.0315264,23.2671335 C20.3730909,23.2671335 26.3271071,20.0290019 28.3301938,16.0345642 C30.3332804,12.0401264 27.6269094,8.80199487 22.285345,8.80199487 C16.9437805,8.80199487 10.9897643,12.0401264 8.98667766,16.0345642 C6.98359098,20.0290019 9.68996197,23.2671335 15.0315264,23.2671335 Z" id="椭圆形" fill="#969A9E" transform="translate(18.658436, 16.034564) rotate(-37.000000) translate(-18.658436, -16.034564) "></path>
                    </g>
                    <g id="编组-46" transform="translate(0.044000, 0.384000)">
                        <path d="M54.8839104,142.931383 C56.5098853,141.706123 58.1035254,141.346705 59.3088473,141.770211 L59.3336549,141.729586 L59.7222475,141.954632 C59.7593715,141.975032 59.7960117,141.9963 59.8321549,142.018434 L65.1042071,145.086902 L57.3457096,158.093145 L51.5351821,154.737981 L51.5687398,154.683109 C51.0425398,154.207116 50.6651672,153.500468 50.4962271,152.57705 C49.9333036,149.500139 51.8977363,145.181627 54.8839104,142.931383 Z" id="形状结合" fill="url(#linearGradient-29)"></path>
                        <path d="M58.7712837,156.610931 C62.5103787,156.610931 66.67819,154.344239 68.0803506,151.548133 C69.4825113,148.752027 67.5880516,146.485335 63.8489566,146.485335 C60.1098615,146.485335 55.9420503,148.752027 54.5398896,151.548133 C53.137729,154.344239 55.0321886,156.610931 58.7712837,156.610931 Z" id="椭圆形" stroke="#979797" stroke-width="0.800000012" fill="#969A9E" transform="translate(61.310120, 151.548133) rotate(-37.000000) translate(-61.310120, -151.548133) "></path>
                        <g id="路径-53" transform="translate(0.492073, 0.441918)">
                            <mask id="mask-44" fill="white">
                                <use xlink:href="#path-43"></use>
                            </mask>
                            <use id="蒙版" fill="url(#linearGradient-30)" xlink:href="#path-43"></use>
                            <rect id="矩形" fill="url(#linearGradient-33)" mask="url(#mask-44)" x="-2" y="-3" width="85" height="53"></rect>
                            <path d="M73.3135901,151.806568 C73.321128,156.737478 73.8989131,160.125112 75.0469455,161.969471 C76.1949779,163.81383 77.9249987,165.215367 80.237008,166.174082 L84.6887563,160.106166 L84.6887563,49.5851769 C83.6992583,45.2771696 81.5514163,43.9597762 78.2452303,45.6329967 C74.9390442,47.3062172 73.4119423,48.8896035 73.6639245,50.3831557 L73.3135901,151.806568 Z" fill="url(#linearGradient-34)" mask="url(#mask-44)"></path>
                        </g>
                    </g>
                </g>
            </g>
        </g>
    </g>
</svg>