<?xml version="1.0" encoding="UTF-8"?>
<svg width="333px" height="258px" viewBox="0 0 333 258" version="1.1" xmlns="http://www.w3.org/2000/svg" xmlns:xlink="http://www.w3.org/1999/xlink">
    <title>编组 84</title>
    <defs>
        <linearGradient x1="50%" y1="40.2955087%" x2="57.3851871%" y2="67.5588023%" id="linearGradient-1">
            <stop stop-color="#C2C6CB" offset="0%"></stop>
            <stop stop-color="#B0B2B6" offset="100%"></stop>
        </linearGradient>
        <polygon id="path-2" points="64 0 56 50.8564065 0 92.5 0 36.9752086"></polygon>
        <filter x="-3.8%" y="-3.6%" width="107.5%" height="107.2%" filterUnits="objectBoundingBox" id="filter-4">
            <feGaussianBlur stdDeviation="1" in="SourceGraphic"></feGaussianBlur>
        </filter>
        <linearGradient x1="95.5257299%" y1="34.5388112%" x2="-4.14218441%" y2="34.5388112%" id="linearGradient-5">
            <stop stop-color="#ACAEB1" offset="0%"></stop>
            <stop stop-color="#8F9192" offset="100%"></stop>
        </linearGradient>
        <filter x="-9.4%" y="-8.1%" width="118.8%" height="116.2%" filterUnits="objectBoundingBox" id="filter-6">
            <feGaussianBlur stdDeviation="1" in="SourceGraphic"></feGaussianBlur>
        </filter>
        <polygon id="path-7" points="0.5 0 8.5 50.8811978 48.5 75.5135972 48.5 27.7376043"></polygon>
        <filter x="-4.7%" y="-4.6%" width="109.4%" height="109.3%" filterUnits="objectBoundingBox" id="filter-9">
            <feGaussianBlur stdDeviation="1" in="SourceGraphic"></feGaussianBlur>
        </filter>
        <radialGradient cx="38.5455277%" cy="32.9365489%" fx="38.5455277%" fy="32.9365489%" r="109.902668%" gradientTransform="translate(0.385455,0.329365),scale(1.000000,0.609449),rotate(58.078577),scale(1.000000,1.033210),translate(-0.385455,-0.329365)" id="radialGradient-10">
            <stop stop-color="#DFE1E6" offset="0%"></stop>
            <stop stop-color="#85898F" offset="100%"></stop>
        </radialGradient>
        <path d="M5.35829073,12.7235068 C7.65927635,10.4552616 9.17296287,6.102202 8.73920419,3.00067601 C8.3054455,-0.100849984 6.08849721,-0.776357542 3.78751159,1.49188765 C1.48652596,3.76013284 -0.0271605534,8.11319247 0.406598129,11.2147185 C0.840356812,14.3162445 3.0573051,14.991752 5.35829073,12.7235068 Z" id="path-11"></path>
        <path d="M5.35829073,12.7235068 C7.65927635,10.4552616 9.17296287,6.102202 8.73920419,3.00067601 C8.3054455,-0.100849984 6.08849721,-0.776357542 3.78751159,1.49188765 C1.48652596,3.76013284 -0.0271605534,8.11319247 0.406598129,11.2147185 C0.840356812,14.3162445 3.0573051,14.991752 5.35829073,12.7235068 Z" id="path-13"></path>
        <linearGradient x1="60.2045137%" y1="26.6911685%" x2="31.4201484%" y2="69.165293%" id="linearGradient-15">
            <stop stop-color="#A6A9AE" offset="0%"></stop>
            <stop stop-color="#E4E9F1" offset="12.4229748%"></stop>
            <stop stop-color="#717479" offset="72.7674837%"></stop>
            <stop stop-color="#B7BAC0" offset="100%"></stop>
        </linearGradient>
        <linearGradient x1="73.2573722%" y1="25.6340699%" x2="1.42108547e-12%" y2="64.5983577%" id="linearGradient-16">
            <stop stop-color="#DFE2E6" offset="0%"></stop>
            <stop stop-color="#989B9F" offset="100%"></stop>
        </linearGradient>
        <linearGradient x1="100%" y1="50%" x2="0%" y2="50%" id="linearGradient-17">
            <stop stop-color="#E3E5E9" offset="0%"></stop>
            <stop stop-color="#DDDFE2" offset="100%"></stop>
        </linearGradient>
        <linearGradient x1="50%" y1="42.4348541%" x2="59.4215567%" y2="62.9043886%" id="linearGradient-18">
            <stop stop-color="#C2C6CB" offset="0%"></stop>
            <stop stop-color="#B0B2B6" offset="100%"></stop>
        </linearGradient>
        <polygon id="path-19" points="1.13686838e-13 37.8564065 96 0.871901077 96 37.8564065 1.13686838e-13 85.6323994"></polygon>
        <filter x="-3.1%" y="-4.1%" width="106.2%" height="108.1%" filterUnits="objectBoundingBox" id="filter-21">
            <feGaussianBlur stdDeviation="1" in="SourceGraphic"></feGaussianBlur>
        </filter>
        <linearGradient x1="95.5257299%" y1="34.5388112%" x2="-4.14218441%" y2="34.5388112%" id="linearGradient-22">
            <stop stop-color="#ACAEB1" offset="0%"></stop>
            <stop stop-color="#8F9192" offset="100%"></stop>
        </linearGradient>
        <linearGradient x1="100%" y1="36.3668097%" x2="3.87491268%" y2="62.5200897%" id="linearGradient-23">
            <stop stop-color="#A6A8AB" offset="0%"></stop>
            <stop stop-color="#C2C6CB" offset="100%"></stop>
        </linearGradient>
        <linearGradient x1="1.81458968%" y1="41.0489276%" x2="100%" y2="56.9707951%" id="linearGradient-24">
            <stop stop-color="#74787C" offset="0%"></stop>
            <stop stop-color="#A9ACAF" offset="100%"></stop>
        </linearGradient>
        <radialGradient cx="38.5455277%" cy="32.9365489%" fx="38.5455277%" fy="32.9365489%" r="100.805347%" gradientTransform="translate(0.385455,0.329365),scale(0.698082,1.000000),rotate(34.330630),scale(1.000000,1.033210),translate(-0.385455,-0.329365)" id="radialGradient-25">
            <stop stop-color="#DFE1E6" offset="0%"></stop>
            <stop stop-color="#85898F" offset="100%"></stop>
        </radialGradient>
        <path d="M6.76330872,13.7152911 C10.54901,13.727871 14.7611452,11.4513213 16.1713759,8.6304751 C17.5816066,5.80962889 15.6559073,3.51268321 11.8702059,3.50010335 C8.08450463,3.48752348 3.87236948,5.76407315 2.46213875,8.58491937 C1.05190802,11.4057656 2.97760741,13.7027113 6.76330872,13.7152911 Z" id="path-26"></path>
        <path d="M6.76330872,13.7152911 C10.54901,13.727871 14.7611452,11.4513213 16.1713759,8.6304751 C17.5816066,5.80962889 15.6559073,3.51268321 11.8702059,3.50010335 C8.08450463,3.48752348 3.87236948,5.76407315 2.46213875,8.58491937 C1.05190802,11.4057656 2.97760741,13.7027113 6.76330872,13.7152911 Z" id="path-28"></path>
        <linearGradient x1="95.5257299%" y1="34.5388112%" x2="-4.14218441%" y2="34.5388112%" id="linearGradient-30">
            <stop stop-color="#ACAEB1" offset="0%"></stop>
            <stop stop-color="#8F9192" offset="100%"></stop>
        </linearGradient>
        <radialGradient cx="57.9608818%" cy="52.5087564%" fx="57.9608818%" fy="52.5087564%" r="27.3161411%" gradientTransform="translate(0.579609,0.525088),scale(0.578102,1.000000),rotate(-117.323071),scale(1.000000,5.069516),translate(-0.579609,-0.525088)" id="radialGradient-31">
            <stop stop-color="#B62227" offset="0%"></stop>
            <stop stop-color="#FFBB3E" offset="100%"></stop>
        </radialGradient>
        <polygon id="path-32" points="0 129.5 40 152.643594 136 106.381198 168 115.643594 200 97.1435935 184 78.6435935 264 23.1435935 224 0.0247913859"></polygon>
        <linearGradient x1="50%" y1="40.2955087%" x2="60.0502645%" y2="67.5588023%" id="linearGradient-34">
            <stop stop-color="#C2C6CB" offset="0%"></stop>
            <stop stop-color="#B0B2B6" offset="100%"></stop>
        </linearGradient>
        <polygon id="path-35" points="0.5 70.1188022 48.5 42.375 56.5 0.737604307 0.5 33.1188022"></polygon>
        <filter x="-4.7%" y="-4.6%" width="109.4%" height="109.3%" filterUnits="objectBoundingBox" id="filter-37">
            <feGaussianBlur stdDeviation="1" in="SourceGraphic"></feGaussianBlur>
        </filter>
        <linearGradient x1="50%" y1="25.6340699%" x2="39.6392702%" y2="74.3659301%" id="linearGradient-38">
            <stop stop-color="#74787C" offset="0%"></stop>
            <stop stop-color="#989B9F" offset="100%"></stop>
        </linearGradient>
        <path d="M6.76330872,13.7152911 C10.54901,13.727871 14.7611452,11.4513213 16.1713759,8.6304751 C17.5816066,5.80962889 15.6559073,3.51268321 11.8702059,3.50010335 C8.08450463,3.48752348 3.87236948,5.76407315 2.46213875,8.58491937 C1.05190802,11.4057656 2.97760741,13.7027113 6.76330872,13.7152911 Z" id="path-39"></path>
        <path d="M6.76330872,13.7152911 C10.54901,13.727871 14.7611452,11.4513213 16.1713759,8.6304751 C17.5816066,5.80962889 15.6559073,3.51268321 11.8702059,3.50010335 C8.08450463,3.48752348 3.87236948,5.76407315 2.46213875,8.58491937 C1.05190802,11.4057656 2.97760741,13.7027113 6.76330872,13.7152911 Z" id="path-41"></path>
    </defs>
    <g id="-" stroke="none" stroke-width="1" fill="none" fill-rule="evenodd">
        <g id="画板" transform="translate(-2035.000000, -960.000000)">
            <g id="编组-84" transform="translate(2035.000000, 960.762396)">
                <g id="路径-183" transform="translate(241.500000, 83.237604)">
                    <mask id="mask-3" fill="white">
                        <use xlink:href="#path-2"></use>
                    </mask>
                    <use id="蒙版" fill="url(#linearGradient-1)" xlink:href="#path-2"></use>
                    <polygon fill-opacity="0.2" fill="#000000" filter="url(#filter-4)" mask="url(#mask-3)" points="93.5 -31 93.5 -3.26239569 13.5 52.2376043 13.5 24.5"></polygon>
                </g>
                <polygon id="路径-187" fill="url(#linearGradient-5)" points="169.5 208.094011 169.5 171.109505 201.5 180.356406 201.5 217.356406"></polygon>
                <polygon id="路径-181" fill-opacity="0.2" fill="#000000" filter="url(#filter-6)" points="171 156.237604 171 183.987604 203 193.243802 203 165.487604"></polygon>
                <g id="路径-173" transform="translate(25.000000, 180.356406)">
                    <mask id="mask-8" fill="white">
                        <use xlink:href="#path-7"></use>
                    </mask>
                    <use id="蒙版" fill="#74787C" xlink:href="#path-7"></use>
                    <polygon fill-opacity="0.2" fill="#000000" filter="url(#filter-9)" mask="url(#mask-8)" points="-3 -7.11880215 -3 20.6188022 61 57.6435935 61 29.8811978"></polygon>
                </g>
                <polygon id="路径-183" fill="#C2C6CB" points="329.5 50.8564065 329.5 78.5940108 249.5 134.094011 249.5 106.356406"></polygon>
                <g id="椭圆形" transform="translate(307.500000, 69.237604)">
                    <mask id="mask-12" fill="white">
                        <use xlink:href="#path-11"></use>
                    </mask>
                    <use id="蒙版" fill="url(#radialGradient-10)" xlink:href="#path-11"></use>
                    <path d="M3.83997252,11.7235068 C6.14095814,9.45526163 7.65464466,5.102202 7.22088598,2.00067601 C6.78712729,-1.10084998 4.570179,-1.77635754 2.26919338,0.491887649 C-0.0317922492,2.76013284 -1.54547876,7.11319247 -1.11172008,10.2147185 C-0.677961398,13.3162445 1.53898689,13.991752 3.83997252,11.7235068 Z" fill="#808080" mask="url(#mask-12)"></path>
                </g>
                <g id="椭圆形" transform="translate(284.000000, 88.237604)">
                    <mask id="mask-14" fill="white">
                        <use xlink:href="#path-13"></use>
                    </mask>
                    <use id="蒙版" fill="url(#radialGradient-10)" xlink:href="#path-13"></use>
                    <path d="M3.83997252,11.7235068 C6.14095814,9.45526163 7.65464466,5.102202 7.22088598,2.00067601 C6.78712729,-1.10084998 4.570179,-1.77635754 2.26919338,0.491887649 C-0.0317922492,2.76013284 -1.54547876,7.11319247 -1.11172008,10.2147185 C-0.677961398,13.3162445 1.53898689,13.991752 3.83997252,11.7235068 Z" fill="#808080" mask="url(#mask-14)"></path>
                </g>
                <g id="编组-78" transform="translate(257.000000, 103.237604)">
                    <path d="M4.89999992,1.41196707 C6.7467258,-0.00593737826 8.55172899,-0.285507401 9.79316153,0.449409557 L9.79507524,0.446903814 L27.2999995,10.4999998 L19.5437216,23.7482252 L1.99883335,13.6973218 C1.25759493,13.2377074 0.72394056,12.408686 0.513571861,11.2370929 C-0.0491906235,8.10293542 1.91468011,3.70407674 4.89999992,1.41196707 Z" id="形状结合" fill="url(#linearGradient-15)"></path>
                    <path d="M20.7641699,22.1748002 C24.5498712,22.1873801 28.7620063,19.9108304 30.1722371,17.0899842 C31.5824678,14.269138 29.6567684,11.9721923 25.8710671,11.9596124 C22.0853658,11.9470325 17.8732306,14.2235822 16.4629999,17.0444284 C15.0527692,19.8652747 16.9784685,22.1622203 20.7641699,22.1748002 Z" id="椭圆形" fill="url(#linearGradient-16)" transform="translate(23.317618, 17.067206) rotate(-37.000000) translate(-23.317618, -17.067206) "></path>
                </g>
                <g id="编组-78" transform="translate(316.000000, 47.737604) scale(-1, 1) translate(-316.000000, -47.737604) translate(299.500000, 34.737604)">
                    <path d="M4.89999992,1.41196707 C6.7467258,-0.00593737826 8.55172899,-0.285507401 9.79316153,0.449409557 L9.79507524,0.446903814 L27.2999995,10.4999998 L19.5437216,23.7482252 L1.99883335,13.6973218 C1.25759493,13.2377074 0.72394056,12.408686 0.513571861,11.2370929 C-0.0491906235,8.10293542 1.91468011,3.70407674 4.89999992,1.41196707 Z" id="形状结合" fill="url(#linearGradient-15)"></path>
                    <path d="M20.7641699,22.1748002 C24.5498712,22.1873801 28.7620063,19.9108304 30.1722371,17.0899842 C31.5824678,14.269138 29.6567684,11.9721923 25.8710671,11.9596124 C22.0853658,11.9470325 17.8732306,14.2235822 16.4629999,17.0444284 C15.0527692,19.8652747 16.9784685,22.1622203 20.7641699,22.1748002 Z" id="椭圆形" stroke="#979797" stroke-width="0.5" fill="#D8D8D8" transform="translate(23.317618, 17.067206) rotate(-37.000000) translate(-23.317618, -17.067206) "></path>
                </g>
                <g id="编组-78" transform="translate(290.500000, 31.237604) scale(-1, 1) translate(-290.500000, -31.237604) translate(274.000000, 18.237604)">
                    <path d="M4.89999992,1.41196707 C6.7467258,-0.00593737826 8.55172899,-0.285507401 9.79316153,0.449409557 L9.79507524,0.446903814 L27.2999995,10.4999998 L19.5437216,23.7482252 L1.99883335,13.6973218 C1.25759493,13.2377074 0.72394056,12.408686 0.513571861,11.2370929 C-0.0491906235,8.10293542 1.91468011,3.70407674 4.89999992,1.41196707 Z" id="形状结合" fill="url(#linearGradient-15)"></path>
                    <path d="M20.7641699,22.1748002 C24.5498712,22.1873801 28.7620063,19.9108304 30.1722371,17.0899842 C31.5824678,14.269138 29.6567684,11.9721923 25.8710671,11.9596124 C22.0853658,11.9470325 17.8732306,14.2235822 16.4629999,17.0444284 C15.0527692,19.8652747 16.9784685,22.1622203 20.7641699,22.1748002 Z" id="椭圆形" stroke="#979797" stroke-width="0.5" fill="#D8D8D8" transform="translate(23.317618, 17.067206) rotate(-37.000000) translate(-23.317618, -17.067206) "></path>
                </g>
                <polygon id="路径-177" fill="#CBCED2" points="265.5 124.856406 249.5 124.856406 233.5 106.356406 249.5 106.356406"></polygon>
                <polygon id="路径-178" fill="#CBCED2" points="249.5 106.356406 329.5 50.8564065 313.5 50.8564065 233.5 106.356406"></polygon>
                <polygon id="路径-179" fill="#CBCED2" points="329.5 50.8564065 249.5 4.59401077 241.5 9.23760431 313.5 50.8564065"></polygon>
                <polygon id="路径-171" fill="#C2C6CB" points="313.5 32.3564065 313.5 50.8564065 233.5 106.356406 233.5 87.8564065"></polygon>
                <polygon id="路径-58" fill="url(#linearGradient-17)" points="17.5 138.712813 257.061183 0 313.5 32.3564065 233.5 87.8564065 249.5 106.356406 201.5 134.118802 169.5 124.856406 73.5 171.069219"></polygon>
                <polygon id="路径-167" fill="#74787C" points="17.5 138.737604 17.5 157.237604 73.5 189.594011 73.5 171.094011"></polygon>
                <g id="路径-180" transform="translate(73.500000, 170.237604)">
                    <mask id="mask-20" fill="white">
                        <use xlink:href="#path-19"></use>
                    </mask>
                    <use id="蒙版" fill="url(#linearGradient-18)" xlink:href="#path-19"></use>
                    <polygon fill-opacity="0.2" fill="#000000" filter="url(#filter-21)" mask="url(#mask-20)" points="-0.5 62.0123957 -0.5 34.25 95.5 -12 95.5 15.75"></polygon>
                </g>
                <polygon id="路径-168" fill="#C2C6CB" points="73.5 171.094011 73.5 189.594011 169.5 143.356406 169.5 124.856406"></polygon>
                <polygon id="路径-169" fill="url(#linearGradient-22)" points="169.5 124.856406 169.5 143.356406 201.5 152.594011 201.5 134.094011"></polygon>
                <polygon id="路径-170" fill="#C2C6CB" points="201.5 152.594011 201.5 134.094011 249.5 106.356406 249.5 124.856406"></polygon>
                <polygon id="路径-172" fill="#B8BCC0" points="17.5 157.237604 9.5 161.856406 73.5 198.856406 73.5 189.594011"></polygon>
                <polygon id="路径-173" fill="#74787C" points="9.5 161.856406 9.5 189.594011 73.5 226.618802 73.5 198.856406"></polygon>
                <polygon id="路径-174" fill="url(#linearGradient-23)" points="73.5 198.856406 73.5 189.594011 169.5 143.356406 169.5 152.594011"></polygon>
                <polygon id="路径-175" fill="url(#linearGradient-24)" points="169.5 143.356406 169.5 152.594011 201.5 161.856406 201.5 152.606406"></polygon>
                <polygon id="路径-176" fill="#CBCED2" points="201.5 161.856406 201.5 152.594011 249.5 124.856406 265.5 124.856406"></polygon>
                <polygon id="路径-180" fill="#C2C6CB" points="73.5 226.618802 73.5 198.856406 169.5 152.606406 169.5 180.356406"></polygon>
                <g id="椭圆形" transform="translate(84.000000, 195.237604)">
                    <mask id="mask-27" fill="white">
                        <use xlink:href="#path-26"></use>
                    </mask>
                    <use id="蒙版" fill="url(#radialGradient-25)" transform="translate(9.316757, 8.607697) rotate(-37.000000) translate(-9.316757, -8.607697) " xlink:href="#path-26"></use>
                    <path d="M4.76330872,12.7152911 C8.54901003,12.727871 12.7611452,10.4513213 14.1713759,7.6304751 C15.5816066,4.80962889 13.6559073,2.51268321 9.87020594,2.50010335 C6.08450463,2.48752348 1.87236948,4.76407315 0.46213875,7.58491937 C-0.948091978,10.4057656 0.977607412,12.7027113 4.76330872,12.7152911 Z" fill="#808080" mask="url(#mask-27)" transform="translate(7.316757, 7.607697) rotate(-37.000000) translate(-7.316757, -7.607697) "></path>
                </g>
                <g id="椭圆形" transform="translate(112.500000, 181.737604)">
                    <mask id="mask-29" fill="white">
                        <use xlink:href="#path-28"></use>
                    </mask>
                    <use id="蒙版" fill="url(#radialGradient-25)" transform="translate(9.316757, 8.607697) rotate(-37.000000) translate(-9.316757, -8.607697) " xlink:href="#path-28"></use>
                    <path d="M4.76330872,12.7152911 C8.54901003,12.727871 12.7611452,10.4513213 14.1713759,7.6304751 C15.5816066,4.80962889 13.6559073,2.51268321 9.87020594,2.50010335 C6.08450463,2.48752348 1.87236948,4.76407315 0.46213875,7.58491937 C-0.948091978,10.4057656 0.977607412,12.7027113 4.76330872,12.7152911 Z" fill="#808080" mask="url(#mask-29)" transform="translate(7.316757, 7.607697) rotate(-37.000000) translate(-7.316757, -7.607697) "></path>
                </g>
                <polygon id="路径-181" fill="url(#linearGradient-30)" points="169.5 152.606406 169.5 180.356406 201.5 189.612604 201.5 161.856406"></polygon>
                <g id="路径-190-+-路径-191-+-路径-192-蒙版" transform="translate(33.500000, 9.212813)">
                    <mask id="mask-33" fill="white">
                        <use xlink:href="#path-32"></use>
                    </mask>
                    <use id="蒙版" fill="url(#radialGradient-31)" xlink:href="#path-32"></use>
                    <polygon id="路径-190" fill="#C2C6CB" mask="url(#mask-33)" points="0 129.524791 0 138.762396 224 9.26239569 224 0.0247913859"></polygon>
                    <polygon id="路径-191" fill="#A6A9AD" mask="url(#mask-33)" points="224 9.26239569 264 32.3811978 264 23.1435935 224 -1.79751757e-15"></polygon>
                    <polygon id="路径-192" mask="url(#mask-33)" points="8.24483273 133.995852 224 9.26239569 256.779211 28.2547878 184 78.6435935 200 97.1435935 168 115.643594 136 106.393594 40 152.643594"></polygon>
                </g>
                <g id="路径-182" transform="translate(201.000000, 147.237604)">
                    <mask id="mask-36" fill="white">
                        <use xlink:href="#path-35"></use>
                    </mask>
                    <use id="蒙版" fill="url(#linearGradient-34)" xlink:href="#path-35"></use>
                    <polygon fill-opacity="0.2" fill="#000000" filter="url(#filter-37)" mask="url(#mask-36)" points="0 46.7561978 0 19 64 -18 64 9.75"></polygon>
                </g>
                <polygon id="路径-182" fill="#C2C6CB" points="201.5 189.612604 201.5 161.856406 265.5 124.856406 265.5 152.606406"></polygon>
                <g id="编组-78" transform="translate(43.500000, 207.237604) scale(-1, 1) translate(-43.500000, -207.237604) translate(27.000000, 194.237604)">
                    <path d="M4.89999992,1.41196707 C6.7467258,-0.00593737826 8.55172899,-0.285507401 9.79316153,0.449409557 L9.79507524,0.446903814 L27.2999995,10.4999998 L19.5437216,23.7482252 L1.99883335,13.6973218 C1.25759493,13.2377074 0.72394056,12.408686 0.513571861,11.2370929 C-0.0491906235,8.10293542 1.91468011,3.70407674 4.89999992,1.41196707 Z" id="形状结合" fill="url(#linearGradient-15)"></path>
                    <path d="M20.7641699,22.1748002 C24.5498712,22.1873801 28.7620063,19.9108304 30.1722371,17.0899842 C31.5824678,14.269138 29.6567684,11.9721923 25.8710671,11.9596124 C22.0853658,11.9470325 17.8732306,14.2235822 16.4629999,17.0444284 C15.0527692,19.8652747 16.9784685,22.1622203 20.7641699,22.1748002 Z" id="椭圆形" fill="url(#linearGradient-38)" transform="translate(23.317618, 17.067206) rotate(-37.000000) translate(-23.317618, -17.067206) "></path>
                </g>
                <g id="编组-78" transform="translate(16.500000, 191.237604) scale(-1, 1) translate(-16.500000, -191.237604) translate(0.000000, 178.237604)">
                    <path d="M4.89999992,1.41196707 C6.7467258,-0.00593737826 8.55172899,-0.285507401 9.79316153,0.449409557 L9.79507524,0.446903814 L27.2999995,10.4999998 L19.5437216,23.7482252 L1.99883335,13.6973218 C1.25759493,13.2377074 0.72394056,12.408686 0.513571861,11.2370929 C-0.0491906235,8.10293542 1.91468011,3.70407674 4.89999992,1.41196707 Z" id="形状结合" fill="url(#linearGradient-15)"></path>
                    <path d="M20.7641699,22.1748002 C24.5498712,22.1873801 28.7620063,19.9108304 30.1722371,17.0899842 C31.5824678,14.269138 29.6567684,11.9721923 25.8710671,11.9596124 C22.0853658,11.9470325 17.8732306,14.2235822 16.4629999,17.0444284 C15.0527692,19.8652747 16.9784685,22.1622203 20.7641699,22.1748002 Z" id="椭圆形" fill="url(#linearGradient-38)" transform="translate(23.317618, 17.067206) rotate(-37.000000) translate(-23.317618, -17.067206) "></path>
                </g>
                <g id="编组-78" transform="translate(143.500000, 166.237604)">
                    <path d="M4.89999992,1.41196707 C6.7467258,-0.00593737826 8.55172899,-0.285507401 9.79316153,0.449409557 L9.79507524,0.446903814 L27.2999995,10.4999998 L19.5437216,23.7482252 L1.99883335,13.6973218 C1.25759493,13.2377074 0.72394056,12.408686 0.513571861,11.2370929 C-0.0491906235,8.10293542 1.91468011,3.70407674 4.89999992,1.41196707 Z" id="形状结合" fill="url(#linearGradient-15)"></path>
                    <path d="M20.7641699,22.1748002 C24.5498712,22.1873801 28.7620063,19.9108304 30.1722371,17.0899842 C31.5824678,14.269138 29.6567684,11.9721923 25.8710671,11.9596124 C22.0853658,11.9470325 17.8732306,14.2235822 16.4629999,17.0444284 C15.0527692,19.8652747 16.9784685,22.1622203 20.7641699,22.1748002 Z" id="椭圆形" fill="url(#linearGradient-16)" transform="translate(23.317618, 17.067206) rotate(-37.000000) translate(-23.317618, -17.067206) "></path>
                </g>
                <g id="椭圆形" transform="translate(209.000000, 157.237604)">
                    <mask id="mask-40" fill="white">
                        <use xlink:href="#path-39"></use>
                    </mask>
                    <use id="蒙版" fill="url(#radialGradient-25)" transform="translate(9.316757, 8.607697) rotate(-37.000000) translate(-9.316757, -8.607697) " xlink:href="#path-39"></use>
                    <path d="M4.76330872,12.7152911 C8.54901003,12.727871 12.7611452,10.4513213 14.1713759,7.6304751 C15.5816066,4.80962889 13.6559073,2.51268321 9.87020594,2.50010335 C6.08450463,2.48752348 1.87236948,4.76407315 0.46213875,7.58491937 C-0.948091978,10.4057656 0.977607412,12.7027113 4.76330872,12.7152911 Z" fill="#808080" mask="url(#mask-40)" transform="translate(7.316757, 7.607697) rotate(-37.000000) translate(-7.316757, -7.607697) "></path>
                </g>
                <g id="椭圆形" transform="translate(239.500000, 140.237604)">
                    <mask id="mask-42" fill="white">
                        <use xlink:href="#path-41"></use>
                    </mask>
                    <use id="蒙版" fill="url(#radialGradient-25)" transform="translate(9.316757, 8.607697) rotate(-37.000000) translate(-9.316757, -8.607697) " xlink:href="#path-41"></use>
                    <path d="M4.76330872,12.7152911 C8.54901003,12.727871 12.7611452,10.4513213 14.1713759,7.6304751 C15.5816066,4.80962889 13.6559073,2.51268321 9.87020594,2.50010335 C6.08450463,2.48752348 1.87236948,4.76407315 0.46213875,7.58491937 C-0.948091978,10.4057656 0.977607412,12.7027113 4.76330872,12.7152911 Z" fill="#808080" mask="url(#mask-42)" transform="translate(7.316757, 7.607697) rotate(-37.000000) translate(-7.316757, -7.607697) "></path>
                </g>
            </g>
        </g>
    </g>
</svg>