<?xml version="1.0" encoding="UTF-8"?>
<svg width="334px" height="347px" viewBox="0 0 334 347" version="1.1" xmlns="http://www.w3.org/2000/svg" xmlns:xlink="http://www.w3.org/1999/xlink">
    <title>轧机</title>
    <defs>
        <linearGradient x1="50%" y1="18.7198145%" x2="69.6937702%" y2="50%" id="linearGradient-1">
            <stop stop-color="#D4D5D5" offset="0%"></stop>
            <stop stop-color="#717171" offset="100%"></stop>
        </linearGradient>
        <linearGradient x1="7.77486952%" y1="11.3339969%" x2="107.039869%" y2="11.3339969%" id="linearGradient-2">
            <stop stop-color="#8F9398" offset="0%"></stop>
            <stop stop-color="#989CA1" offset="29.9689796%"></stop>
            <stop stop-color="#37383A" offset="83.9546403%"></stop>
            <stop stop-color="#8F9195" offset="100%"></stop>
        </linearGradient>
        <linearGradient x1="61.3996495%" y1="5.37266342%" x2="40.1482358%" y2="96.7920201%" id="linearGradient-3">
            <stop stop-color="#9CA0A5" offset="0%"></stop>
            <stop stop-color="#6F7275" offset="14.843438%"></stop>
            <stop stop-color="#D4D8DE" offset="39.3074504%"></stop>
            <stop stop-color="#737579" offset="68.4333261%"></stop>
            <stop stop-color="#636467" offset="100%"></stop>
        </linearGradient>
        <linearGradient x1="7.77486952%" y1="11.3339969%" x2="107.039869%" y2="11.3339969%" id="linearGradient-4">
            <stop stop-color="#8F9398" offset="0%"></stop>
            <stop stop-color="#989CA1" offset="29.9689796%"></stop>
            <stop stop-color="#37383A" offset="83.9546403%"></stop>
            <stop stop-color="#8F9195" offset="100%"></stop>
        </linearGradient>
        <linearGradient x1="78.5343463%" y1="35.6537073%" x2="29.7118908%" y2="68.0204876%" id="linearGradient-5">
            <stop stop-color="#5692ED" offset="0%"></stop>
            <stop stop-color="#1F4988" offset="74.7082272%"></stop>
            <stop stop-color="#5692ED" offset="100%"></stop>
        </linearGradient>
        <linearGradient x1="100%" y1="50%" x2="0%" y2="50%" id="linearGradient-6">
            <stop stop-color="#5692ED" offset="0%"></stop>
            <stop stop-color="#1F4988" offset="75.9183716%"></stop>
            <stop stop-color="#2F62AE" offset="100%"></stop>
        </linearGradient>
        <linearGradient x1="76.9391066%" y1="34.7521727%" x2="28.4829992%" y2="68.4140767%" id="linearGradient-7">
            <stop stop-color="#5692ED" offset="0%"></stop>
            <stop stop-color="#1F4988" offset="80.3476129%"></stop>
            <stop stop-color="#5692ED" offset="100%"></stop>
        </linearGradient>
        <linearGradient x1="68.5128697%" y1="40.0616623%" x2="28.3713723%" y2="51.4988844%" id="linearGradient-8">
            <stop stop-color="#5692ED" offset="0%"></stop>
            <stop stop-color="#245194" offset="100%"></stop>
        </linearGradient>
        <linearGradient x1="51.948063%" y1="33.8988088%" x2="33.6401613%" y2="58.6419336%" id="linearGradient-9">
            <stop stop-color="#B8BAC0" offset="0%"></stop>
            <stop stop-color="#D4D8DE" offset="30.2014899%"></stop>
            <stop stop-color="#636467" offset="87.2729698%"></stop>
            <stop stop-color="#A9ACB0" offset="100%"></stop>
        </linearGradient>
        <linearGradient x1="71.5160177%" y1="9.11683614%" x2="28.5684656%" y2="88.0536034%" id="linearGradient-10">
            <stop stop-color="#8F9398" offset="0%"></stop>
            <stop stop-color="#989CA1" offset="29.9689796%"></stop>
            <stop stop-color="#37383A" offset="87.5802178%"></stop>
            <stop stop-color="#8F9195" offset="100%"></stop>
        </linearGradient>
        <linearGradient x1="100%" y1="50%" x2="0%" y2="50%" id="linearGradient-11">
            <stop stop-color="#7F8185" offset="0%"></stop>
            <stop stop-color="#323335" offset="100%"></stop>
        </linearGradient>
    </defs>
    <g id="-" stroke="none" stroke-width="1" fill="none" fill-rule="evenodd">
        <g id="画板" transform="translate(-2565.000000, -906.000000)">
            <g id="轧机" transform="translate(2565.000000, 906.500000)">
                <g id="编组-39" transform="translate(105.000000, 0.500000)">
                    <g id="编组-38" transform="translate(0.000000, 0.500000)">
                        <g id="编组-35" transform="translate(69.250000, 118.250000)">
                            <polygon id="路径-102" fill="#94979C" points="0 11.6089838 19.626762 -2.22044605e-15 60 23.1559892 40.0937495 34.7029946"></polygon>
                            <polygon id="路径-103" fill="#6E7074" points="0 11.6089838 0 34.7029946 40 57.8589838 40.0937495 34.7339838"></polygon>
                            <polygon id="路径-104" fill="#6B6D70" points="40.0937495 57.8589838 60 46.25 60 23.1559892 40.0937495 34.7029946"></polygon>
                        </g>
                        <polygon id="路径-101" fill="#A9AAAB" points="88.8302332 71.9148443 105 62.7899012 105 142.142456 88.75 151.946311"></polygon>
                        <polygon id="路径-105" fill="url(#linearGradient-1)" points="96.875 147.017277 96.875 159.382925 46.3437495 186.985027 46.3437495 175.797005"></polygon>
                        <g id="编组-32" transform="translate(35.000000, 101.750000)">
                            <polygon id="路径-49" fill="#1F4988" points="33.9374988 0 4.74398297e-13 19.9380215 20.0937495 31.5470054 53.5312495 11.4803687"></polygon>
                            <polygon id="路径-52" fill="#2F62AE" points="20.0937495 31.5470054 20.1874991 69.6720054 53.7187483 50.2970054 53.7187483 11.4803687"></polygon>
                            <polygon id="路径-52" fill="#D8D8D8" transform="translate(10.046875, 44.523503) scale(-1, 1) translate(-10.046875, -44.523503) " points="0.0937495381 31.5470054 -2.35367216e-14 69.6720054 20.0937495 57.5 20.0937495 19.375"></polygon>
                        </g>
                        <g id="编组-35" transform="translate(0.000000, 160.438022)">
                            <polygon id="路径-102" fill="#94979C" points="0 11.6089838 19.626762 -2.22044605e-15 60 23.1559892 40.0937495 34.7029946"></polygon>
                            <polygon id="路径-103" fill="#6E7074" points="0 11.6089838 0 34.7029946 40 57.8589838 40.0937495 34.7339838"></polygon>
                            <polygon id="路径-104" fill="#6B6D70" points="40.0937495 57.8589838 60 46.25 60 23.1559892 40.0937495 34.7029946"></polygon>
                        </g>
                        <g id="编组-32" transform="translate(35.000000, 56.750000)">
                            <polygon id="路径-49" fill="#1F4988" points="33.9374988 0 4.74398297e-13 19.9380215 20.0937495 31.5470054 53.5312495 11.4803687"></polygon>
                            <polygon id="路径-52" fill="#2F62AE" points="20.0937495 31.5470054 20.1874991 69.6720054 53.7187483 50.2970054 53.7187483 11.4803687"></polygon>
                            <polygon id="路径-52" fill="#D8D8D8" transform="translate(10.046875, 44.523503) scale(-1, 1) translate(-10.046875, -44.523503) " points="0.0937495381 31.5470054 -2.35367216e-14 69.6720054 20.0937495 57.5 20.0937495 19.375"></polygon>
                        </g>
                        <path d="M71,31.75 L71,71.75 L70.9719768,71.7500196 C70.9905246,71.8493544 71,71.9499517 71,72.0516169 C71,73.8839796 67.9219577,75.369403 64.125,75.369403 C60.3280423,75.369403 57.25,73.8839796 57.25,72.0516169 C57.25,71.9499517 57.2594754,71.8493544 57.2780232,71.7500196 L57.25,71.75 L57.25,31.75 L71,31.75 Z" id="中杆子" fill="url(#linearGradient-2)" transform="translate(64.125000, 53.559701) scale(-1, 1) rotate(-360.000000) translate(-64.125000, -53.559701) "></path>
                        <path d="M78.7627946,22.7757094 C82.3889754,20.7163511 86.8033047,20.6009258 90.5321525,22.4679657 L90.5321525,22.4679657 L102.173897,28.2970054 L91.25,55.2899012 L77.999633,48.8593735 C76.1249209,47.9495581 73.9200814,48.0339151 72.1203669,49.0843137 L72.1203669,49.0843137 L50.6423738,61.6198878 C44.8841837,64.9806403 41.3437495,71.1463393 41.3437495,77.8135284 L41.3437495,77.8135284 L41.3437495,163.922005 L55,171.422005 L34.626762,182.969011 L21.1940405,175.362136 L21.2600405,175.324163 L21.2509463,66.3534382 C21.2503722,59.7314449 24.7417368,53.6102959 30.417953,50.2356928 L30.7415729,50.0476259 Z" id="形状结合" fill="url(#linearGradient-3)"></path>
                        <polygon id="路径-107" fill="#1F4988" points="73.2168699 59.7054356 88.5312495 68.2303687 105 59.0399012 89.4668699 51.2038826"></polygon>
                        <path d="M34.626762,182.969011 L55.0937495,171.422005 L55.0937495,81.7246874 C55.0937495,77.2798947 57.454039,73.1694287 61.2928324,70.928927 L81.2296331,59.2928657 C83.6145667,57.9009055 86.676344,58.7058695 88.0683042,61.090803 C88.5147471,61.855722 88.75,62.7254994 88.75,63.6111699 L88.75,71.9803687 L88.75,71.9803687 L105,62.7899012 L105,33.6027039 C105,30.1509242 102.20178,27.3527039 98.75,27.3527039 C97.6595631,27.3527039 96.5881008,27.6379956 95.6420441,28.1802404 L44.3923789,57.5546566 C38.5803875,60.8858756 34.9871677,67.0648015 34.9663373,73.763744 L34.626762,182.969011 L34.626762,182.969011 Z" id="路径-100" fill="#A9AAAB"></path>
                        <g id="编组-37" transform="translate(42.000000, 0.000000)">
                            <path d="M27.75,21.25 L27.75,38.75 L27.7219768,38.7500196 C27.7405246,38.8493544 27.75,38.9499517 27.75,39.0516169 C27.75,40.8839796 24.6719577,42.369403 20.875,42.369403 C17.0780423,42.369403 14,40.8839796 14,39.0516169 C14,38.9499517 14.0094754,38.8493544 14.0280232,38.7500196 L14,38.75 L14,21.25 L27.75,21.25 Z" id="中杆子" fill="url(#linearGradient-4)" transform="translate(20.875000, 31.809701) scale(-1, 1) rotate(-360.000000) translate(-20.875000, -31.809701) "></path>
                            <polygon id="路径-108" fill="url(#linearGradient-5)" points="9.94418273 7.70122264 14.4765501 13.0087712 18.2007595 11.75 15.1726475 5"></polygon>
                            <path d="M41.5,11.25 L41.5,17.5198636 L41.377415,17.5198814 C40.2509532,24.2281131 31.4993893,27.5 20.870345,27.5 C10.2413007,27.5 1.48973677,24.2281131 0.363275041,17.5198814 L0.25,17.5198636 L0.230827286,15.9491208 C0.160490212,15.4322607 0.157244874,15.0135261 0.215528277,14.6813152 L0.174694182,11.25 L2.81552447,13.8646813 C4.77297311,14.4670757 7.65380033,16.0809037 10.8888456,17.5191645 L32.6087929,17.5192983 C34.1771972,16.9344344 35.6032305,16.3492259 36.8316185,15.8809391 L41.5,11.25 Z M29.1482573,18.6996809 L13.8855216,18.7359023 C16.1887134,19.5669723 18.5761439,20.1533091 20.870345,20.1247982 C23.7383931,20.0891558 26.5584774,19.4851694 29.1482573,18.6996809 Z" id="形状结合" fill="url(#linearGradient-6)"></path>
                            <polygon id="路径-108" fill="url(#linearGradient-7)" transform="translate(27.955171, 9.116352) scale(-1, 1) translate(-27.955171, -9.116352) " points="23.9555383 8.125 28.5441087 13.2327041 31.9548042 11.75 28.9608968 5"></polygon>
                            <ellipse id="椭圆形" fill="url(#linearGradient-8)" cx="20.875" cy="15.625" rx="8.125" ry="4.375"></ellipse>
                            <path d="M20.875,0 C32.265873,0 41.5,5.3166186 41.5,11.875 C41.5,18.4333814 32.265873,23.75 20.875,23.75 C9.48412704,23.75 0.25,18.4333814 0.25,11.875 C0.25,5.3166186 9.48412704,0 20.875,0 Z M20.875,5 C13.6262627,5 7.75,8.07804235 7.75,11.875 C7.75,15.6719577 13.6262627,18.75 20.875,18.75 C28.1237373,18.75 34,15.6719577 34,11.875 C34,8.07804235 28.1237373,5 20.875,5 Z" id="形状结合" fill="#5692ED"></path>
                        </g>
                    </g>
                    <g id="编组-31" transform="translate(60.500000, 126.250000)">
                        <path d="M10.9173779,3.54951533 C14.9197663,0.533499367 18.8381834,-0.233990833 21.6973176,1.0198719 L21.74482,0.938859112 L95.667289,43.2052912 L77.9227496,73.9720121 L5.18962166,32.1978666 C2.91912251,31.3332296 1.26468127,29.2502926 0.680053261,26.0547458 C-0.633357598,18.8757093 3.95004876,8.79977442 10.9173779,3.54951533 Z" id="形状结合" fill="url(#linearGradient-9)"></path>
                        <path d="M80.6663805,70.1676709 C89.3904218,70.1676709 99.1147418,64.8790343 102.386257,58.3551705 C105.657773,51.8313066 101.237627,46.54267 92.513586,46.54267 C83.7895448,46.54267 74.0652247,51.8313066 70.7937093,58.3551705 C67.5221938,64.8790343 71.9423393,70.1676709 80.6663805,70.1676709 Z" id="椭圆形" stroke="#979797" stroke-width="1.12500004" fill="#D8D8D8" transform="translate(86.589983, 58.355170) rotate(-37.000000) translate(-86.589983, -58.355170) "></path>
                    </g>
                    <g id="编组-31" transform="translate(59.250000, 80.000000)">
                        <path d="M10.9173779,3.54951533 C14.9197663,0.533499367 18.8381834,-0.233990833 21.6973176,1.0198719 L21.74482,0.938859112 L95.667289,43.2052912 L77.9227496,73.9720121 L5.18962166,32.1978666 C2.91912251,31.3332296 1.26468127,29.2502926 0.680053261,26.0547458 C-0.633357598,18.8757093 3.95004876,8.79977442 10.9173779,3.54951533 Z" id="形状结合" fill="url(#linearGradient-9)"></path>
                        <path d="M80.6663805,70.1676709 C89.3904218,70.1676709 99.1147418,64.8790343 102.386257,58.3551705 C105.657773,51.8313066 101.237627,46.54267 92.513586,46.54267 C83.7895448,46.54267 74.0652247,51.8313066 70.7937093,58.3551705 C67.5221938,64.8790343 71.9423393,70.1676709 80.6663805,70.1676709 Z" id="椭圆形" stroke="#979797" stroke-width="1.12500004" fill="#D8D8D8" transform="translate(86.589983, 58.355170) rotate(-37.000000) translate(-86.589983, -58.355170) "></path>
                    </g>
                    <g id="编组-38" transform="translate(98.750000, 55.250000)">
                        <g id="编组-35" transform="translate(69.250000, 118.250000)">
                            <polygon id="路径-102" fill="#94979C" points="0 11.6089838 19.626762 -2.22044605e-15 60 23.1559892 40.0937495 34.7029946"></polygon>
                            <polygon id="路径-103" fill="#6E7074" points="0 11.6089838 0 34.7029946 40 57.8589838 40.0937495 34.7339838"></polygon>
                            <polygon id="路径-104" fill="#6B6D70" points="40.0937495 57.8589838 60 46.25 60 23.1559892 40.0937495 34.7029946"></polygon>
                        </g>
                        <polygon id="路径-101" fill="#A9AAAB" points="88.8302332 71.9148443 105 62.7899012 105 142.142456 88.75 151.946311"></polygon>
                        <polygon id="路径-105" fill="url(#linearGradient-1)" points="96.875 147.017277 96.875 159.382925 46.3437495 186.985027 46.3437495 175.797005"></polygon>
                        <g id="编组-33" transform="translate(35.000000, 101.750000)">
                            <g id="编组-32">
                                <polygon id="路径-49" fill="#1F4988" points="33.9374988 0 4.74398297e-13 19.9380215 20.0937495 31.5470054 53.5312495 11.4803687"></polygon>
                                <polygon id="路径-52" fill="#2F62AE" points="20.0937495 31.5470054 20.1874991 69.6720054 53.7187483 50.2970054 53.7187483 11.4803687"></polygon>
                                <polygon id="路径-52" fill="#D8D8D8" transform="translate(10.046875, 44.523503) scale(-1, 1) translate(-10.046875, -44.523503) " points="0.0937495381 31.5470054 -2.35367216e-14 69.6720054 20.0937495 57.5 20.0937495 19.375"></polygon>
                            </g>
                            <g id="编组-36" transform="translate(23.000000, 23.750000)">
                                <g id="编组-31">
                                    <path d="M10.4865379,3.15773973 C14.7722283,-0.0717596649 18.9594512,-0.664558071 21.7957347,1.08761468 L30.8302332,6.43406053 L13.4080082,36.2176121 L3.81013944,30.6495489 L3.81525813,30.6398819 C2.14960324,29.6053164 0.95183497,27.7598603 0.47671014,25.1628523 C-0.807513712,18.1433505 3.67403882,8.29132599 10.4865379,3.15773973 Z" id="形状结合" fill="url(#linearGradient-10)"></path>
                                    <path d="M16.1626794,32.7972743 C24.6928524,32.7972743 34.2010757,27.6261633 37.3998906,21.2472747 C40.5987055,14.8683861 36.2767858,9.69727514 27.7466128,9.69727514 C19.2164398,9.69727514 9.70821645,14.8683861 6.50940157,21.2472747 C3.31058669,27.6261633 7.63250639,32.7972743 16.1626794,32.7972743 Z" id="椭圆形" fill="url(#linearGradient-11)" transform="translate(21.954646, 21.247275) rotate(-37.000000) translate(-21.954646, -21.247275) "></path>
                                    <path d="M20.425185,27.5000004 C25.0456957,27.5000004 30.1959836,25.0375667 31.9286751,22.0000004 C33.6613666,18.9624343 31.3203267,16.5000004 26.699816,16.5000004 C22.0793053,16.5000004 16.9290174,18.9624343 15.1963259,22.0000004 C13.4636344,25.0375667 15.8046744,27.5000004 20.425185,27.5000004 Z" id="椭圆形" fill="#3D3F41" transform="translate(23.562501, 22.000000) rotate(-37.000000) translate(-23.562501, -22.000000) "></path>
                                </g>
                                <g id="编组-32" transform="translate(20.250000, 16.750000)">
                                    <polygon id="路径-49" fill="#94979C" points="7.46625056 9.28146552e-15 1.28792546e-13 4.38636522 4.42062539 6.94034196 11.7768762 2.67498703"></polygon>
                                    <polygon id="路径-52" fill="#6B6D70" points="4.42062539 6.94034196 4.44125029 14.2278428 11.8181259 9.96534229 11.8181259 2.67784148"></polygon>
                                    <polygon id="路径-52" fill="#38393B" transform="translate(2.210313, 9.245172) scale(-1, 1) translate(-2.210313, -9.245172) " points="0.0206249007 6.94034196 -3.39994722e-14 14.2278428 4.42062539 11.5500013 4.42062539 4.26250047"></polygon>
                                </g>
                            </g>
                        </g>
                        <g id="编组-35" transform="translate(0.000000, 160.438022)">
                            <polygon id="路径-102" fill="#94979C" points="0 11.6089838 19.626762 -2.22044605e-15 60 23.1559892 40.0937495 34.7029946"></polygon>
                            <polygon id="路径-103" fill="#6E7074" points="0 11.6089838 0 34.7029946 40 57.8589838 40.0937495 34.7339838"></polygon>
                            <polygon id="路径-104" fill="#6B6D70" points="40.0937495 57.8589838 60 46.25 60 23.1559892 40.0937495 34.7029946"></polygon>
                        </g>
                        <g id="编组-33" transform="translate(35.000000, 56.750000)">
                            <g id="编组-32">
                                <polygon id="路径-49" fill="#1F4988" points="33.9374988 0 4.74398297e-13 19.9380215 20.0937495 31.5470054 53.5312495 11.4803687"></polygon>
                                <polygon id="路径-52" fill="#2F62AE" points="20.0937495 31.5470054 20.1874991 69.6720054 53.7187483 50.2970054 53.7187483 11.4803687"></polygon>
                                <polygon id="路径-52" fill="#D8D8D8" transform="translate(10.046875, 44.523503) scale(-1, 1) translate(-10.046875, -44.523503) " points="0.0937495381 31.5470054 -2.35367216e-14 69.6720054 20.0937495 57.5 20.0937495 19.375"></polygon>
                            </g>
                            <g id="编组-36" transform="translate(23.000000, 23.750000)">
                                <g id="编组-31">
                                    <path d="M10.4865379,3.15773973 C14.7722283,-0.0717596649 18.9594512,-0.664558071 21.7957347,1.08761468 L30.8302332,6.43406053 L13.4080082,36.2176121 L3.81013944,30.6495489 L3.81525813,30.6398819 C2.14960324,29.6053164 0.95183497,27.7598603 0.47671014,25.1628523 C-0.807513712,18.1433505 3.67403882,8.29132599 10.4865379,3.15773973 Z" id="形状结合" fill="url(#linearGradient-10)"></path>
                                    <path d="M16.1626794,32.7972743 C24.6928524,32.7972743 34.2010757,27.6261633 37.3998906,21.2472747 C40.5987055,14.8683861 36.2767858,9.69727514 27.7466128,9.69727514 C19.2164398,9.69727514 9.70821645,14.8683861 6.50940157,21.2472747 C3.31058669,27.6261633 7.63250639,32.7972743 16.1626794,32.7972743 Z" id="椭圆形" fill="url(#linearGradient-11)" transform="translate(21.954646, 21.247275) rotate(-37.000000) translate(-21.954646, -21.247275) "></path>
                                    <path d="M20.425185,27.5000004 C25.0456957,27.5000004 30.1959836,25.0375667 31.9286751,22.0000004 C33.6613666,18.9624343 31.3203267,16.5000004 26.699816,16.5000004 C22.0793053,16.5000004 16.9290174,18.9624343 15.1963259,22.0000004 C13.4636344,25.0375667 15.8046744,27.5000004 20.425185,27.5000004 Z" id="椭圆形" fill="#3D3F41" transform="translate(23.562501, 22.000000) rotate(-37.000000) translate(-23.562501, -22.000000) "></path>
                                </g>
                                <g id="编组-32" transform="translate(20.125000, 16.500000)">
                                    <polygon id="路径-49" fill="#94979C" points="7.46625056 9.28146552e-15 1.28792546e-13 4.38636522 4.42062539 6.94034196 11.7768762 2.67498703"></polygon>
                                    <polygon id="路径-52" fill="#6B6D70" points="4.42062539 6.94034196 4.44125029 14.2278428 11.8181259 9.96534229 11.8181259 2.67784148"></polygon>
                                    <polygon id="路径-52" fill="#38393B" transform="translate(2.210313, 9.245172) scale(-1, 1) translate(-2.210313, -9.245172) " points="0.0206249007 6.94034196 -3.39994722e-14 14.2278428 4.42062539 11.5500013 4.42062539 4.26250047"></polygon>
                                </g>
                            </g>
                        </g>
                        <path d="M71,31.75 L71,71.75 L70.9719768,71.7500196 C70.9905246,71.8493544 71,71.9499517 71,72.0516169 C71,73.8839796 67.9219577,75.369403 64.125,75.369403 C60.3280423,75.369403 57.25,73.8839796 57.25,72.0516169 C57.25,71.9499517 57.2594754,71.8493544 57.2780232,71.7500196 L57.25,71.75 L57.25,31.75 L71,31.75 Z" id="中杆子" fill="url(#linearGradient-2)" transform="translate(64.125000, 53.559701) scale(-1, 1) rotate(-360.000000) translate(-64.125000, -53.559701) "></path>
                        <path d="M78.7627946,22.7757094 C82.3889754,20.7163511 86.8033047,20.6009258 90.5321525,22.4679657 L90.5321525,22.4679657 L102.173897,28.2970054 L91.25,55.2899012 L77.999633,48.8593735 C76.1249209,47.9495581 73.9200814,48.0339151 72.1203669,49.0843137 L72.1203669,49.0843137 L50.6423738,61.6198878 C44.8841837,64.9806403 41.3437495,71.1463393 41.3437495,77.8135284 L41.3437495,77.8135284 L41.3437495,163.922005 L55,171.422005 L34.626762,182.969011 L21.1940405,175.362136 L21.2600405,175.324163 L21.2509463,66.3534382 C21.2503722,59.7314449 24.7417368,53.6102959 30.417953,50.2356928 L30.7415729,50.0476259 Z" id="形状结合" fill="url(#linearGradient-3)"></path>
                        <polygon id="路径-107" fill="#1F4988" points="73.2168699 59.7054356 88.5312495 68.2303687 105 59.0399012 89.4668699 51.2038826"></polygon>
                        <path d="M34.626762,182.969011 L55.0937495,171.422005 L55.0937495,81.7246874 C55.0937495,77.2798947 57.454039,73.1694287 61.2928324,70.928927 L81.2296331,59.2928657 C83.6145667,57.9009055 86.676344,58.7058695 88.0683042,61.090803 C88.5147471,61.855722 88.75,62.7254994 88.75,63.6111699 L88.75,71.9803687 L88.75,71.9803687 L105,62.7899012 L105,33.6027039 C105,30.1509242 102.20178,27.3527039 98.75,27.3527039 C97.6595631,27.3527039 96.5881008,27.6379956 95.6420441,28.1802404 L44.3923789,57.5546566 C38.5803875,60.8858756 34.9871677,67.0648015 34.9663373,73.763744 L34.626762,182.969011 L34.626762,182.969011 Z" id="路径-100" fill="#A9AAAB"></path>
                        <g id="编组-37" transform="translate(42.000000, 0.000000)">
                            <path d="M27.75,21.25 L27.75,38.75 L27.7219768,38.7500196 C27.7405246,38.8493544 27.75,38.9499517 27.75,39.0516169 C27.75,40.8839796 24.6719577,42.369403 20.875,42.369403 C17.0780423,42.369403 14,40.8839796 14,39.0516169 C14,38.9499517 14.0094754,38.8493544 14.0280232,38.7500196 L14,38.75 L14,21.25 L27.75,21.25 Z" id="中杆子" fill="url(#linearGradient-4)" transform="translate(20.875000, 31.809701) scale(-1, 1) rotate(-360.000000) translate(-20.875000, -31.809701) "></path>
                            <polygon id="路径-108" fill="url(#linearGradient-5)" points="9.94418273 7.70122264 14.4765501 13.0087712 18.2007595 11.75 15.1726475 5"></polygon>
                            <path d="M41.5,11.25 L41.5,17.5198636 L41.377415,17.5198814 C40.2509532,24.2281131 31.4993893,27.5 20.870345,27.5 C10.2413007,27.5 1.48973677,24.2281131 0.363275041,17.5198814 L0.25,17.5198636 L0.230827286,15.9491208 C0.160490212,15.4322607 0.157244874,15.0135261 0.215528277,14.6813152 L0.174694182,11.25 L2.81552447,13.8646813 C4.77297311,14.4670757 7.65380033,16.0809037 10.8888456,17.5191645 L32.6087929,17.5192983 C34.1771972,16.9344344 35.6032305,16.3492259 36.8316185,15.8809391 L41.5,11.25 Z M29.1482573,18.6996809 L13.8855216,18.7359023 C16.1887134,19.5669723 18.5761439,20.1533091 20.870345,20.1247982 C23.7383931,20.0891558 26.5584774,19.4851694 29.1482573,18.6996809 Z" id="形状结合" fill="url(#linearGradient-6)"></path>
                            <polygon id="路径-108" fill="url(#linearGradient-7)" transform="translate(27.955171, 9.116352) scale(-1, 1) translate(-27.955171, -9.116352) " points="23.9555383 8.125 28.5441087 13.2327041 31.9548042 11.75 28.9608968 5"></polygon>
                            <ellipse id="椭圆形" fill="url(#linearGradient-8)" cx="20.875" cy="15.625" rx="8.125" ry="4.375"></ellipse>
                            <path d="M20.875,0 C32.265873,0 41.5,5.3166186 41.5,11.875 C41.5,18.4333814 32.265873,23.75 20.875,23.75 C9.48412704,23.75 0.25,18.4333814 0.25,11.875 C0.25,5.3166186 9.48412704,0 20.875,0 Z M20.875,5 C13.6262627,5 7.75,8.07804235 7.75,11.875 C7.75,15.6719577 13.6262627,18.75 20.875,18.75 C28.1237373,18.75 34,15.6719577 34,11.875 C34,8.07804235 28.1237373,5 20.875,5 Z" id="形状结合" fill="#5692ED"></path>
                        </g>
                    </g>
                </g>
                <g id="编组-39" transform="translate(0.000000, 71.000000)">
                    <g id="编组-38" transform="translate(0.000000, 0.500000)">
                        <g id="编组-35" transform="translate(69.250000, 118.250000)">
                            <polygon id="路径-102" fill="#94979C" points="0 11.6089838 19.626762 -2.22044605e-15 60 23.1559892 40.0937495 34.7029946"></polygon>
                            <polygon id="路径-103" fill="#6E7074" points="0 11.6089838 0 34.7029946 40 57.8589838 40.0937495 34.7339838"></polygon>
                            <polygon id="路径-104" fill="#6B6D70" points="40.0937495 57.8589838 60 46.25 60 23.1559892 40.0937495 34.7029946"></polygon>
                        </g>
                        <polygon id="路径-101" fill="#A9AAAB" points="88.8302332 71.9148443 105 62.7899012 105 142.142456 88.75 151.946311"></polygon>
                        <polygon id="路径-105" fill="url(#linearGradient-1)" points="96.875 147.017277 96.875 159.382925 46.3437495 186.985027 46.3437495 175.797005"></polygon>
                        <g id="编组-32" transform="translate(35.000000, 101.750000)">
                            <polygon id="路径-49" fill="#1F4988" points="33.9374988 0 4.74398297e-13 19.9380215 20.0937495 31.5470054 53.5312495 11.4803687"></polygon>
                            <polygon id="路径-52" fill="#2F62AE" points="20.0937495 31.5470054 20.1874991 69.6720054 53.7187483 50.2970054 53.7187483 11.4803687"></polygon>
                            <polygon id="路径-52" fill="#D8D8D8" transform="translate(10.046875, 44.523503) scale(-1, 1) translate(-10.046875, -44.523503) " points="0.0937495381 31.5470054 -2.35367216e-14 69.6720054 20.0937495 57.5 20.0937495 19.375"></polygon>
                        </g>
                        <g id="编组-35" transform="translate(0.000000, 160.438022)">
                            <polygon id="路径-102" fill="#94979C" points="0 11.6089838 19.626762 -2.22044605e-15 60 23.1559892 40.0937495 34.7029946"></polygon>
                            <polygon id="路径-103" fill="#6E7074" points="0 11.6089838 0 34.7029946 40 57.8589838 40.0937495 34.7339838"></polygon>
                            <polygon id="路径-104" fill="#6B6D70" points="40.0937495 57.8589838 60 46.25 60 23.1559892 40.0937495 34.7029946"></polygon>
                        </g>
                        <g id="编组-32" transform="translate(35.000000, 56.750000)">
                            <polygon id="路径-49" fill="#1F4988" points="33.9374988 0 4.74398297e-13 19.9380215 20.0937495 31.5470054 53.5312495 11.4803687"></polygon>
                            <polygon id="路径-52" fill="#2F62AE" points="20.0937495 31.5470054 20.1874991 69.6720054 53.7187483 50.2970054 53.7187483 11.4803687"></polygon>
                            <polygon id="路径-52" fill="#D8D8D8" transform="translate(10.046875, 44.523503) scale(-1, 1) translate(-10.046875, -44.523503) " points="0.0937495381 31.5470054 -2.35367216e-14 69.6720054 20.0937495 57.5 20.0937495 19.375"></polygon>
                        </g>
                        <path d="M71,31.75 L71,71.75 L70.9719768,71.7500196 C70.9905246,71.8493544 71,71.9499517 71,72.0516169 C71,73.8839796 67.9219577,75.369403 64.125,75.369403 C60.3280423,75.369403 57.25,73.8839796 57.25,72.0516169 C57.25,71.9499517 57.2594754,71.8493544 57.2780232,71.7500196 L57.25,71.75 L57.25,31.75 L71,31.75 Z" id="中杆子" fill="url(#linearGradient-2)" transform="translate(64.125000, 53.559701) scale(-1, 1) rotate(-360.000000) translate(-64.125000, -53.559701) "></path>
                        <path d="M78.7627946,22.7757094 C82.3889754,20.7163511 86.8033047,20.6009258 90.5321525,22.4679657 L90.5321525,22.4679657 L102.173897,28.2970054 L91.25,55.2899012 L77.999633,48.8593735 C76.1249209,47.9495581 73.9200814,48.0339151 72.1203669,49.0843137 L72.1203669,49.0843137 L50.6423738,61.6198878 C44.8841837,64.9806403 41.3437495,71.1463393 41.3437495,77.8135284 L41.3437495,77.8135284 L41.3437495,163.922005 L55,171.422005 L34.626762,182.969011 L21.1940405,175.362136 L21.2600405,175.324163 L21.2509463,66.3534382 C21.2503722,59.7314449 24.7417368,53.6102959 30.417953,50.2356928 L30.7415729,50.0476259 Z" id="形状结合" fill="url(#linearGradient-3)"></path>
                        <polygon id="路径-107" fill="#1F4988" points="73.2168699 59.7054356 88.5312495 68.2303687 105 59.0399012 89.4668699 51.2038826"></polygon>
                        <path d="M34.626762,182.969011 L55.0937495,171.422005 L55.0937495,81.7246874 C55.0937495,77.2798947 57.454039,73.1694287 61.2928324,70.928927 L81.2296331,59.2928657 C83.6145667,57.9009055 86.676344,58.7058695 88.0683042,61.090803 C88.5147471,61.855722 88.75,62.7254994 88.75,63.6111699 L88.75,71.9803687 L88.75,71.9803687 L105,62.7899012 L105,33.6027039 C105,30.1509242 102.20178,27.3527039 98.75,27.3527039 C97.6595631,27.3527039 96.5881008,27.6379956 95.6420441,28.1802404 L44.3923789,57.5546566 C38.5803875,60.8858756 34.9871677,67.0648015 34.9663373,73.763744 L34.626762,182.969011 L34.626762,182.969011 Z" id="路径-100" fill="#A9AAAB"></path>
                        <g id="编组-37" transform="translate(42.000000, 0.000000)">
                            <path d="M27.75,21.25 L27.75,38.75 L27.7219768,38.7500196 C27.7405246,38.8493544 27.75,38.9499517 27.75,39.0516169 C27.75,40.8839796 24.6719577,42.369403 20.875,42.369403 C17.0780423,42.369403 14,40.8839796 14,39.0516169 C14,38.9499517 14.0094754,38.8493544 14.0280232,38.7500196 L14,38.75 L14,21.25 L27.75,21.25 Z" id="中杆子" fill="url(#linearGradient-4)" transform="translate(20.875000, 31.809701) scale(-1, 1) rotate(-360.000000) translate(-20.875000, -31.809701) "></path>
                            <polygon id="路径-108" fill="url(#linearGradient-5)" points="9.94418273 7.70122264 14.4765501 13.0087712 18.2007595 11.75 15.1726475 5"></polygon>
                            <path d="M41.5,11.25 L41.5,17.5198636 L41.377415,17.5198814 C40.2509532,24.2281131 31.4993893,27.5 20.870345,27.5 C10.2413007,27.5 1.48973677,24.2281131 0.363275041,17.5198814 L0.25,17.5198636 L0.230827286,15.9491208 C0.160490212,15.4322607 0.157244874,15.0135261 0.215528277,14.6813152 L0.174694182,11.25 L2.81552447,13.8646813 C4.77297311,14.4670757 7.65380033,16.0809037 10.8888456,17.5191645 L32.6087929,17.5192983 C34.1771972,16.9344344 35.6032305,16.3492259 36.8316185,15.8809391 L41.5,11.25 Z M29.1482573,18.6996809 L13.8855216,18.7359023 C16.1887134,19.5669723 18.5761439,20.1533091 20.870345,20.1247982 C23.7383931,20.0891558 26.5584774,19.4851694 29.1482573,18.6996809 Z" id="形状结合" fill="url(#linearGradient-6)"></path>
                            <polygon id="路径-108" fill="url(#linearGradient-7)" transform="translate(27.955171, 9.116352) scale(-1, 1) translate(-27.955171, -9.116352) " points="23.9555383 8.125 28.5441087 13.2327041 31.9548042 11.75 28.9608968 5"></polygon>
                            <ellipse id="椭圆形" fill="url(#linearGradient-8)" cx="20.875" cy="15.625" rx="8.125" ry="4.375"></ellipse>
                            <path d="M20.875,0 C32.265873,0 41.5,5.3166186 41.5,11.875 C41.5,18.4333814 32.265873,23.75 20.875,23.75 C9.48412704,23.75 0.25,18.4333814 0.25,11.875 C0.25,5.3166186 9.48412704,0 20.875,0 Z M20.875,5 C13.6262627,5 7.75,8.07804235 7.75,11.875 C7.75,15.6719577 13.6262627,18.75 20.875,18.75 C28.1237373,18.75 34,15.6719577 34,11.875 C34,8.07804235 28.1237373,5 20.875,5 Z" id="形状结合" fill="#5692ED"></path>
                        </g>
                    </g>
                    <g id="编组-31" transform="translate(60.500000, 126.250000)">
                        <path d="M10.9173779,3.54951533 C14.9197663,0.533499367 18.8381834,-0.233990833 21.6973176,1.0198719 L21.74482,0.938859112 L95.667289,43.2052912 L77.9227496,73.9720121 L5.18962166,32.1978666 C2.91912251,31.3332296 1.26468127,29.2502926 0.680053261,26.0547458 C-0.633357598,18.8757093 3.95004876,8.79977442 10.9173779,3.54951533 Z" id="形状结合" fill="url(#linearGradient-9)"></path>
                        <path d="M80.6663805,70.1676709 C89.3904218,70.1676709 99.1147418,64.8790343 102.386257,58.3551705 C105.657773,51.8313066 101.237627,46.54267 92.513586,46.54267 C83.7895448,46.54267 74.0652247,51.8313066 70.7937093,58.3551705 C67.5221938,64.8790343 71.9423393,70.1676709 80.6663805,70.1676709 Z" id="椭圆形" stroke="#979797" stroke-width="1.12500004" fill="#D8D8D8" transform="translate(86.589983, 58.355170) rotate(-37.000000) translate(-86.589983, -58.355170) "></path>
                    </g>
                    <g id="编组-31" transform="translate(59.250000, 80.000000)">
                        <path d="M10.9173779,3.54951533 C14.9197663,0.533499367 18.8381834,-0.233990833 21.6973176,1.0198719 L21.74482,0.938859112 L95.667289,43.2052912 L77.9227496,73.9720121 L5.18962166,32.1978666 C2.91912251,31.3332296 1.26468127,29.2502926 0.680053261,26.0547458 C-0.633357598,18.8757093 3.95004876,8.79977442 10.9173779,3.54951533 Z" id="形状结合" fill="url(#linearGradient-9)"></path>
                        <path d="M80.6663805,70.1676709 C89.3904218,70.1676709 99.1147418,64.8790343 102.386257,58.3551705 C105.657773,51.8313066 101.237627,46.54267 92.513586,46.54267 C83.7895448,46.54267 74.0652247,51.8313066 70.7937093,58.3551705 C67.5221938,64.8790343 71.9423393,70.1676709 80.6663805,70.1676709 Z" id="椭圆形" stroke="#979797" stroke-width="1.12500004" fill="#D8D8D8" transform="translate(86.589983, 58.355170) rotate(-37.000000) translate(-86.589983, -58.355170) "></path>
                    </g>
                    <g id="编组-38" transform="translate(98.750000, 55.250000)">
                        <g id="编组-35" transform="translate(69.250000, 118.250000)">
                            <polygon id="路径-102" fill="#94979C" points="0 11.6089838 19.626762 -2.22044605e-15 60 23.1559892 40.0937495 34.7029946"></polygon>
                            <polygon id="路径-103" fill="#6E7074" points="0 11.6089838 0 34.7029946 40 57.8589838 40.0937495 34.7339838"></polygon>
                            <polygon id="路径-104" fill="#6B6D70" points="40.0937495 57.8589838 60 46.25 60 23.1559892 40.0937495 34.7029946"></polygon>
                        </g>
                        <polygon id="路径-101" fill="#A9AAAB" points="88.8302332 71.9148443 105 62.7899012 105 142.142456 88.75 151.946311"></polygon>
                        <polygon id="路径-105" fill="url(#linearGradient-1)" points="96.875 147.017277 96.875 159.382925 46.3437495 186.985027 46.3437495 175.797005"></polygon>
                        <g id="编组-33" transform="translate(35.000000, 101.750000)">
                            <g id="编组-32">
                                <polygon id="路径-49" fill="#1F4988" points="33.9374988 0 4.74398297e-13 19.9380215 20.0937495 31.5470054 53.5312495 11.4803687"></polygon>
                                <polygon id="路径-52" fill="#2F62AE" points="20.0937495 31.5470054 20.1874991 69.6720054 53.7187483 50.2970054 53.7187483 11.4803687"></polygon>
                                <polygon id="路径-52" fill="#D8D8D8" transform="translate(10.046875, 44.523503) scale(-1, 1) translate(-10.046875, -44.523503) " points="0.0937495381 31.5470054 -2.35367216e-14 69.6720054 20.0937495 57.5 20.0937495 19.375"></polygon>
                            </g>
                            <g id="编组-36" transform="translate(23.000000, 23.750000)">
                                <g id="编组-31">
                                    <path d="M10.4865379,3.15773973 C14.7722283,-0.0717596649 18.9594512,-0.664558071 21.7957347,1.08761468 L30.8302332,6.43406053 L13.4080082,36.2176121 L3.81013944,30.6495489 L3.81525813,30.6398819 C2.14960324,29.6053164 0.95183497,27.7598603 0.47671014,25.1628523 C-0.807513712,18.1433505 3.67403882,8.29132599 10.4865379,3.15773973 Z" id="形状结合" fill="url(#linearGradient-10)"></path>
                                    <path d="M16.1626794,32.7972743 C24.6928524,32.7972743 34.2010757,27.6261633 37.3998906,21.2472747 C40.5987055,14.8683861 36.2767858,9.69727514 27.7466128,9.69727514 C19.2164398,9.69727514 9.70821645,14.8683861 6.50940157,21.2472747 C3.31058669,27.6261633 7.63250639,32.7972743 16.1626794,32.7972743 Z" id="椭圆形" fill="url(#linearGradient-11)" transform="translate(21.954646, 21.247275) rotate(-37.000000) translate(-21.954646, -21.247275) "></path>
                                    <path d="M20.425185,27.5000004 C25.0456957,27.5000004 30.1959836,25.0375667 31.9286751,22.0000004 C33.6613666,18.9624343 31.3203267,16.5000004 26.699816,16.5000004 C22.0793053,16.5000004 16.9290174,18.9624343 15.1963259,22.0000004 C13.4636344,25.0375667 15.8046744,27.5000004 20.425185,27.5000004 Z" id="椭圆形" fill="#3D3F41" transform="translate(23.562501, 22.000000) rotate(-37.000000) translate(-23.562501, -22.000000) "></path>
                                </g>
                                <g id="编组-32" transform="translate(20.250000, 16.750000)">
                                    <polygon id="路径-49" fill="#94979C" points="7.46625056 9.28146552e-15 1.28792546e-13 4.38636522 4.42062539 6.94034196 11.7768762 2.67498703"></polygon>
                                    <polygon id="路径-52" fill="#6B6D70" points="4.42062539 6.94034196 4.44125029 14.2278428 11.8181259 9.96534229 11.8181259 2.67784148"></polygon>
                                    <polygon id="路径-52" fill="#38393B" transform="translate(2.210313, 9.245172) scale(-1, 1) translate(-2.210313, -9.245172) " points="0.0206249007 6.94034196 -3.39994722e-14 14.2278428 4.42062539 11.5500013 4.42062539 4.26250047"></polygon>
                                </g>
                            </g>
                        </g>
                        <g id="编组-35" transform="translate(0.000000, 160.438022)">
                            <polygon id="路径-102" fill="#94979C" points="0 11.6089838 19.626762 -2.22044605e-15 60 23.1559892 40.0937495 34.7029946"></polygon>
                            <polygon id="路径-103" fill="#6E7074" points="0 11.6089838 0 34.7029946 40 57.8589838 40.0937495 34.7339838"></polygon>
                            <polygon id="路径-104" fill="#6B6D70" points="40.0937495 57.8589838 60 46.25 60 23.1559892 40.0937495 34.7029946"></polygon>
                        </g>
                        <g id="编组-33" transform="translate(35.000000, 56.750000)">
                            <g id="编组-32">
                                <polygon id="路径-49" fill="#1F4988" points="33.9374988 0 4.74398297e-13 19.9380215 20.0937495 31.5470054 53.5312495 11.4803687"></polygon>
                                <polygon id="路径-52" fill="#2F62AE" points="20.0937495 31.5470054 20.1874991 69.6720054 53.7187483 50.2970054 53.7187483 11.4803687"></polygon>
                                <polygon id="路径-52" fill="#D8D8D8" transform="translate(10.046875, 44.523503) scale(-1, 1) translate(-10.046875, -44.523503) " points="0.0937495381 31.5470054 -2.35367216e-14 69.6720054 20.0937495 57.5 20.0937495 19.375"></polygon>
                            </g>
                            <g id="编组-36" transform="translate(23.000000, 23.750000)">
                                <g id="编组-31">
                                    <path d="M10.4865379,3.15773973 C14.7722283,-0.0717596649 18.9594512,-0.664558071 21.7957347,1.08761468 L30.8302332,6.43406053 L13.4080082,36.2176121 L3.81013944,30.6495489 L3.81525813,30.6398819 C2.14960324,29.6053164 0.95183497,27.7598603 0.47671014,25.1628523 C-0.807513712,18.1433505 3.67403882,8.29132599 10.4865379,3.15773973 Z" id="形状结合" fill="url(#linearGradient-10)"></path>
                                    <path d="M16.1626794,32.7972743 C24.6928524,32.7972743 34.2010757,27.6261633 37.3998906,21.2472747 C40.5987055,14.8683861 36.2767858,9.69727514 27.7466128,9.69727514 C19.2164398,9.69727514 9.70821645,14.8683861 6.50940157,21.2472747 C3.31058669,27.6261633 7.63250639,32.7972743 16.1626794,32.7972743 Z" id="椭圆形" fill="url(#linearGradient-11)" transform="translate(21.954646, 21.247275) rotate(-37.000000) translate(-21.954646, -21.247275) "></path>
                                    <path d="M20.425185,27.5000004 C25.0456957,27.5000004 30.1959836,25.0375667 31.9286751,22.0000004 C33.6613666,18.9624343 31.3203267,16.5000004 26.699816,16.5000004 C22.0793053,16.5000004 16.9290174,18.9624343 15.1963259,22.0000004 C13.4636344,25.0375667 15.8046744,27.5000004 20.425185,27.5000004 Z" id="椭圆形" fill="#3D3F41" transform="translate(23.562501, 22.000000) rotate(-37.000000) translate(-23.562501, -22.000000) "></path>
                                </g>
                                <g id="编组-32" transform="translate(20.125000, 16.500000)">
                                    <polygon id="路径-49" fill="#94979C" points="7.46625056 9.28146552e-15 1.28792546e-13 4.38636522 4.42062539 6.94034196 11.7768762 2.67498703"></polygon>
                                    <polygon id="路径-52" fill="#6B6D70" points="4.42062539 6.94034196 4.44125029 14.2278428 11.8181259 9.96534229 11.8181259 2.67784148"></polygon>
                                    <polygon id="路径-52" fill="#38393B" transform="translate(2.210313, 9.245172) scale(-1, 1) translate(-2.210313, -9.245172) " points="0.0206249007 6.94034196 -3.39994722e-14 14.2278428 4.42062539 11.5500013 4.42062539 4.26250047"></polygon>
                                </g>
                            </g>
                        </g>
                        <path d="M71,31.75 L71,71.75 L70.9719768,71.7500196 C70.9905246,71.8493544 71,71.9499517 71,72.0516169 C71,73.8839796 67.9219577,75.369403 64.125,75.369403 C60.3280423,75.369403 57.25,73.8839796 57.25,72.0516169 C57.25,71.9499517 57.2594754,71.8493544 57.2780232,71.7500196 L57.25,71.75 L57.25,31.75 L71,31.75 Z" id="中杆子" fill="url(#linearGradient-2)" transform="translate(64.125000, 53.559701) scale(-1, 1) rotate(-360.000000) translate(-64.125000, -53.559701) "></path>
                        <path d="M78.7627946,22.7757094 C82.3889754,20.7163511 86.8033047,20.6009258 90.5321525,22.4679657 L90.5321525,22.4679657 L102.173897,28.2970054 L91.25,55.2899012 L77.999633,48.8593735 C76.1249209,47.9495581 73.9200814,48.0339151 72.1203669,49.0843137 L72.1203669,49.0843137 L50.6423738,61.6198878 C44.8841837,64.9806403 41.3437495,71.1463393 41.3437495,77.8135284 L41.3437495,77.8135284 L41.3437495,163.922005 L55,171.422005 L34.626762,182.969011 L21.1940405,175.362136 L21.2600405,175.324163 L21.2509463,66.3534382 C21.2503722,59.7314449 24.7417368,53.6102959 30.417953,50.2356928 L30.7415729,50.0476259 Z" id="形状结合" fill="url(#linearGradient-3)"></path>
                        <polygon id="路径-107" fill="#1F4988" points="73.2168699 59.7054356 88.5312495 68.2303687 105 59.0399012 89.4668699 51.2038826"></polygon>
                        <path d="M34.626762,182.969011 L55.0937495,171.422005 L55.0937495,81.7246874 C55.0937495,77.2798947 57.454039,73.1694287 61.2928324,70.928927 L81.2296331,59.2928657 C83.6145667,57.9009055 86.676344,58.7058695 88.0683042,61.090803 C88.5147471,61.855722 88.75,62.7254994 88.75,63.6111699 L88.75,71.9803687 L88.75,71.9803687 L105,62.7899012 L105,33.6027039 C105,30.1509242 102.20178,27.3527039 98.75,27.3527039 C97.6595631,27.3527039 96.5881008,27.6379956 95.6420441,28.1802404 L44.3923789,57.5546566 C38.5803875,60.8858756 34.9871677,67.0648015 34.9663373,73.763744 L34.626762,182.969011 L34.626762,182.969011 Z" id="路径-100" fill="#A9AAAB"></path>
                        <g id="编组-37" transform="translate(42.000000, 0.000000)">
                            <path d="M27.75,21.25 L27.75,38.75 L27.7219768,38.7500196 C27.7405246,38.8493544 27.75,38.9499517 27.75,39.0516169 C27.75,40.8839796 24.6719577,42.369403 20.875,42.369403 C17.0780423,42.369403 14,40.8839796 14,39.0516169 C14,38.9499517 14.0094754,38.8493544 14.0280232,38.7500196 L14,38.75 L14,21.25 L27.75,21.25 Z" id="中杆子" fill="url(#linearGradient-4)" transform="translate(20.875000, 31.809701) scale(-1, 1) rotate(-360.000000) translate(-20.875000, -31.809701) "></path>
                            <polygon id="路径-108" fill="url(#linearGradient-5)" points="9.94418273 7.70122264 14.4765501 13.0087712 18.2007595 11.75 15.1726475 5"></polygon>
                            <path d="M41.5,11.25 L41.5,17.5198636 L41.377415,17.5198814 C40.2509532,24.2281131 31.4993893,27.5 20.870345,27.5 C10.2413007,27.5 1.48973677,24.2281131 0.363275041,17.5198814 L0.25,17.5198636 L0.230827286,15.9491208 C0.160490212,15.4322607 0.157244874,15.0135261 0.215528277,14.6813152 L0.174694182,11.25 L2.81552447,13.8646813 C4.77297311,14.4670757 7.65380033,16.0809037 10.8888456,17.5191645 L32.6087929,17.5192983 C34.1771972,16.9344344 35.6032305,16.3492259 36.8316185,15.8809391 L41.5,11.25 Z M29.1482573,18.6996809 L13.8855216,18.7359023 C16.1887134,19.5669723 18.5761439,20.1533091 20.870345,20.1247982 C23.7383931,20.0891558 26.5584774,19.4851694 29.1482573,18.6996809 Z" id="形状结合" fill="url(#linearGradient-6)"></path>
                            <polygon id="路径-108" fill="url(#linearGradient-7)" transform="translate(27.955171, 9.116352) scale(-1, 1) translate(-27.955171, -9.116352) " points="23.9555383 8.125 28.5441087 13.2327041 31.9548042 11.75 28.9608968 5"></polygon>
                            <ellipse id="椭圆形" fill="url(#linearGradient-8)" cx="20.875" cy="15.625" rx="8.125" ry="4.375"></ellipse>
                            <path d="M20.875,0 C32.265873,0 41.5,5.3166186 41.5,11.875 C41.5,18.4333814 32.265873,23.75 20.875,23.75 C9.48412704,23.75 0.25,18.4333814 0.25,11.875 C0.25,5.3166186 9.48412704,0 20.875,0 Z M20.875,5 C13.6262627,5 7.75,8.07804235 7.75,11.875 C7.75,15.6719577 13.6262627,18.75 20.875,18.75 C28.1237373,18.75 34,15.6719577 34,11.875 C34,8.07804235 28.1237373,5 20.875,5 Z" id="形状结合" fill="#5692ED"></path>
                        </g>
                    </g>
                </g>
            </g>
        </g>
    </g>
</svg>