<?xml version="1.0" encoding="UTF-8"?>
<svg width="248px" height="383px" viewBox="0 0 248 383" version="1.1" xmlns="http://www.w3.org/2000/svg" xmlns:xlink="http://www.w3.org/1999/xlink">
    <title>转炉</title>
    <defs>
        <linearGradient x1="100%" y1="50%" x2="0%" y2="50%" id="linearGradient-1">
            <stop stop-color="#B4B7BF" offset="0%"></stop>
            <stop stop-color="#D4D7DC" offset="38.4274047%"></stop>
            <stop stop-color="#6B7074" offset="91.7482759%"></stop>
            <stop stop-color="#D4D8DE" offset="100%"></stop>
        </linearGradient>
        <filter x="-2.1%" y="-3.7%" width="104.3%" height="107.4%" filterUnits="objectBoundingBox" id="filter-2">
            <feGaussianBlur stdDeviation="1" in="SourceGraphic"></feGaussianBlur>
        </filter>
        <linearGradient x1="100%" y1="50%" x2="0%" y2="50%" id="linearGradient-3">
            <stop stop-color="#D5D8DF" offset="0%"></stop>
            <stop stop-color="#C9CCD2" offset="38.4274047%"></stop>
            <stop stop-color="#767A7E" offset="89.8839159%"></stop>
            <stop stop-color="#D4D8DE" offset="100%"></stop>
        </linearGradient>
        <linearGradient x1="100%" y1="50%" x2="0%" y2="50%" id="linearGradient-4">
            <stop stop-color="#BFC3CB" offset="0%"></stop>
            <stop stop-color="#A9ADB2" offset="38.4274047%"></stop>
            <stop stop-color="#9C9FA4" offset="88.8851115%"></stop>
            <stop stop-color="#D4D8DE" offset="100%"></stop>
        </linearGradient>
        <linearGradient x1="100%" y1="50%" x2="0%" y2="50%" id="linearGradient-5">
            <stop stop-color="#B4B7BF" offset="0%"></stop>
            <stop stop-color="#D4D7DC" offset="38.4274047%"></stop>
            <stop stop-color="#6B7074" offset="91.7482759%"></stop>
            <stop stop-color="#D4D8DE" offset="100%"></stop>
        </linearGradient>
        <linearGradient x1="92.7849216%" y1="54.8512767%" x2="3.67843881%" y2="41.2533912%" id="linearGradient-6">
            <stop stop-color="#E2E5E9" offset="0%"></stop>
            <stop stop-color="#C9CCD2" offset="38.4274047%"></stop>
            <stop stop-color="#767A7E" offset="86.828682%"></stop>
            <stop stop-color="#D4D8DE" offset="100%"></stop>
        </linearGradient>
        <linearGradient x1="100%" y1="50%" x2="-6.41176563%" y2="50%" id="linearGradient-7">
            <stop stop-color="#AAAEB4" offset="0%"></stop>
            <stop stop-color="#C9CCD2" offset="34.8261045%"></stop>
            <stop stop-color="#90959A" offset="88.3476674%"></stop>
            <stop stop-color="#D4D8DE" offset="100%"></stop>
        </linearGradient>
        <linearGradient x1="100%" y1="50%" x2="0%" y2="50%" id="linearGradient-8">
            <stop stop-color="#E3E5E9" offset="0%"></stop>
            <stop stop-color="#B9BDC2" offset="100%"></stop>
        </linearGradient>
        <linearGradient x1="100%" y1="50%" x2="0%" y2="50%" id="linearGradient-9">
            <stop stop-color="#CBCED3" offset="0%"></stop>
            <stop stop-color="#8A8D93" offset="100%"></stop>
        </linearGradient>
        <ellipse id="path-10" cx="29.5625006" cy="16.5000004" rx="29.5625006" ry="16.5000004"></ellipse>
        <radialGradient cx="50%" cy="38.794871%" fx="50%" fy="38.794871%" r="38.794871%" gradientTransform="translate(0.500000,0.387949),scale(0.584615,1.000000),rotate(-90.000000),scale(1.000000,2.395184),translate(-0.500000,-0.387949)" id="radialGradient-12">
            <stop stop-color="#FFBB3E" offset="0%"></stop>
            <stop stop-color="#B62227" offset="100%"></stop>
        </radialGradient>
        <linearGradient x1="100%" y1="51.9368724%" x2="74.6723642%" y2="14.3336684%" id="linearGradient-13">
            <stop stop-color="#5B5C5F" offset="0%"></stop>
            <stop stop-color="#C6CBD0" offset="37.4373573%"></stop>
            <stop stop-color="#595B5E" offset="100%"></stop>
        </linearGradient>
        <linearGradient x1="84.1523709%" y1="66.9377305%" x2="36.2189976%" y2="19.3500545%" id="linearGradient-14">
            <stop stop-color="#D5D8DF" offset="0%"></stop>
            <stop stop-color="#767A7E" offset="11.0172599%"></stop>
            <stop stop-color="#C9CCD2" offset="74.4305506%"></stop>
            <stop stop-color="#D4D8DE" offset="100%"></stop>
        </linearGradient>
        <linearGradient x1="92.2875977%" y1="38.0555241%" x2="3.71213975%" y2="58.5206739%" id="linearGradient-15">
            <stop stop-color="#E3E5E9" offset="0%"></stop>
            <stop stop-color="#9FA3A7" offset="100%"></stop>
        </linearGradient>
        <path d="M44.6843012,68.6603306 C64.6924276,67.8626887 80.570421,56.0422162 80.1487922,42.2585664 C79.7271634,28.4749166 63.1655746,17.9476772 43.1574483,18.7453191 C23.1493219,19.5429611 7.27132847,31.3634336 7.69295727,45.1470834 C8.11458608,58.9307332 24.6761749,69.4579726 44.6843012,68.6603306 Z" id="path-16"></path>
        <radialGradient cx="50%" cy="38.794871%" fx="50%" fy="38.794871%" r="38.794871%" gradientTransform="translate(0.500000,0.387949),scale(0.472973,1.000000),rotate(-90.000000),scale(1.000000,2.395184),translate(-0.500000,-0.387949)" id="radialGradient-18">
            <stop stop-color="#FFBB3E" offset="0%"></stop>
            <stop stop-color="#B62227" offset="100%"></stop>
        </radialGradient>
        <radialGradient cx="50%" cy="38.794871%" fx="50%" fy="38.794871%" r="50%" gradientTransform="translate(0.500000,0.387949),scale(1.000000,0.250523),scale(1.000000,4.952252),translate(-0.500000,-0.387949)" id="radialGradient-19">
            <stop stop-color="#FFBB3E" offset="0%"></stop>
            <stop stop-color="#B62227" offset="100%"></stop>
        </radialGradient>
        <linearGradient x1="68.8462533%" y1="16.112171%" x2="28.1418983%" y2="80.390699%" id="linearGradient-20">
            <stop stop-color="#D5D8DF" offset="0%"></stop>
            <stop stop-color="#8A8F93" offset="83.8626932%"></stop>
            <stop stop-color="#D4D8DE" offset="100%"></stop>
        </linearGradient>
    </defs>
    <g id="-" stroke="none" stroke-width="1" fill="none" fill-rule="evenodd">
        <g id="画板" transform="translate(-361.000000, -290.000000)">
            <g id="转炉" transform="translate(361.500000, 290.500000)">
                <g id="右支撑" transform="translate(106.500000, 273.500000) scale(-1, 1) translate(-106.500000, -273.500000) translate(67.500000, 221.500000)">
                    <polygon id="路径-35" fill="#1F4988" points="77.75 46.5610888 77.75 96.5121436 65.5535695 103.5 65.5535695 53.75"></polygon>
                    <path d="M17.4622792,7.93752473 C10.1642024,15.5195557 5.4868858,14.2776786 0.0153295636,15.7099484 L0.0153295636,65.3423993 L65.5535695,103.5 L65.5535695,53.5 C59.2502042,47.1785286 52.9622406,40.4022296 49.375,27.3915089 L17.4622792,7.93752473 Z" id="路径-36" fill="#163A70"></path>
                    <polygon id="路径-13" fill="#5F9FFF" points="17.4622792 8.08735679 29.2499992 14.8750495 41.5 7.87918346 29.2499992 1"></polygon>
                    <g id="编组-31" transform="translate(35.000000, 12.500000) scale(-1, 1) translate(-35.000000, -12.500000) translate(21.000000, 0.000000)" fill="#D8D8D8" stroke="#979797" stroke-width="1.25">
                        <path d="M5.49340929,1.95687701 C7.31096617,0.587249665 9.09237941,0.185452674 10.4397459,0.658805117 L10.4676005,0.613435955 L10.881976,0.854103819 C10.9328265,0.881550852 10.9828756,0.910443717 11.032096,0.940776075 L22.3518136,7.52768948 L13.8149237,22.1216293 L1.74999997,15.1549998 L1.78705314,15.0932445 C1.19907517,14.5611549 0.777396031,13.7713648 0.588593858,12.7393818 C-0.0406758077,9.29982602 2.15528486,4.4723342 5.49340929,1.95687701 Z" id="形状结合"></path>
                        <path d="M15.1647125,20.4456638 C19.3444971,20.4456638 24.0035264,17.9118195 25.5709456,14.7861642 C27.1383649,11.6605089 25.0206243,9.12666458 20.8408397,9.12666458 C16.661055,9.12666458 12.0020258,11.6605089 10.4346065,14.7861642 C8.8671873,17.9118195 10.9849279,20.4456638 15.1647125,20.4456638 Z" id="椭圆形" transform="translate(18.002776, 14.786164) rotate(-37.000000) translate(-18.002776, -14.786164) "></path>
                    </g>
                    <path d="M60.875,20.6875247 L49.375,27.3915089 C52.6446665,39.4585998 58.6598511,47.2730855 65.5535695,53.75 L77.75,46.5610888 C70.2224701,40.2019021 63.336092,33.0792986 60.875,20.6875247 Z" id="路径-34" fill="#4980D1"></path>
                    <polygon id="路径-13" fill="#5F9FFF" points="37.58728 20.6038162 49.375 27.3915089 60.875 20.6875247 49.2499992 13.75"></polygon>
                </g>
                <g transform="translate(151.750000, 264.500000) rotate(-360.000000) translate(-151.750000, -264.500000) translate(81.250000, 168.500000)">
                    <path d="M137.5,92.5 L137.5,153.75 L137.414987,153.750691 C135.643788,174.566258 106.41828,191.122881 70.625,191.122881 C34.8317195,191.122881 5.60621216,174.566258 3.83501253,153.750691 L3.75,153.75 L3.75,92.5 L137.5,92.5 Z" id="形状结合" fill="url(#linearGradient-1)"></path>
                    <ellipse id="椭圆形" fill-opacity="0.1" fill="#000000" filter="url(#filter-2)" cx="70.3750015" cy="108.562501" rx="70.1250015" ry="40.5625009"></ellipse>
                    <path d="M70.1250015,60 C93.3991509,60 114.025083,66.669628 126.780456,76.9369193 L140.250003,76.9377588 L140.250003,103.347459 L140.160923,103.347433 C138.304284,125.15457 107.658199,142.5 70.1250015,142.5 C32.5918039,142.5 1.94571871,125.15457 0.0890801808,103.347433 L0,103.347459 L0,76.9377588 L13.4695466,76.9369193 C26.2249205,66.669628 46.8508522,60 70.1250015,60 Z" id="形状结合" fill="url(#linearGradient-3)"></path>
                    <ellipse id="椭圆形" fill="url(#linearGradient-4)" cx="70.1250015" cy="79.3125009" rx="70.1250015" ry="40.5625009"></ellipse>
                    <path d="M70,37.5 C93.0507021,37.5 113.244031,44.696395 124.441212,55.4781421 L133.75,55.4782082 L133.75,76.9067797 L133.669067,76.906182 C131.981703,96.7311216 104.121417,112.5 70,112.5 C35.8785825,112.5 8.01829712,96.7311216 6.33093309,76.906182 L6.25,76.9067797 L6.25,55.4782082 L15.5587879,55.4781421 C26.7559695,44.696395 46.9492979,37.5 70,37.5 Z" id="形状结合" fill="url(#linearGradient-5)"></path>
                    <path d="M118.75,25.3837212 C123.038646,32.2345858 126.216406,37.5417368 128.283278,41.3051742 C130.35015,45.0686117 132.172391,49.3206652 133.75,54.0613346 L133.68,53.8547212 L133.75,53.8554217 C133.75,53.9211831 133.74969,53.9869035 133.749072,54.0525825 L133.75,54.0613346 C133.553278,73.9288204 105.086867,90 70,90 C34.7918472,90 6.25,73.8175211 6.25,53.8554217 L6.254,54.1337212 C6.25118584,54.1297258 6.25237228,54.1257303 6.25355933,54.1217348 L6.25,53.8554217 L6.3336955,53.854985 C7.59366208,49.7067908 9.50683732,45.5235206 12.0732212,41.3051742 C14.6970984,36.9923267 18.1726913,31.6851757 22.5,25.3837212 L22.5,25.3837212 Z" id="形状结合" fill="url(#linearGradient-6)"></path>
                    <ellipse id="椭圆形" fill="url(#linearGradient-7)" cx="70.625001" cy="31.8125006" rx="48.125001" ry="26.8125006"></ellipse>
                    <ellipse id="椭圆形" fill="url(#linearGradient-8)" cx="70.625001" cy="26.8125006" rx="48.125001" ry="26.8125006"></ellipse>
                    <g id="椭圆形" transform="translate(40.000000, 11.250000)">
                        <mask id="mask-11" fill="white">
                            <use xlink:href="#path-10"></use>
                        </mask>
                        <use id="蒙版" fill="url(#linearGradient-9)" xlink:href="#path-10"></use>
                        <ellipse fill="#7C8084" mask="url(#mask-11)" cx="29.5625006" cy="22.0000005" rx="29.5625006" ry="16.5000004"></ellipse>
                        <ellipse fill="url(#radialGradient-12)" mask="url(#mask-11)" cx="29.5625006" cy="40.2587218" rx="44.687501" ry="26.1250006"></ellipse>
                    </g>
                </g>
                <g id="左杆" transform="translate(111.500000, 20.750000)">
                    <polygon id="路径-8" fill="#888C91" points="27.087199 45.0981049 11.3371979 66.1257556 1.55162628e-13 59.6294365 15.299479 41.3672612 15.299479 7.08735679 27.087199 13.8750495"></polygon>
                    <path d="M1.33226763e-14,59.6294365 L1.33226763e-14,79.0817269 C1.26534275e-14,80.8694228 0.954442434,82.5211048 2.50331648,83.413767 L25.3371989,96.5736124 L25.3371989,96.5736124 L25.3371989,74.2086599 L13.9333912,80.584949 L6.43695364,68.6979424 L11.3371979,66.1257556 L1.33226763e-14,59.6294365 Z" id="路径-10" stroke="#979797" stroke-width="1.25" fill="#D8D8D8"></path>
                    <g id="编组-2" transform="translate(5.212197, 58.709948)">
                        <path d="M17.4869442,0.659385511 C18.4256281,-0.237450877 20.0404239,-0.251275915 21.8750015,0.814424843 C24.7744966,2.49873309 27.1250011,6.24176038 27.1250011,9.17471029 C27.1250011,10.7915441 26.410698,11.8246818 25.283892,12.1441554 L8.7211937,21.8750015 L1.22475616,9.98799487 Z" id="形状结合" fill="url(#linearGradient-13)"></path>
                        <path d="M5.25000036,21.0605766 C8.14949549,22.7448849 10.5,21.7326608 10.5,18.7997109 C10.5,15.866761 8.14949549,12.1237338 5.25000036,10.4394255 C2.35050522,8.75511725 0,9.7673413 0,12.7002912 C0,15.6332411 2.35050522,19.3762684 5.25000036,21.0605766 Z" id="椭圆形" stroke="#979797" stroke-width="1.25" fill="#D8D8D8"></path>
                    </g>
                    <polygon id="路径-11" fill="#B6B9BD" points="27.087199 45.0981049 39.3371998 37.9113496 39.3371998 6.87918346 27.087199 13.8750495"></polygon>
                    <path d="M25.3371989,96.5736124 L33.1441897,91.4911647 C34.5614397,90.5685174 35.4162664,88.9920028 35.4162664,87.3008861 L35.4162664,69.0357453 L35.4162664,69.0357453 L25.3371989,74.4599486 L25.3371989,96.5736124 Z" id="路径-11" fill="#B6B9BD"></path>
                    <polygon id="路径-12" fill="#95989B" points="11.6091685 65.7695394 23.7516714 58.8028355 39.3371998 37.9113496 27.087199 45.0981049"></polygon>
                    <polygon id="路径-13" stroke="#979797" stroke-width="0.87500006" fill="#D8D8D8" points="15.299479 7.08735679 27.087199 13.8750495 39.3371998 6.87918346 27.087199 3.73034962e-14"></polygon>
                </g>
                <g id="桶" transform="translate(91.607940, 110.607940) rotate(27.000000) translate(-91.607940, -110.607940) translate(23.607940, 42.607940)">
                    <path d="M52.2314559,21.25 L116.5,81.1077547 L66.5071879,129.545043 L66.4961981,129.535538 C55.0486573,139.893962 33.8075013,137.360253 17.5401811,123.219287 C0.346579209,108.273117 -4.7797601,86.0200027 6.0901818,73.5155649 C6.3466878,73.2204885 6.60980924,72.9334775 6.879317,72.6545119 L52.2314559,21.25 Z" id="形状结合" fill="url(#linearGradient-14)"></path>
                    <path d="M83.4886314,83.8220282 C107.63637,82.872358 126.782292,68.2450764 126.252244,51.1510803 C125.722196,34.0570841 105.716898,20.969522 81.5691591,21.9191921 C57.4214204,22.8688622 38.2754989,37.4961438 38.8055466,54.59014 C39.3355942,71.6841361 59.3408927,84.7716983 83.4886314,83.8220282 Z" id="椭圆形" fill="url(#linearGradient-15)" transform="translate(82.528895, 52.870610) rotate(43.000000) translate(-82.528895, -52.870610) "></path>
                    <g id="椭圆形" transform="translate(39.226138, 8.376862)">
                        <mask id="mask-17" fill="white">
                            <use xlink:href="#path-16"></use>
                        </mask>
                        <use id="蒙版" fill="#7C8084" transform="translate(43.920875, 43.702825) rotate(43.000000) translate(-43.920875, -43.702825) " xlink:href="#path-16"></use>
                        <ellipse fill="url(#radialGradient-18)" mask="url(#mask-17)" transform="translate(36.567418, 62.554585) rotate(-360.000000) translate(-36.567418, -62.554585) " cx="36.5674185" cy="62.5545852" rx="46.25" ry="21.875"></ellipse>
                    </g>
                </g>
                <g id="左杆" transform="translate(44.793117, 60.000000)">
                    <path d="M6.43695364,68.6979424 L13.9333912,80.584949 L25.3371989,74.2086599 L25.3371989,96.5736124 L2.50331648,83.413767 C0.954442434,82.5211048 2.59761038e-14,80.8694228 2.66453526e-14,79.0817269 L2.66453526e-14,79.0817269 L2.66453526e-14,59.6294365 L15.299479,41.3672612 L15.299479,7.08735679 L27.087199,13.8750495 L27.087199,45.0981049 L11.3371979,66.1257556 L6.43695364,68.6979424 Z" id="形状结合" fill="#9DA1A5"></path>
                    <g id="编组-2" transform="translate(5.212197, 58.709948)">
                        <path d="M17.4869442,0.659385511 C18.4256281,-0.237450877 20.0404239,-0.251275915 21.8750015,0.814424843 C24.7744966,2.49873309 27.1250011,6.24176038 27.1250011,9.17471029 C27.1250011,10.7915441 26.410698,11.8246818 25.283892,12.1441554 L8.7211937,21.8750015 L1.22475616,9.98799487 Z" id="形状结合" fill="url(#linearGradient-13)"></path>
                        <path d="M5.25000036,21.0605766 C8.14949549,22.7448849 10.5,21.7326608 10.5,18.7997109 C10.5,15.866761 8.14949549,12.1237338 5.25000036,10.4394255 C2.35050522,8.75511725 0,9.7673413 0,12.7002912 C0,15.6332411 2.35050522,19.3762684 5.25000036,21.0605766 Z" id="椭圆形" fill="#A7ACB2"></path>
                    </g>
                    <polygon id="路径-11" fill="#B6B9BD" points="27.087199 45.0981049 39.3371998 37.9113496 39.3371998 6.87918346 27.087199 13.8750495"></polygon>
                    <path d="M25.3371989,96.5736124 L33.1441897,91.4911647 C34.5614397,90.5685174 35.4162664,88.9920028 35.4162664,87.3008861 L35.4162664,69.0357453 L35.4162664,69.0357453 L25.3371989,74.4599486 L25.3371989,96.5736124 Z" id="路径-11" fill="#B6B9BD"></path>
                    <polygon id="路径-12" fill="#95989B" points="11.6091685 65.7695394 23.7516714 58.8028355 39.3371998 37.9113496 27.087199 45.0981049"></polygon>
                    <polygon id="路径-13" stroke="#979797" stroke-width="0.87500006" fill="#D8D8D8" points="15.299479 7.08735679 27.087199 13.8750495 39.3371998 6.87918346 27.087199 3.73034962e-14"></polygon>
                </g>
                <g id="横板" transform="translate(32.293117, 0.000000)">
                    <polygon id="路径-14" fill="#DCDEE3" points="0 51.6089838 40 74.7029946 128.125777 23.7689343 88.4171265 0.451732916"></polygon>
                    <polygon id="路径-15" fill="#A5A9AE" points="0 51.6089838 0 60 40 83.0940108 40 74.7029946"></polygon>
                    <polygon id="路径-16" fill="#C2C6CB" points="40 83.0574797 40 74.7029946 90 45.8044919 128.381773 23.6209766 128.393113 32.0011983"></polygon>
                </g>
                <path d="M116.34515,136.584949 C121.810461,160.347246 124.543117,183.06893 124.543117,204.75 C124.543117,204.75 129.632674,208.532376 132.087895,209.284048 C133.72471,209.785162 135.574049,181.458928 137.635912,124.305345 C134.996261,130.533549 132.361396,134.37052 129.731317,135.816256 C127.101238,137.261992 122.639182,137.518223 116.34515,136.584949 Z" id="流" fill="url(#radialGradient-19)"></path>
                <g id="右支撑" transform="translate(207.500000, 329.500000) scale(-1, 1) translate(-207.500000, -329.500000) translate(168.500000, 277.500000)">
                    <polygon id="路径-35" fill="#1F4988" points="77.75 46.5610888 77.75 96.5121436 65.5535695 103.5 65.5535695 53.75"></polygon>
                    <path d="M17.4622792,7.93752473 C10.1642024,15.5195557 5.4868858,14.2776786 0.0153295636,15.7099484 L0.0153295636,65.3423993 L65.5535695,103.5 L65.5535695,53.5 C59.2502042,47.1785286 52.9622406,40.4022296 49.375,27.3915089 L17.4622792,7.93752473 Z" id="路径-36" fill="#2F62AE"></path>
                    <polygon id="路径-13" fill="#5F9FFF" points="17.4622792 8.08735679 29.2499992 14.8750495 41.5 7.87918346 29.2499992 1"></polygon>
                    <g id="编组-31" transform="translate(35.000000, 12.500000) scale(-1, 1) translate(-35.000000, -12.500000) translate(21.000000, 0.000000)">
                        <path d="M5.49340929,1.95687701 C7.31096617,0.587249665 9.09237941,0.185452674 10.4397459,0.658805117 L10.4676005,0.613435955 L10.881976,0.854103819 C10.9328265,0.881550852 10.9828756,0.910443717 11.032096,0.940776075 L22.3518136,7.52768948 L13.8149237,22.1216293 L1.74999997,15.1549998 L1.78705314,15.0932445 C1.19907517,14.5611549 0.777396031,13.7713648 0.588593858,12.7393818 C-0.0406758077,9.29982602 2.15528486,4.4723342 5.49340929,1.95687701 Z" id="形状结合" fill="url(#linearGradient-20)"></path>
                        <path d="M15.1647125,20.4456638 C19.3444971,20.4456638 24.0035264,17.9118195 25.5709456,14.7861642 C27.1383649,11.6605089 25.0206243,9.12666458 20.8408397,9.12666458 C16.661055,9.12666458 12.0020258,11.6605089 10.4346065,14.7861642 C8.8671873,17.9118195 10.9849279,20.4456638 15.1647125,20.4456638 Z" id="椭圆形" fill="#D4D6DB" transform="translate(18.002776, 14.786164) rotate(-37.000000) translate(-18.002776, -14.786164) "></path>
                    </g>
                    <path d="M60.875,20.6875247 L49.375,27.3915089 C52.6446665,39.4585998 58.6598511,47.2730855 65.5535695,53.75 L77.75,46.5610888 C70.2224701,40.2019021 63.336092,33.0792986 60.875,20.6875247 Z" id="路径-34" fill="#4980D1"></path>
                    <polygon id="路径-13" fill="#5F9FFF" points="37.58728 20.6038162 49.375 27.3915089 60.875 20.6875247 49.2499992 13.75"></polygon>
                </g>
            </g>
        </g>
    </g>
</svg>