<?xml version="1.0" encoding="UTF-8"?>
<svg width="202px" height="396px" viewBox="0 0 202 396" version="1.1" xmlns="http://www.w3.org/2000/svg" xmlns:xlink="http://www.w3.org/1999/xlink">
    <title>锻压机</title>
    <defs>
        <linearGradient x1="100%" y1="50%" x2="0%" y2="50%" id="linearGradient-1">
            <stop stop-color="#CBCED5" offset="0%"></stop>
            <stop stop-color="#8F9295" offset="27.2375849%"></stop>
            <stop stop-color="#C6C9CF" offset="69.6050739%"></stop>
            <stop stop-color="#B7BAC0" offset="100%"></stop>
        </linearGradient>
        <radialGradient cx="50%" cy="80.0879423%" fx="50%" fy="80.0879423%" r="46.8984231%" gradientTransform="translate(0.500000,0.800879),scale(0.575610,1.000000),rotate(-90.000000),scale(1.000000,2.395184),translate(-0.500000,-0.800879)" id="radialGradient-2">
            <stop stop-color="#FFBB3E" offset="0%"></stop>
            <stop stop-color="#B62227" offset="100%"></stop>
        </radialGradient>
        <radialGradient cx="26.1401678%" cy="33.1936771%" fx="26.1401678%" fy="33.1936771%" r="83.3069237%" gradientTransform="translate(0.261402,0.331937),scale(1.000000,0.640476),rotate(36.108191),scale(1.000000,1.021871),translate(-0.261402,-0.331937)" id="radialGradient-3">
            <stop stop-color="#FFBF4A" offset="0%"></stop>
            <stop stop-color="#B62227" offset="100%"></stop>
        </radialGradient>
        <radialGradient cx="20.0952859%" cy="36.4319698%" fx="20.0952859%" fy="36.4319698%" r="61.0103834%" gradientTransform="translate(0.200953,0.364320),scale(1.000000,0.644643),rotate(52.625202),scale(1.000000,2.395184),translate(-0.200953,-0.364320)" id="radialGradient-4">
            <stop stop-color="#FFBB3E" offset="0%"></stop>
            <stop stop-color="#F8AD3C" offset="14.8624406%"></stop>
            <stop stop-color="#B62227" offset="100%"></stop>
        </radialGradient>
        <linearGradient x1="91.2523076%" y1="39.1043539%" x2="4.54716708%" y2="60.675195%" id="linearGradient-5">
            <stop stop-color="#E3E5E9" offset="0%"></stop>
            <stop stop-color="#B8BBC0" offset="100%"></stop>
        </linearGradient>
        <linearGradient x1="100%" y1="50%" x2="0%" y2="50%" id="linearGradient-6">
            <stop stop-color="#E3E5E9" offset="0%"></stop>
            <stop stop-color="#D3D7DD" offset="38.4274047%"></stop>
            <stop stop-color="#9C9FA4" offset="84.4193548%"></stop>
            <stop stop-color="#D4D8DE" offset="100%"></stop>
        </linearGradient>
        <linearGradient x1="100%" y1="50%" x2="0%" y2="50%" id="linearGradient-7">
            <stop stop-color="#E3E5E9" offset="0%"></stop>
            <stop stop-color="#D3D7DD" offset="38.4274047%"></stop>
            <stop stop-color="#9C9FA4" offset="84.4193548%"></stop>
            <stop stop-color="#D4D8DE" offset="100%"></stop>
        </linearGradient>
        <linearGradient x1="100%" y1="50%" x2="0%" y2="50%" id="linearGradient-8">
            <stop stop-color="#DFE2E6" offset="0%"></stop>
            <stop stop-color="#7A7E82" offset="88.4164964%"></stop>
            <stop stop-color="#D4D8DE" offset="100%"></stop>
        </linearGradient>
        <linearGradient x1="100%" y1="50%" x2="0%" y2="50%" id="linearGradient-9">
            <stop stop-color="#DFE2E6" offset="0%"></stop>
            <stop stop-color="#7A7E82" offset="88.4164964%"></stop>
            <stop stop-color="#D4D8DE" offset="100%"></stop>
        </linearGradient>
        <linearGradient x1="100%" y1="50%" x2="0%" y2="50%" id="linearGradient-10">
            <stop stop-color="#B7BAC0" offset="0%"></stop>
            <stop stop-color="#C6C9CF" offset="30.3949261%"></stop>
            <stop stop-color="#8F9295" offset="72.7624151%"></stop>
            <stop stop-color="#CBCED5" offset="100%"></stop>
        </linearGradient>
        <linearGradient x1="100%" y1="33.651604%" x2="0%" y2="66.7313655%" id="linearGradient-11">
            <stop stop-color="#B7BAC0" offset="0%"></stop>
            <stop stop-color="#C6C9CF" offset="45.8631659%"></stop>
            <stop stop-color="#8F9295" offset="59.9519317%"></stop>
            <stop stop-color="#BFC2C8" offset="77.9034544%"></stop>
            <stop stop-color="#A9ABAD" offset="100%"></stop>
        </linearGradient>
        <linearGradient x1="100%" y1="50%" x2="0%" y2="50%" id="linearGradient-12">
            <stop stop-color="#B7BAC0" offset="0%"></stop>
            <stop stop-color="#C6C9CF" offset="30.3949261%"></stop>
            <stop stop-color="#8F9295" offset="72.7624151%"></stop>
            <stop stop-color="#CBCED5" offset="100%"></stop>
        </linearGradient>
        <linearGradient x1="92.4696673%" y1="15.9188637%" x2="6.32366721%" y2="86.8535914%" id="linearGradient-13">
            <stop stop-color="#E3E5E7" offset="0%"></stop>
            <stop stop-color="#C2C6CB" offset="100%"></stop>
        </linearGradient>
        <linearGradient x1="100%" y1="33.8578651%" x2="0%" y2="66.5202727%" id="linearGradient-14">
            <stop stop-color="#B7BAC0" offset="0%"></stop>
            <stop stop-color="#C6C9CF" offset="45.8631659%"></stop>
            <stop stop-color="#8F9295" offset="59.9519317%"></stop>
            <stop stop-color="#BFC2C8" offset="77.9034544%"></stop>
            <stop stop-color="#A9ABAD" offset="100%"></stop>
        </linearGradient>
        <linearGradient x1="91.2523076%" y1="38.869791%" x2="4.54716708%" y2="60.905012%" id="linearGradient-15">
            <stop stop-color="#E3E5E9" offset="0%"></stop>
            <stop stop-color="#B8BBC0" offset="100%"></stop>
        </linearGradient>
    </defs>
    <g id="-" stroke="none" stroke-width="1" fill="none" fill-rule="evenodd">
        <g id="画板" transform="translate(-780.000000, -905.000000)">
            <g id="锻压机" transform="translate(781.000000, 905.500000)">
                <g id="编组-4" transform="translate(140.000000, 64.625000)">
                    <polygon id="路径-39" stroke="#979797" stroke-width="0.625" fill="#D8D8D8" points="40 34.7029946 60 23.125 20 0 2.13162821e-13 11.5779946 7.70217223e-14 23.125 20 34.7029946"></polygon>
                    <polygon id="路径-44" fill="#CACDD2" points="40 247.5 60 235.922005 60 23.3044919 40 34.8514973"></polygon>
                    <polygon id="路径-47" fill="#AFB2B7" points="20 34.7029946 40 34.7029946 40 247.5 20 247.351497"></polygon>
                    <polygon id="路径-48" fill="#989B9F" points="1.38222767e-13 23.3044919 20 34.7029946 20 247.351497 1.42108547e-13 236.777507"></polygon>
                </g>
                <g id="编组-15" transform="translate(68.125000, 283.375000)">
                    <polygon id="路径-49" fill="#DCDEE3" points="33.9374988 0 0.499998778 19.3879733 33.9374988 38.7500015 67.3749988 19.3620267"></polygon>
                    <polygon id="路径-52" fill="#C2C6CB" points="33.75 38.75 33.8437495 71.875 67.3749988 52.5 67.3749988 19.375"></polygon>
                    <polygon id="路径-52" fill="url(#linearGradient-1)" transform="translate(16.921875, 45.631487) scale(-1, 1) translate(-16.921875, -45.631487) " points="1.63424829e-13 38.75 1.63424829e-13 71.875 33.8437495 52.5 33.3437508 19.3879733"></polygon>
                </g>
                <g id="编组-15" transform="translate(88.125000, 281.500000)">
                    <polygon id="路径-49" fill="url(#radialGradient-2)" points="13.5749997 0 7.77156117e-14 7.75000012 13.475 15.5126851 26.9499999 7.7448108"></polygon>
                    <polygon id="路径-52" fill="url(#radialGradient-3)" points="13.5000002 15.5000002 13.5375 28.7500004 26.9499999 21.0000003 26.9499999 7.75000012"></polygon>
                    <polygon id="路径-52" fill="url(#radialGradient-4)" transform="translate(6.768750, 18.250000) scale(-1, 1) translate(-6.768750, -18.250000) " points="0.0374998158 15.5000002 5.68434197e-14 28.7500004 13.5375 21.0000003 13.5375 7.75000012"></polygon>
                </g>
                <g id="编组-15" transform="translate(68.125000, 191.500000)">
                    <polygon id="路径-49" stroke="#979797" stroke-width="0.625" fill="#D8D8D8" points="33.9374988 0 0.499998778 19.3879733 33.9374988 38.7500015 67.3749988 19.3620267"></polygon>
                    <polygon id="路径-52" fill="#B2B7BD" points="33.75 38.75 33.8437495 103.125 67.3749988 83.75 67.3749988 19.375"></polygon>
                    <polygon id="路径-52" fill="#7F8185" transform="translate(16.921875, 61.250000) scale(-1, 1) translate(-16.921875, -61.250000) " points="0.0937495381 38.75 1.42108547e-13 103.125 33.8437495 83.75 33.8437495 19.375"></polygon>
                </g>
                <g id="编组-15" transform="translate(47.500000, 199.000000)">
                    <polygon id="路径-49" stroke="#979797" stroke-width="0.625" fill="#D8D8D8" points="0.408535624 41.6354412 43.1249974 66.3749983 104.112032 30.780184 115.499993 24.133651 71.9999957 0"></polygon>
                    <polygon id="路径-52" fill="#B1B4B9" points="43.1249974 66.374996 43.1249974 80.2499952 115.499993 37.9140847 115.499993 23.9738681"></polygon>
                    <polygon id="路径-52" fill="#8C8F95" transform="translate(21.562499, 60.845915) scale(-1, 1) translate(-21.562499, -60.845915) " points="0 66.3749983 0 80.2499952 43.1249974 55.6781999 43.0219263 41.4418342"></polygon>
                </g>
                <g id="编组-15" transform="translate(0.000000, 149.000000)">
                    <polygon id="路径-49" fill="url(#linearGradient-5)" points="0.680892748 69.3924061 71.875 110.625004 173.520063 51.3003098 192.5 40.222754 120 0"></polygon>
                    <polygon id="路径-52" fill="#C2C6CB" points="71.875 110.625 71.875 133.75 192.5 63.1901449 192.5 39.9564492"></polygon>
                    <polygon id="路径-52" fill="#989B9F" transform="translate(35.937500, 101.409864) scale(-1, 1) translate(-35.937500, -101.409864) " points="0 110.625004 0 133.75 71.875 92.7970054 71.7032148 69.0697278"></polygon>
                </g>
                <g id="编组-11" transform="translate(53.125000, 93.625000)">
                    <g id="编组-8" transform="translate(76.125003, 0.000000)">
                        <g id="主体" transform="translate(4.500000, 23.250001)">
                            <path d="M11.7600004,3.19516256 L11.7600004,67.6951626 C11.596128,69.5585838 9.02672595,71.0400029 5.88000022,71.0400029 C2.7332745,71.0400029 0.163872444,69.5585838 0.0075352791,67.6959496 L0,67.6951626 L0,3.19516256 L11.7600004,3.19516256 Z" id="形状结合" fill="url(#linearGradient-6)"></path>
                            <ellipse id="椭圆形" stroke="#979797" stroke-width="0.625" fill="#D8D8D8" cx="5.88000022" cy="3.36000013" rx="5.88000022" ry="3.36000013"></ellipse>
                        </g>
                        <g id="主体" transform="translate(2.250000, 16.500001)" fill="#D8D8D8" stroke="#979797">
                            <path d="M8.40000046,4.63135648 C8.76252333,4.63135648 9.11968243,4.64511998 9.47010234,4.67182266 L16.8000009,4.67166097 L16.8000009,9.92166118 L16.7893226,9.92175079 C16.5668456,12.5831412 12.8959036,14.7000009 8.40000046,14.7000009 C3.90409731,14.7000009 0.233155338,12.5831412 0.0106783188,9.92175079 L0,9.92166118 L0,4.67166097 L7.32989858,4.67182266 C7.68031848,4.64511998 8.03747758,4.63135648 8.40000046,4.63135648 Z" id="形状结合" stroke-width="0.75000003"></path>
                            <ellipse id="椭圆形" stroke-width="0.625" cx="8.40000046" cy="4.80000026" rx="8.40000046" ry="4.80000026"></ellipse>
                        </g>
                        <g id="主体" fill="#D8D8D8" stroke="#979797" stroke-width="0.75000003">
                            <path d="M21,6.00000024 L21,21.7770765 L20.9866244,21.77752 C20.7082511,25.1041023 16.1196926,27.7500011 10.5,27.7500011 C4.8803082,27.7500011 0.291748964,25.1041023 0.0133756207,21.77752 L0,21.7770765 L0,6.00000024 L21,6.00000024 Z" id="形状结合"></path>
                            <ellipse id="椭圆形" cx="10.5000004" cy="6.00000024" rx="10.5000004" ry="6.00000024"></ellipse>
                        </g>
                    </g>
                    <g id="编组-9" transform="translate(4.375000, 7.000000)">
                        <g id="主体" transform="translate(8.250001, 40.500002)">
                            <g id="编组-15" transform="translate(0.000000, 31.249998)">
                                <polygon id="路径-49" fill="#DCDEE3" points="33.9374988 0 0.499998778 19.3879733 33.9374988 38.7500015 67.3749988 19.3620267"></polygon>
                                <polygon id="路径-52" fill="#C2C6CB" points="33.75 38.75 33.8437495 48.1250018 67.3749988 28.75 67.3749988 19.375"></polygon>
                                <polygon id="路径-52" fill="#989B9F" transform="translate(16.921875, 33.750000) scale(-1, 1) translate(-16.921875, -33.750000) " points="0.0937495381 38.75 -4.4408921e-15 48.125 33.8437495 28.75 33.8437495 19.375"></polygon>
                            </g>
                            <path d="M53.1023991,13.2719995 L53.1023991,49.2719995 L53.0781172,49.2729387 C52.5729045,55.15252 44.2474795,59.8290003 34.0511995,59.8290003 C23.8549196,59.8290003 15.5294946,55.15252 15.0242819,49.2729387 L15,49.2719995 L15,13.2719995 L53.1023991,13.2719995 Z" id="形状结合" fill="url(#linearGradient-7)"></path>
                            <ellipse id="椭圆形" stroke="#979797" stroke-width="0.625" fill="#D8D8D8" cx="34.0511995" cy="11.0564997" rx="19.0511995" ry="11.0564997"></ellipse>
                        </g>
                        <g id="主体" transform="translate(8.250000, 12.750001)">
                            <path d="M34.0200018,10.864097 C46.9208993,10.864097 58.1445983,15.0565041 63.9120669,21.2350278 L68.0400036,21.2357168 L68.0400036,31.7357168 L67.996819,31.7353416 C67.0964127,42.2355577 52.228831,50.5875032 34.0200018,50.5875032 C15.8111726,50.5875032 0.943590902,42.2355577 0.0431846496,31.7353416 L0,31.7357168 L0,21.2357168 L4.12793669,21.2350278 C9.89540527,15.0565041 21.1191043,10.864097 34.0200018,10.864097 Z" id="形状结合" fill="url(#linearGradient-8)"></path>
                            <ellipse id="椭圆形" stroke="#979797" stroke-width="0.625" fill="#D8D8D8" cx="34.0200018" cy="19.743751" rx="34.0200018" ry="19.743751"></ellipse>
                        </g>
                        <g id="主体">
                            <path d="M42,7.20876067 C59.5881904,7.20876067 74.6513169,13.5205266 80.9065687,22.4759988 L84,22.4761923 L84,32.9761923 L83.9466484,32.9761625 C82.834664,45.9391885 64.4797868,56.2500022 42,56.2500022 C19.5202165,56.2500022 1.16533621,45.9391885 0.0533515597,32.9761625 L0,32.9761923 L0,22.4761923 L3.09343174,22.4759988 C9.3486843,13.5205266 24.4118121,7.20876067 42,7.20876067 Z" id="形状结合" fill="url(#linearGradient-9)"></path>
                            <ellipse id="椭圆形" stroke="#979797" stroke-width="0.75000003" fill="#D8D8D8" cx="42.0000017" cy="24.375001" rx="42.0000017" ry="24.375001"></ellipse>
                        </g>
                    </g>
                    <g id="编组-8" transform="translate(0.000000, 42.875002)">
                        <g id="主体" transform="translate(4.500000, 23.250001)">
                            <path d="M11.7600004,3.19516256 L11.7600004,67.6951626 C11.596128,69.5585838 9.02672595,71.0400029 5.88000022,71.0400029 C2.7332745,71.0400029 0.163872444,69.5585838 0.0075352791,67.6959496 L0,67.6951626 L0,3.19516256 L11.7600004,3.19516256 Z" id="形状结合" fill="url(#linearGradient-6)"></path>
                            <ellipse id="椭圆形" stroke="#979797" stroke-width="0.625" fill="#D8D8D8" cx="5.88000022" cy="3.36000013" rx="5.88000022" ry="3.36000013"></ellipse>
                        </g>
                        <g id="主体" transform="translate(2.250000, 16.500001)" fill="#D8D8D8" stroke="#979797">
                            <path d="M8.40000046,4.63135648 C8.76252333,4.63135648 9.11968243,4.64511998 9.47010234,4.67182266 L16.8000009,4.67166097 L16.8000009,9.92166118 L16.7893226,9.92175079 C16.5668456,12.5831412 12.8959036,14.7000009 8.40000046,14.7000009 C3.90409731,14.7000009 0.233155338,12.5831412 0.0106783188,9.92175079 L0,9.92166118 L0,4.67166097 L7.32989858,4.67182266 C7.68031848,4.64511998 8.03747758,4.63135648 8.40000046,4.63135648 Z" id="形状结合" stroke-width="0.75000003"></path>
                            <ellipse id="椭圆形" stroke-width="0.625" cx="8.40000046" cy="4.80000026" rx="8.40000046" ry="4.80000026"></ellipse>
                        </g>
                        <g id="主体" fill="#D8D8D8" stroke="#979797" stroke-width="0.75000003">
                            <path d="M21,6.00000024 L21,21.7770765 L20.9866244,21.77752 C20.7082511,25.1041023 16.1196926,27.7500011 10.5,27.7500011 C4.8803082,27.7500011 0.291748964,25.1041023 0.0133756207,21.77752 L0,21.7770765 L0,6.00000024 L21,6.00000024 Z" id="形状结合"></path>
                            <ellipse id="椭圆形" cx="10.5000004" cy="6.00000024" rx="10.5000004" ry="6.00000024"></ellipse>
                        </g>
                    </g>
                </g>
                <g id="编组-5" transform="translate(0.000000, 146.500000)">
                    <polygon id="路径-39" stroke="#979797" stroke-width="0.625" fill="#D8D8D8" points="40 34.7029946 60 23.125 60 11.9992163 40 3.00518896e-13 20 -6.16449018e-14 0 11.5779946"></polygon>
                    <polygon id="路径-39" stroke="#979797" stroke-width="0.625" fill-opacity="0" fill="#D8D8D8" points="40 92.3824865 60 80.8044919 60 69.6787083 40 57.6794919 20 57.6794919 0 69.2574865"></polygon>
                    <polygon id="路径-40" fill="url(#linearGradient-10)" points="-1.42108547e-13 11.5779946 -1.42108547e-13 224.820508 40 247.235367 40 34.7029946 19.6681475 22.9486424"></polygon>
                    <polygon id="路径-44" fill="#C9CCD1" points="40 247.5 60 235.922005 60 23.1559892 40 34.7029946"></polygon>
                </g>
                <g id="上底" transform="translate(0.000000, 87.750000)">
                    <polygon id="路径-50" fill="#8E9196" points="40 101.398503 40 93.4529946 2.84217094e-13 70.3279946 2.84217094e-13 78.2735027"></polygon>
                    <path d="M40,93.4529946 L40,101.472754 L107.74637,62.0239319 C122.060887,60.3305772 135.065259,56.4892029 141.721618,42.2400891 L200,8.30449192 L200,0.179491924 L40,93.4529946 Z" id="路径-51" fill="url(#linearGradient-11)"></path>
                </g>
                <g id="上部">
                    <g id="左面" transform="translate(0.000000, 100.250000)" fill="url(#linearGradient-12)">
                        <polygon id="路径-40" points="-1.42108547e-13 0.327994616 -1.42108547e-13 58.5705081 40 80.9853673 40 23.4529946 19.6681475 11.6986424"></polygon>
                    </g>
                    <polygon id="路径-50" fill="#8E9196" points="40 123.702995 40 115.757487 3.97903932e-13 92.6324865 3.97903932e-13 100.577995"></polygon>
                    <path d="M40,123.523503 L40,181.202995 L107.482394,141.863499 C126.802361,139.96601 136.727328,132.102815 142.374125,121.523037 L200,87.9294919 L200,30.4294919 L40,123.523503 Z" id="路径-46" fill="url(#linearGradient-13)"></path>
                    <path d="M81.25,127.845452 C82.5945626,126.737008 83.5992908,125.628959 84.2641844,124.521307 L87.5,122.620773 L87.5,120.788104 L85.3280142,122.063805 C85.5053191,121.428457 85.6309102,120.816844 85.7047872,120.228964 L83.0673759,121.778029 C82.9343972,123.476319 82.3286052,124.994146 81.25,126.331508 L81.25,127.845452 Z M90.4212204,136.208799 L90.4212204,132.441964 C91.1566485,131.841665 91.9425471,131.162621 92.7789162,130.404831 L92.7789162,128.489847 C91.8848664,129.225399 91.0989678,129.841312 90.4212204,130.337587 L90.4212204,127.959641 L92.4112022,126.790838 L92.4112022,124.875855 L90.4212204,126.044658 L90.4212204,123.877149 L92.4328324,122.695643 L92.4328324,120.780659 L90.4212204,121.962166 L90.4212204,119.878833 L90.8105647,119.650154 C91.6901943,119.147539 92.4616727,118.582183 93.125,117.954086 L93.125,115.870752 C92.2597905,116.701598 91.3585307,117.378254 90.4212204,117.900718 L87.825592,119.425243 L87.825592,132.072549 L86.7224499,132.720472 L86.7224499,134.277711 C86.3331056,134.758915 85.9437614,135.169973 85.5544171,135.510885 L85.5544171,132.059707 L87.1550546,131.119583 L87.1550546,129.183556 L85.5544171,130.12368 L85.5544171,127.598427 L86.8306011,126.848869 L86.8306011,124.933886 L81.6393443,127.982935 L81.6393443,129.897919 L82.9155282,129.148361 L82.9155282,131.673613 L81.25,132.65185 L81.25,134.587877 L82.9155282,133.60964 L82.9155282,140.575128 C84.6171069,139.02858 85.9653916,137.535215 86.9603825,136.095034 L86.9603825,134.853451 C87.2632058,134.67559 87.551609,134.492169 87.825592,134.303189 L87.825592,137.733324 L90.4212204,136.208799 Z M93.125,123.370752 C95.4624246,121.447332 96.5751507,119.499986 96.4631783,117.528715 L96.4631783,116.41385 L97.5759044,115.760298 L97.5759044,118.155193 C97.5199182,119.633271 98.2057494,119.925523 99.6333979,119.031948 L101.25,118.082448 L101.25,116.286277 L100.620155,116.656212 C100.088286,117.023657 99.8433463,116.864718 99.8853359,116.179395 L99.8853359,112.525115 L94.1537468,115.891525 L94.1547965,119.251607 C94.1233043,120.159518 93.7800388,121.016425 93.125,121.822329 L93.125,123.370752 Z M100.625,128.16039 C99.5525272,128.083569 98.7108396,127.900044 98.0999373,127.609815 C99.077381,125.737643 99.8172515,123.565104 100.319549,121.092199 L100.319549,119.145083 L93.1923559,123.331191 L93.1923559,125.299941 L97.7741228,122.608872 C97.4347327,124.091864 97.0546157,125.353585 96.6337719,126.394034 C96.2400794,125.875267 95.9142648,125.258939 95.6563283,124.545052 L93.1312657,126.02813 C93.6607143,127.563316 94.3327068,128.654203 95.1472431,129.30079 C94.4820384,130.383801 93.5996241,131.608812 92.5,132.975823 L92.5,134.987842 C94.2105263,133.20433 95.5816625,131.569676 96.6134085,130.083879 C97.5637009,130.391116 98.9008981,130.435049 100.625,130.215679 L100.625,128.16039 Z M113.125,122.873889 C116.462989,119.165177 118.027235,114.785056 117.817737,109.733528 L117.817737,104.153377 L131.875,95.8969401 L131.875,93.7362052 L114.549581,103.912171 L114.549581,113.163474 C114.549581,114.925626 114.444832,116.336735 114.235335,117.396799 C114.039804,118.462646 113.669693,119.540127 113.125,120.629242 L113.125,122.873889 Z M132.5,110.244116 L132.5,108.160782 L126.644301,111.600087 L126.644301,105.350087 L131.823529,102.308103 L131.823529,100.245603 L126.644301,103.287587 L126.644301,99.9334202 L123.515625,101.771027 L123.515625,105.125194 L119.055147,107.745025 L119.055147,109.807525 L123.515625,107.187694 L123.515625,113.437694 L118.125,116.60384 L118.125,118.687174 L132.5,110.244116 Z M131.25,107.853295 C131,106.683641 130.602941,105.666851 130.058824,104.802924 L127.5,106.305831 C127.985294,107.310691 128.323529,108.362031 128.514706,109.459851 L131.25,107.853295 Z M149.781977,101.343665 L149.781977,91.762621 C150.377907,92.3778069 151.075581,92.8906517 151.875,93.3011553 L151.875,90.5758805 C150.930233,89.5694279 150.239826,88.2787341 149.803779,86.7037991 L151.765988,85.5513089 L151.765988,83.528644 L149.781977,84.6939397 L149.781977,81.968665 L146.860465,83.6845948 L146.860465,86.4098695 L144.789244,87.626387 L144.789244,89.6490518 L146.686047,88.5349779 C146.148256,91.5903145 145.377907,94.5622333 144.375,97.4507344 L144.375,100.410212 C145.450581,98.2738983 146.27907,96.3962657 146.860465,94.7773146 L146.860465,103.059595 L149.781977,101.343665 Z M151.25,100.481432 C154.495061,97.3935534 156.046114,93.2705276 155.903159,88.1123542 L155.903159,81.6048743 L158.240461,80.2320764 L158.241648,93.4418491 C158.294675,94.9595818 159.094822,95.2378854 160.642092,94.2767597 L162.477238,93.1974323 C163.781416,92.3776596 164.413402,91.2560927 164.373196,89.8327316 L164.373196,88.6855797 L162.378985,89.8568661 L162.378985,90.6285864 C162.393281,91.065146 162.214588,91.3856255 161.842907,91.5900249 C161.414044,91.8558193 161.206761,91.7620404 161.221056,91.3086881 L161.221056,76.5 L152.922564,81.3740624 L152.922564,89.9881303 C152.922564,92.0460513 152.808201,93.6288528 152.579474,94.7365349 C152.365043,95.8358206 151.921885,97.013828 151.25,98.270557 L151.25,100.481432 Z" id="锻压机" fill="#909396" fill-rule="nonzero"></path>
                    <path d="M40,115.757487 L40,123.777246 L107.74637,84.3284238 C122.060887,82.6350691 135.065259,78.7936948 141.721618,64.5445811 L200,30.6089838 L200,23.125 L141.754056,56.439004 C133.294871,74.1202863 120.352746,75.3390604 107.38759,76.4732581 L40,115.757487 Z" id="路径-51" fill="url(#linearGradient-14)"></path>
                    <path d="M40,116.757487 L106.888624,77.6140603 C118.989677,75.2419926 131.250003,77.6140603 141.886534,57.1331771 L200,23.125 L160,0.179491924 L96.478152,37.2814102 C74.2976132,37.9508935 60.7231499,48.4529946 58.3330119,59.56127 L0,93.6324865 L40,116.757487 Z" id="路径-45" fill="url(#linearGradient-15)"></path>
                </g>
            </g>
        </g>
    </g>
</svg>